solid RedTeamTripleThreat
facet normal 0.0 -1.0 0.0
  outer loop
    vertex 3.3499999999999996 34.3 6.500000000000001
    vertex 1.6500000000000024 34.3 0.0
    vertex 3.3499999999999996 34.3 0.0
  endloop
endfacet
facet normal 0.0 -1.0 0.0
  outer loop
    vertex 1.6500000000000024 34.3 0.0
    vertex 3.3499999999999996 34.3 6.500000000000001
    vertex 1.6500000000000024 34.3 6.500000000000001
  endloop
endfacet
facet normal 0.9999993970608396 0.0007543173575398228 0.0007980496737000114
  outer loop
    vertex 1.6500000000000024 34.3 0.0
    vertex 1.6500000000000024 27.5 6.500000000000001
    vertex 1.6500000000000024 27.5 0.0
  endloop
endfacet
facet normal 0.9999993970608396 0.0007543173575398228 0.0007980496737000114
  outer loop
    vertex 1.6500000000000024 27.5 6.500000000000001
    vertex 1.6500000000000024 34.3 0.0
    vertex 1.631902 34.26200728448089 6.500000000000002
  endloop
endfacet
facet normal 0.9999993970608396 0.0007543173575398228 0.0007980496737000114
  outer loop
    vertex 1.631902 34.26200728448089 6.500000000000002
    vertex 1.6500000000000024 34.3 0.0
    vertex 1.6500000000000024 34.3 6.500000000000001
  endloop
endfacet
facet normal 1.7411173552189705e-16 -6.113772142066049e-17 1.0
  outer loop
    vertex 0.0 0.0 6.499999999999999
    vertex 1.650000000000002 1.8499999999999983 6.500000000000002
    vertex 2.2420751463049657e-16 27.227626284480888 6.500000000000002
  endloop
endfacet
facet normal 1.7411173552189705e-16 -6.113772142066049e-17 1.0
  outer loop
    vertex 1.650000000000002 1.8499999999999983 6.500000000000002
    vertex 0.0 0.0 6.499999999999999
    vertex 5.0 0.0 6.499999999999999
  endloop
endfacet
facet normal 1.7411173552189705e-16 -6.113772142066049e-17 1.0
  outer loop
    vertex 2.2420751463049657e-16 27.227626284480888 6.500000000000002
    vertex 1.650000000000002 1.8499999999999983 6.500000000000002
    vertex 1.631902 27.227626284480888 6.500000000000002
  endloop
endfacet
facet normal 1.7411173552189705e-16 -6.113772142066049e-17 1.0
  outer loop
    vertex 1.650000000000002 1.8499999999999983 6.500000000000002
    vertex 5.0 0.0 6.499999999999999
    vertex 3.3499999999999988 1.8499999999999983 6.500000000000002
  endloop
endfacet
facet normal 1.7411173552189705e-16 -6.113772142066049e-17 1.0
  outer loop
    vertex 3.3499999999999988 1.8499999999999983 6.500000000000002
    vertex 5.0 0.0 6.499999999999999
    vertex 3.3499999999999988 8.65 6.500000000000002
  endloop
endfacet
facet normal 1.7411173552189705e-16 -6.113772142066049e-17 1.0
  outer loop
    vertex 3.3499999999999988 8.65 6.500000000000002
    vertex 5.0 0.0 6.499999999999999
    vertex 3.3499999999999988 10.399999999999999 6.5000000000000036
  endloop
endfacet
facet normal 1.7411173552189705e-16 -6.113772142066049e-17 1.0
  outer loop
    vertex 3.3499999999999988 10.399999999999999 6.5000000000000036
    vertex 5.0 0.0 6.499999999999999
    vertex 3.3499999999999988 17.199999999999996 6.5000000000000036
  endloop
endfacet
facet normal 1.7411173552189705e-16 -6.113772142066049e-17 1.0
  outer loop
    vertex 3.3499999999999988 17.199999999999996 6.5000000000000036
    vertex 5.0 0.0 6.499999999999999
    vertex 3.3499999999999996 18.95 6.500000000000002
  endloop
endfacet
facet normal 1.7411173552189705e-16 -6.113772142066049e-17 1.0
  outer loop
    vertex 3.3499999999999996 18.95 6.500000000000002
    vertex 5.0 0.0 6.499999999999999
    vertex 3.3499999999999996 25.749999999999996 6.500000000000002
  endloop
endfacet
facet normal 1.7411173552189705e-16 -6.113772142066049e-17 1.0
  outer loop
    vertex 3.3499999999999996 25.749999999999996 6.500000000000002
    vertex 5.0 0.0 6.499999999999999
    vertex 3.3499999999999996 27.5 6.500000000000001
  endloop
endfacet
facet normal 1.7411173552189705e-16 -6.113772142066049e-17 1.0
  outer loop
    vertex 3.3499999999999996 27.5 6.500000000000001
    vertex 5.0 0.0 6.499999999999999
    vertex 3.3499999999999996 34.3 6.500000000000001
  endloop
endfacet
facet normal 1.7411173552189705e-16 -6.113772142066049e-17 1.0
  outer loop
    vertex 3.3499999999999996 34.3 6.500000000000001
    vertex 5.0 0.0 6.499999999999999
    vertex 3.350000000000001 36.050000000000004 6.500000000000002
  endloop
endfacet
facet normal 1.7411173552189705e-16 -6.113772142066049e-17 1.0
  outer loop
    vertex 3.350000000000001 36.050000000000004 6.500000000000002
    vertex 5.0 0.0 6.499999999999999
    vertex 3.350000000000001 42.85 6.500000000000002
  endloop
endfacet
facet normal 1.7411173552189705e-16 -6.113772142066049e-17 1.0
  outer loop
    vertex 3.350000000000001 42.85 6.500000000000002
    vertex 5.0 0.0 6.499999999999999
    vertex 3.350000000000001 44.6 6.5000000000000036
  endloop
endfacet
facet normal 1.7411173552189705e-16 -6.113772142066049e-17 1.0
  outer loop
    vertex 3.350000000000001 44.6 6.5000000000000036
    vertex 5.0 0.0 6.499999999999999
    vertex 3.350000000000001 51.400000000000006 6.5000000000000036
  endloop
endfacet
facet normal 1.7411173552189705e-16 -6.113772142066049e-17 1.0
  outer loop
    vertex 1.631902 34.26200728448089 6.500000000000002
    vertex 6.253161289202563e-16 53.35 6.5000000000000036
    vertex 2.2420751463049657e-16 34.26200728448089 6.500000000000002
  endloop
endfacet
facet normal 1.7411173552189705e-16 -6.113772142066049e-17 1.0
  outer loop
    vertex 6.253161289202563e-16 53.35 6.5000000000000036
    vertex 1.631902 34.26200728448089 6.500000000000002
    vertex 1.650000000000002 51.400000000000006 6.5000000000000036
  endloop
endfacet
facet normal 1.7411173552189705e-16 -6.113772142066049e-17 1.0
  outer loop
    vertex 6.253161289202563e-16 53.35 6.5000000000000036
    vertex 1.650000000000002 51.400000000000006 6.5000000000000036
    vertex 5.0 53.35 6.500000000000002
  endloop
endfacet
facet normal 1.7411173552189705e-16 -6.113772142066049e-17 1.0
  outer loop
    vertex 1.650000000000002 51.400000000000006 6.5000000000000036
    vertex 1.631902 34.26200728448089 6.500000000000002
    vertex 1.650000000000002 44.6 6.5000000000000036
  endloop
endfacet
facet normal 1.7411173552189705e-16 -6.113772142066049e-17 1.0
  outer loop
    vertex 5.0 53.35 6.500000000000002
    vertex 1.650000000000002 51.400000000000006 6.5000000000000036
    vertex 3.350000000000001 51.400000000000006 6.5000000000000036
  endloop
endfacet
facet normal 1.7411173552189705e-16 -6.113772142066049e-17 1.0
  outer loop
    vertex 5.0 53.35 6.500000000000002
    vertex 3.350000000000001 51.400000000000006 6.5000000000000036
    vertex 5.0 0.0 6.499999999999999
  endloop
endfacet
facet normal 1.7411173552189705e-16 -6.113772142066049e-17 1.0
  outer loop
    vertex 5.0 53.35 6.500000000000002
    vertex 5.0 0.0 6.499999999999999
    vertex 5.0 17.6 6.500000000000001
  endloop
endfacet
facet normal 1.7411173552189705e-16 -6.113772142066049e-17 1.0
  outer loop
    vertex 1.6500000000000024 34.3 6.500000000000001
    vertex 1.650000000000002 44.6 6.5000000000000036
    vertex 1.631902 34.26200728448089 6.500000000000002
  endloop
endfacet
facet normal 1.7411173552189705e-16 -6.113772142066049e-17 1.0
  outer loop
    vertex 1.650000000000002 44.6 6.5000000000000036
    vertex 1.6500000000000024 34.3 6.500000000000001
    vertex 1.6500000000000026 42.85 6.500000000000002
  endloop
endfacet
facet normal 1.7411173552189705e-16 -6.113772142066049e-17 1.0
  outer loop
    vertex 1.650000000000002 44.6 6.5000000000000036
    vertex 1.6500000000000026 42.85 6.500000000000002
    vertex 3.350000000000001 44.6 6.5000000000000036
  endloop
endfacet
facet normal 1.7411173552189705e-16 -6.113772142066049e-17 1.0
  outer loop
    vertex 1.6500000000000026 42.85 6.500000000000002
    vertex 1.6500000000000024 34.3 6.500000000000001
    vertex 1.6500000000000026 36.050000000000004 6.500000000000002
  endloop
endfacet
facet normal 1.7411173552189705e-16 -6.113772142066049e-17 1.0
  outer loop
    vertex 3.350000000000001 44.6 6.5000000000000036
    vertex 1.6500000000000026 42.85 6.500000000000002
    vertex 3.350000000000001 42.85 6.500000000000002
  endloop
endfacet
facet normal 1.7411173552189705e-16 -6.113772142066049e-17 1.0
  outer loop
    vertex 3.3499999999999996 34.3 6.500000000000001
    vertex 1.6500000000000026 36.050000000000004 6.500000000000002
    vertex 1.6500000000000024 34.3 6.500000000000001
  endloop
endfacet
facet normal 1.7411173552189705e-16 -6.113772142066049e-17 1.0
  outer loop
    vertex 1.6500000000000026 36.050000000000004 6.500000000000002
    vertex 3.3499999999999996 34.3 6.500000000000001
    vertex 3.350000000000001 36.050000000000004 6.500000000000002
  endloop
endfacet
facet normal 1.7411173552189705e-16 -6.113772142066049e-17 1.0
  outer loop
    vertex 1.631902 27.227626284480888 6.500000000000002
    vertex 1.650000000000002 25.749999999999996 6.500000000000002
    vertex 1.6500000000000024 27.5 6.500000000000001
  endloop
endfacet
facet normal 1.7411173552189705e-16 -6.113772142066049e-17 1.0
  outer loop
    vertex 1.650000000000002 25.749999999999996 6.500000000000002
    vertex 1.631902 27.227626284480888 6.500000000000002
    vertex 1.650000000000002 1.8499999999999983 6.500000000000002
  endloop
endfacet
facet normal 1.7411173552189705e-16 -6.113772142066049e-17 1.0
  outer loop
    vertex 1.650000000000002 25.749999999999996 6.500000000000002
    vertex 1.650000000000002 1.8499999999999983 6.500000000000002
    vertex 1.650000000000002 8.65 6.500000000000002
  endloop
endfacet
facet normal 1.7411173552189705e-16 -6.113772142066049e-17 1.0
  outer loop
    vertex 1.650000000000002 25.749999999999996 6.500000000000002
    vertex 1.650000000000002 8.65 6.500000000000002
    vertex 1.650000000000002 18.95 6.500000000000002
  endloop
endfacet
facet normal 1.7411173552189705e-16 -6.113772142066049e-17 1.0
  outer loop
    vertex 1.6500000000000024 27.5 6.500000000000001
    vertex 1.650000000000002 25.749999999999996 6.500000000000002
    vertex 3.3499999999999996 25.749999999999996 6.500000000000002
  endloop
endfacet
facet normal 1.7411173552189705e-16 -6.113772142066049e-17 1.0
  outer loop
    vertex 1.6500000000000024 27.5 6.500000000000001
    vertex 3.3499999999999996 25.749999999999996 6.500000000000002
    vertex 3.3499999999999996 27.5 6.500000000000001
  endloop
endfacet
facet normal 1.7411173552189705e-16 -6.113772142066049e-17 1.0
  outer loop
    vertex 1.650000000000002 18.95 6.500000000000002
    vertex 1.6500000000000024 17.199999999999996 6.5000000000000036
    vertex 3.3499999999999996 18.95 6.500000000000002
  endloop
endfacet
facet normal 1.7411173552189705e-16 -6.113772142066049e-17 1.0
  outer loop
    vertex 1.6500000000000024 17.199999999999996 6.5000000000000036
    vertex 1.650000000000002 18.95 6.500000000000002
    vertex 1.6500000000000024 10.399999999999999 6.5000000000000036
  endloop
endfacet
facet normal 1.7411173552189705e-16 -6.113772142066049e-17 1.0
  outer loop
    vertex 3.3499999999999996 18.95 6.500000000000002
    vertex 1.6500000000000024 17.199999999999996 6.5000000000000036
    vertex 3.3499999999999988 17.199999999999996 6.5000000000000036
  endloop
endfacet
facet normal 1.7411173552189705e-16 -6.113772142066049e-17 1.0
  outer loop
    vertex 1.650000000000002 8.65 6.500000000000002
    vertex 1.6500000000000024 10.399999999999999 6.5000000000000036
    vertex 1.650000000000002 18.95 6.500000000000002
  endloop
endfacet
facet normal 1.7411173552189705e-16 -6.113772142066049e-17 1.0
  outer loop
    vertex 1.6500000000000024 10.399999999999999 6.5000000000000036
    vertex 1.650000000000002 8.65 6.500000000000002
    vertex 3.3499999999999988 8.65 6.500000000000002
  endloop
endfacet
facet normal 1.7411173552189705e-16 -6.113772142066049e-17 1.0
  outer loop
    vertex 1.6500000000000024 10.399999999999999 6.5000000000000036
    vertex 3.3499999999999988 8.65 6.500000000000002
    vertex 3.3499999999999988 10.399999999999999 6.5000000000000036
  endloop
endfacet
facet normal -1.0 -1.8566531580721294e-48 2.310599407647944e-17
  outer loop
    vertex -4.7 51.35243528448088 6.500000000000005
    vertex -4.7 44.31805428448089 0.0007495583149194892
    vertex -4.7 44.31805428448089 6.500000000000005
  endloop
endfacet
facet normal -1.0 -1.8566531580721294e-48 2.310599407647944e-17
  outer loop
    vertex -4.7 44.31805428448089 0.0007495583149194892
    vertex -4.7 51.35243528448088 6.500000000000005
    vertex -4.7 51.35243528448088 0.0007495583149194892
  endloop
endfacet
facet normal 0.0 0.0 -1.0
  outer loop
    vertex -1.2920302869878767e-16 51.35243528448088 0.0007495583149194545
    vertex -4.7 44.31805428448089 0.0007495583149194892
    vertex -4.7 51.35243528448088 0.0007495583149194892
  endloop
endfacet
facet normal 0.0 0.0 -1.0
  outer loop
    vertex -4.7 44.31805428448089 0.0007495583149194892
    vertex -1.2920302869878767e-16 51.35243528448088 0.0007495583149194545
    vertex -1.2920302869878767e-16 44.31805428448089 0.0007495583149194545
  endloop
endfacet
facet normal 0.0 -1.0 0.0
  outer loop
    vertex 0.0 44.31805428448089 1.842348294212777
    vertex -4.7 44.31805428448089 0.0007495583149194892
    vertex -1.2920302869878767e-16 44.31805428448089 0.0007495583149194545
  endloop
endfacet
facet normal 0.0 -1.0 0.0
  outer loop
    vertex -4.7 44.31805428448089 0.0007495583149194892
    vertex 0.0 44.31805428448089 1.842348294212777
    vertex -2.6 44.31805428448089 1.842348294212777
  endloop
endfacet
facet normal 0.0 -1.0 0.0
  outer loop
    vertex -4.7 44.31805428448089 0.0007495583149194892
    vertex -2.6 44.31805428448089 1.842348294212777
    vertex -4.7 44.31805428448089 6.500000000000005
  endloop
endfacet
facet normal 0.0 -1.0 0.0
  outer loop
    vertex -4.7 44.31805428448089 6.500000000000005
    vertex -2.6 44.31805428448089 1.842348294212777
    vertex -2.6 44.31805428448089 6.500000000000005
  endloop
endfacet
facet normal 0.0 0.0 1.0
  outer loop
    vertex -2.6 44.31805428448089 6.500000000000005
    vertex -4.7 51.35243528448088 6.500000000000005
    vertex -4.7 44.31805428448089 6.500000000000005
  endloop
endfacet
facet normal 0.0 0.0 1.0
  outer loop
    vertex -4.7 51.35243528448088 6.500000000000005
    vertex -2.6 44.31805428448089 6.500000000000005
    vertex -2.6 51.35243528448088 6.500000000000005
  endloop
endfacet
facet normal -0.0 1.0 -0.0
  outer loop
    vertex -4.7 51.35243528448088 6.500000000000005
    vertex -2.6 51.35243528448088 1.842348294212777
    vertex -4.7 51.35243528448088 0.0007495583149194892
  endloop
endfacet
facet normal -0.0 1.0 -0.0
  outer loop
    vertex -2.6 51.35243528448088 1.842348294212777
    vertex -4.7 51.35243528448088 6.500000000000005
    vertex -2.6 51.35243528448088 6.500000000000005
  endloop
endfacet
facet normal -0.0 1.0 -0.0
  outer loop
    vertex -4.7 51.35243528448088 0.0007495583149194892
    vertex 0.0 51.35243528448088 1.842348294212777
    vertex -1.2920302869878767e-16 51.35243528448088 0.0007495583149194545
  endloop
endfacet
facet normal -0.0 1.0 -0.0
  outer loop
    vertex 0.0 51.35243528448088 1.842348294212777
    vertex -4.7 51.35243528448088 0.0007495583149194892
    vertex -2.6 51.35243528448088 1.842348294212777
  endloop
endfacet
facet normal 0.0 0.0 1.0
  outer loop
    vertex 0.0 44.31805428448089 1.842348294212777
    vertex -2.6 51.35243528448088 1.842348294212777
    vertex -2.6 44.31805428448089 1.842348294212777
  endloop
endfacet
facet normal 0.0 0.0 1.0
  outer loop
    vertex -2.6 51.35243528448088 1.842348294212777
    vertex 0.0 44.31805428448089 1.842348294212777
    vertex 0.0 51.35243528448088 1.842348294212777
  endloop
endfacet
facet normal 1.0 0.0 0.0
  outer loop
    vertex -2.6 51.35243528448088 1.842348294212777
    vertex -2.6 44.31805428448089 6.500000000000005
    vertex -2.6 44.31805428448089 1.842348294212777
  endloop
endfacet
facet normal 1.0 0.0 0.0
  outer loop
    vertex -2.6 44.31805428448089 6.500000000000005
    vertex -2.6 51.35243528448088 1.842348294212777
    vertex -2.6 51.35243528448088 6.500000000000005
  endloop
endfacet
facet normal -1.0 0.0 2.310599407647944e-17
  outer loop
    vertex -4.7 34.26200728448089 8.750000000000002
    vertex -4.7 27.227626284480888 1.5015841064711513
    vertex -4.7 27.227626284480888 8.750000000000002
  endloop
endfacet
facet normal -1.0 0.0 2.310599407647944e-17
  outer loop
    vertex -4.7 27.227626284480888 1.5015841064711513
    vertex -4.7 34.26200728448089 8.750000000000002
    vertex -4.7 34.26200728448089 1.5015841064711513
  endloop
endfacet
facet normal 0.0 -1.0 0.0
  outer loop
    vertex 1.631902 27.227626284480888 8.750000000000002
    vertex 2.2420751463049657e-16 27.227626284480888 6.500000000000002
    vertex 1.631902 27.227626284480888 6.500000000000002
  endloop
endfacet
facet normal 0.0 -1.0 0.0
  outer loop
    vertex 2.2420751463049657e-16 27.227626284480888 6.500000000000002
    vertex -1.6000000000000003 27.227626284480888 5.901584106471152
    vertex 9.50237689964633e-17 27.227626284480888 5.901584106471152
  endloop
endfacet
facet normal 0.0 -1.0 0.0
  outer loop
    vertex -1.6000000000000003 27.227626284480888 5.901584106471152
    vertex 2.2420751463049657e-16 27.227626284480888 6.500000000000002
    vertex -1.5999999999999999 27.227626284480888 8.750000000000002
  endloop
endfacet
facet normal 0.0 -1.0 0.0
  outer loop
    vertex -1.5999999999999999 27.227626284480888 8.750000000000002
    vertex 2.2420751463049657e-16 27.227626284480888 6.500000000000002
    vertex 1.631902 27.227626284480888 8.750000000000002
  endloop
endfacet
facet normal -0.0 1.0 -0.0
  outer loop
    vertex -1.5999999999999999 34.26200728448089 8.750000000000002
    vertex 9.50237689964633e-17 34.26200728448089 5.901584106471152
    vertex -1.6000000000000003 34.26200728448089 5.901584106471152
  endloop
endfacet
facet normal -0.0 1.0 -0.0
  outer loop
    vertex 9.50237689964633e-17 34.26200728448089 5.901584106471152
    vertex -1.5999999999999999 34.26200728448089 8.750000000000002
    vertex 2.2420751463049657e-16 34.26200728448089 6.500000000000002
  endloop
endfacet
facet normal -0.0 1.0 -0.0
  outer loop
    vertex 2.2420751463049657e-16 34.26200728448089 6.500000000000002
    vertex -1.5999999999999999 34.26200728448089 8.750000000000002
    vertex 1.631902 34.26200728448089 6.500000000000002
  endloop
endfacet
facet normal -0.0 1.0 -0.0
  outer loop
    vertex 1.631902 34.26200728448089 6.500000000000002
    vertex -1.5999999999999999 34.26200728448089 8.750000000000002
    vertex 1.631902 34.26200728448089 8.750000000000002
  endloop
endfacet
facet normal 0.0 -1.0 0.0
  outer loop
    vertex 5.0 0.0 0.0
    vertex -2.5000000000000004 -9.32295206714441e-19 1.9999999999999991
    vertex -2.5000000000000004 -9.32295206714441e-19 -6.322590745363143e-17
  endloop
endfacet
facet normal 0.0 -1.0 0.0
  outer loop
    vertex -2.5000000000000004 -9.32295206714441e-19 1.9999999999999991
    vertex 5.0 0.0 0.0
    vertex -3.2415023255746386e-18 0.0 1.9999999999999998
  endloop
endfacet
facet normal 0.0 -1.0 0.0
  outer loop
    vertex -3.2415023255746386e-18 0.0 1.9999999999999998
    vertex 5.0 0.0 0.0
    vertex 5.0 0.0 6.499999999999999
  endloop
endfacet
facet normal 0.0 -1.0 0.0
  outer loop
    vertex -3.2415023255746386e-18 0.0 1.9999999999999998
    vertex 5.0 0.0 6.499999999999999
    vertex 0.0 0.0 6.499999999999999
  endloop
endfacet
facet normal 0.0 -1.0 0.0
  outer loop
    vertex 3.350000000000001 51.400000000000006 6.5000000000000036
    vertex 1.650000000000002 51.400000000000006 0.0
    vertex 3.350000000000001 51.400000000000006 0.0
  endloop
endfacet
facet normal 0.0 -1.0 0.0
  outer loop
    vertex 1.650000000000002 51.400000000000006 0.0
    vertex 3.350000000000001 51.400000000000006 6.5000000000000036
    vertex 1.650000000000002 51.400000000000006 6.5000000000000036
  endloop
endfacet
facet normal -0.0 1.0 -0.0
  outer loop
    vertex 3.2493820592602354e-16 53.35 -4.239852087087337e-34
    vertex 5.0 53.35 1.2495490926270634
    vertex 5.0 53.35 -0.0004509073729367485
  endloop
endfacet
facet normal -0.0 1.0 -0.0
  outer loop
    vertex 5.0 53.35 1.2495490926270634
    vertex 3.2493820592602354e-16 53.35 -4.239852087087337e-34
    vertex 6.253161289202563e-16 53.35 6.5000000000000036
  endloop
endfacet
facet normal -0.0 1.0 -0.0
  outer loop
    vertex 5.0 53.35 1.2495490926270634
    vertex 6.253161289202563e-16 53.35 6.5000000000000036
    vertex 5.0 53.35 5.250000000000002
  endloop
endfacet
facet normal -0.0 1.0 -0.0
  outer loop
    vertex 5.0 53.35 5.250000000000002
    vertex 6.253161289202563e-16 53.35 6.5000000000000036
    vertex 5.0 53.35 6.500000000000002
  endloop
endfacet
facet normal 1.0 -0.0 -0.0
  outer loop
    vertex 5.0 17.6 0.0
    vertex 5.0 0.0 6.499999999999999
    vertex 5.0 0.0 0.0
  endloop
endfacet
facet normal 1.0 -0.0 -0.0
  outer loop
    vertex 5.0 0.0 6.499999999999999
    vertex 5.0 17.6 0.0
    vertex 5.0 17.599999999999923 1.2495490926270634
  endloop
endfacet
facet normal 1.0 -0.0 -0.0
  outer loop
    vertex 5.0 0.0 6.499999999999999
    vertex 5.0 17.599999999999923 5.250000000000002
    vertex 5.0 17.6 6.500000000000001
  endloop
endfacet
facet normal 1.0 -0.0 -0.0
  outer loop
    vertex 5.0 17.599999999999923 5.250000000000002
    vertex 5.0 0.0 6.499999999999999
    vertex 5.0 17.599999999999923 1.2495490926270634
  endloop
endfacet
facet normal -1.0 0.0 0.0
  outer loop
    vertex 3.3499999999999988 17.199999999999996 6.5000000000000036
    vertex 3.3499999999999988 10.399999999999999 0.0
    vertex 3.3499999999999988 10.399999999999999 6.5000000000000036
  endloop
endfacet
facet normal -1.0 0.0 0.0
  outer loop
    vertex 3.3499999999999988 10.399999999999999 0.0
    vertex 3.3499999999999988 17.199999999999996 6.5000000000000036
    vertex 3.3499999999999988 17.199999999999996 0.0
  endloop
endfacet
facet normal -1.0 -0.0 -0.0
  outer loop
    vertex 3.3499999999999988 8.65 6.500000000000002
    vertex 3.3499999999999988 1.8499999999999983 2.114974861910923e-15
    vertex 3.3499999999999988 1.8499999999999983 6.500000000000002
  endloop
endfacet
facet normal -1.0 -0.0 -0.0
  outer loop
    vertex 3.3499999999999988 1.8499999999999983 2.114974861910923e-15
    vertex 3.3499999999999988 8.65 6.500000000000002
    vertex 3.3499999999999988 8.65 2.114974861910923e-15
  endloop
endfacet
facet normal 0.0 1.0 0.0
  outer loop
    vertex 1.650000000000002 1.8499999999999983 6.500000000000002
    vertex 3.3499999999999988 1.8499999999999983 2.114974861910923e-15
    vertex 1.650000000000002 1.8499999999999983 2.114974861910923e-15
  endloop
endfacet
facet normal 0.0 1.0 0.0
  outer loop
    vertex 3.3499999999999988 1.8499999999999983 2.114974861910923e-15
    vertex 1.650000000000002 1.8499999999999983 6.500000000000002
    vertex 3.3499999999999988 1.8499999999999983 6.500000000000002
  endloop
endfacet
facet normal 1.0 0.0 0.0
  outer loop
    vertex 1.650000000000002 8.65 2.114974861910923e-15
    vertex 1.650000000000002 1.8499999999999983 6.500000000000002
    vertex 1.650000000000002 1.8499999999999983 2.114974861910923e-15
  endloop
endfacet
facet normal 1.0 0.0 0.0
  outer loop
    vertex 1.650000000000002 1.8499999999999983 6.500000000000002
    vertex 1.650000000000002 8.65 2.114974861910923e-15
    vertex 1.650000000000002 8.65 6.500000000000002
  endloop
endfacet
facet normal 0.0 -1.0 0.0
  outer loop
    vertex 3.3499999999999988 8.65 6.500000000000002
    vertex 1.650000000000002 8.65 2.114974861910923e-15
    vertex 3.3499999999999988 8.65 2.114974861910923e-15
  endloop
endfacet
facet normal 0.0 -1.0 0.0
  outer loop
    vertex 1.650000000000002 8.65 2.114974861910923e-15
    vertex 3.3499999999999988 8.65 6.500000000000002
    vertex 1.650000000000002 8.65 6.500000000000002
  endloop
endfacet
facet normal 0.0 1.0 0.0
  outer loop
    vertex 1.6500000000000024 10.399999999999999 6.5000000000000036
    vertex 3.3499999999999988 10.399999999999999 0.0
    vertex 1.6500000000000024 10.399999999999999 0.0
  endloop
endfacet
facet normal 0.0 1.0 0.0
  outer loop
    vertex 3.3499999999999988 10.399999999999999 0.0
    vertex 1.6500000000000024 10.399999999999999 6.5000000000000036
    vertex 3.3499999999999988 10.399999999999999 6.5000000000000036
  endloop
endfacet
facet normal 0.0 -1.0 0.0
  outer loop
    vertex 3.3499999999999988 17.199999999999996 6.5000000000000036
    vertex 1.6500000000000024 17.199999999999996 0.0
    vertex 3.3499999999999988 17.199999999999996 0.0
  endloop
endfacet
facet normal 0.0 -1.0 0.0
  outer loop
    vertex 1.6500000000000024 17.199999999999996 0.0
    vertex 3.3499999999999988 17.199999999999996 6.5000000000000036
    vertex 1.6500000000000024 17.199999999999996 6.5000000000000036
  endloop
endfacet
facet normal 1.0 0.0 0.0
  outer loop
    vertex 1.6500000000000024 17.199999999999996 0.0
    vertex 1.6500000000000024 10.399999999999999 6.5000000000000036
    vertex 1.6500000000000024 10.399999999999999 0.0
  endloop
endfacet
facet normal 1.0 0.0 0.0
  outer loop
    vertex 1.6500000000000024 10.399999999999999 6.5000000000000036
    vertex 1.6500000000000024 17.199999999999996 0.0
    vertex 1.6500000000000024 17.199999999999996 6.5000000000000036
  endloop
endfacet
facet normal -1.0 0.0 0.0
  outer loop
    vertex 3.3499999999999996 34.3 6.500000000000001
    vertex 3.3499999999999996 27.5 0.0
    vertex 3.3499999999999996 27.5 6.500000000000001
  endloop
endfacet
facet normal -1.0 0.0 0.0
  outer loop
    vertex 3.3499999999999996 27.5 0.0
    vertex 3.3499999999999996 34.3 6.500000000000001
    vertex 3.3499999999999996 34.3 0.0
  endloop
endfacet
facet normal 1.0 0.0 0.0
  outer loop
    vertex 1.650000000000002 51.400000000000006 0.0
    vertex 1.650000000000002 44.6 6.5000000000000036
    vertex 1.650000000000002 44.6 0.0
  endloop
endfacet
facet normal 1.0 0.0 0.0
  outer loop
    vertex 1.650000000000002 44.6 6.5000000000000036
    vertex 1.650000000000002 51.400000000000006 0.0
    vertex 1.650000000000002 51.400000000000006 6.5000000000000036
  endloop
endfacet
facet normal -1.0 0.0 0.0
  outer loop
    vertex 3.350000000000001 51.400000000000006 6.5000000000000036
    vertex 3.350000000000001 44.6 0.0
    vertex 3.350000000000001 44.6 6.5000000000000036
  endloop
endfacet
facet normal -1.0 0.0 0.0
  outer loop
    vertex 3.350000000000001 44.6 0.0
    vertex 3.350000000000001 51.400000000000006 6.5000000000000036
    vertex 3.350000000000001 51.400000000000006 0.0
  endloop
endfacet
facet normal 0.0 1.0 0.0
  outer loop
    vertex 1.650000000000002 44.6 6.5000000000000036
    vertex 3.350000000000001 44.6 0.0
    vertex 1.650000000000002 44.6 0.0
  endloop
endfacet
facet normal 0.0 1.0 0.0
  outer loop
    vertex 3.350000000000001 44.6 0.0
    vertex 1.650000000000002 44.6 6.5000000000000036
    vertex 3.350000000000001 44.6 6.5000000000000036
  endloop
endfacet
facet normal 1.0 0.0 0.0
  outer loop
    vertex 1.650000000000002 25.749999999999996 0.0
    vertex 1.650000000000002 18.95 6.500000000000002
    vertex 1.650000000000002 18.95 0.0
  endloop
endfacet
facet normal 1.0 0.0 0.0
  outer loop
    vertex 1.650000000000002 18.95 6.500000000000002
    vertex 1.650000000000002 25.749999999999996 0.0
    vertex 1.650000000000002 25.749999999999996 6.500000000000002
  endloop
endfacet
facet normal -1.0 0.0 0.0
  outer loop
    vertex 3.3499999999999996 25.749999999999996 6.500000000000002
    vertex 3.3499999999999996 18.95 0.0
    vertex 3.3499999999999996 18.95 6.500000000000002
  endloop
endfacet
facet normal -1.0 0.0 0.0
  outer loop
    vertex 3.3499999999999996 18.95 0.0
    vertex 3.3499999999999996 25.749999999999996 6.500000000000002
    vertex 3.3499999999999996 25.749999999999996 0.0
  endloop
endfacet
facet normal 0.0 1.0 0.0
  outer loop
    vertex 1.650000000000002 18.95 6.500000000000002
    vertex 3.3499999999999996 18.95 0.0
    vertex 1.650000000000002 18.95 0.0
  endloop
endfacet
facet normal 0.0 1.0 0.0
  outer loop
    vertex 3.3499999999999996 18.95 0.0
    vertex 1.650000000000002 18.95 6.500000000000002
    vertex 3.3499999999999996 18.95 6.500000000000002
  endloop
endfacet
facet normal 0.0 -1.0 0.0
  outer loop
    vertex 3.3499999999999996 25.749999999999996 6.500000000000002
    vertex 1.650000000000002 25.749999999999996 0.0
    vertex 3.3499999999999996 25.749999999999996 0.0
  endloop
endfacet
facet normal 0.0 -1.0 0.0
  outer loop
    vertex 1.650000000000002 25.749999999999996 0.0
    vertex 3.3499999999999996 25.749999999999996 6.500000000000002
    vertex 1.650000000000002 25.749999999999996 6.500000000000002
  endloop
endfacet
facet normal -1.0 0.0 0.0
  outer loop
    vertex 3.350000000000001 42.85 6.500000000000002
    vertex 3.350000000000001 36.050000000000004 0.0
    vertex 3.350000000000001 36.050000000000004 6.500000000000002
  endloop
endfacet
facet normal -1.0 0.0 0.0
  outer loop
    vertex 3.350000000000001 36.050000000000004 0.0
    vertex 3.350000000000001 42.85 6.500000000000002
    vertex 3.350000000000001 42.85 0.0
  endloop
endfacet
facet normal 0.0 1.0 0.0
  outer loop
    vertex 1.6500000000000026 36.050000000000004 6.500000000000002
    vertex 3.350000000000001 36.050000000000004 0.0
    vertex 1.6500000000000026 36.050000000000004 0.0
  endloop
endfacet
facet normal 0.0 1.0 0.0
  outer loop
    vertex 3.350000000000001 36.050000000000004 0.0
    vertex 1.6500000000000026 36.050000000000004 6.500000000000002
    vertex 3.350000000000001 36.050000000000004 6.500000000000002
  endloop
endfacet
facet normal 1.0 0.0 0.0
  outer loop
    vertex 1.6500000000000026 42.85 0.0
    vertex 1.6500000000000026 36.050000000000004 6.500000000000002
    vertex 1.6500000000000026 36.050000000000004 0.0
  endloop
endfacet
facet normal 1.0 0.0 0.0
  outer loop
    vertex 1.6500000000000026 36.050000000000004 6.500000000000002
    vertex 1.6500000000000026 42.85 0.0
    vertex 1.6500000000000026 42.85 6.500000000000002
  endloop
endfacet
facet normal 0.0 -1.0 0.0
  outer loop
    vertex 3.350000000000001 42.85 6.500000000000002
    vertex 1.6500000000000026 42.85 0.0
    vertex 3.350000000000001 42.85 0.0
  endloop
endfacet
facet normal 0.0 -1.0 0.0
  outer loop
    vertex 1.6500000000000026 42.85 0.0
    vertex 3.350000000000001 42.85 6.500000000000002
    vertex 1.6500000000000026 42.85 6.500000000000002
  endloop
endfacet
facet normal -0.0 1.0 -0.0
  outer loop
    vertex 1.6500000000000024 27.5 6.500000000000001
    vertex 3.3499999999999996 27.5 0.0
    vertex 1.6500000000000024 27.5 0.0
  endloop
endfacet
facet normal -0.0 1.0 -0.0
  outer loop
    vertex 3.3499999999999996 27.5 0.0
    vertex 1.6500000000000024 27.5 6.500000000000001
    vertex 3.3499999999999996 27.5 6.500000000000001
  endloop
endfacet
facet normal -0.0002605579199866806 -1.5169667389948656e-05 -0.9999999659397254
  outer loop
    vertex 1.650000000000002 18.95 0.0
    vertex 1.6500000000000024 17.199999999999996 0.0
    vertex 1.650000000000002 8.65 2.114974861910923e-15
  endloop
endfacet
facet normal -0.0002605579199866806 -1.5169667389948656e-05 -0.9999999659397254
  outer loop
    vertex 1.6500000000000024 17.199999999999996 0.0
    vertex 1.650000000000002 18.95 0.0
    vertex 3.3499999999999996 18.95 0.0
  endloop
endfacet
facet normal -0.0002605579199866806 -1.5169667389948656e-05 -0.9999999659397254
  outer loop
    vertex 1.6500000000000024 17.199999999999996 0.0
    vertex 3.3499999999999996 18.95 0.0
    vertex 3.3499999999999988 17.199999999999996 0.0
  endloop
endfacet
facet normal -0.0002605579199866806 -1.5169667389948656e-05 -0.9999999659397254
  outer loop
    vertex 3.3499999999999988 17.199999999999996 0.0
    vertex 3.3499999999999996 18.95 0.0
    vertex 3.3499999999999988 10.399999999999999 0.0
  endloop
endfacet
facet normal -0.0002605579199866806 -1.5169667389948656e-05 -0.9999999659397254
  outer loop
    vertex 3.3499999999999988 10.399999999999999 0.0
    vertex 3.3499999999999996 18.95 0.0
    vertex 3.3499999999999988 8.65 2.114974861910923e-15
  endloop
endfacet
facet normal -0.0002605579199866806 -1.5169667389948656e-05 -0.9999999659397254
  outer loop
    vertex 3.3499999999999988 8.65 2.114974861910923e-15
    vertex 3.3499999999999996 18.95 0.0
    vertex 3.3499999999999988 1.8499999999999983 2.114974861910923e-15
  endloop
endfacet
facet normal -0.0002605579199866806 -1.5169667389948656e-05 -0.9999999659397254
  outer loop
    vertex 1.6500000000000024 34.3 0.0
    vertex 1.6500000000000026 36.050000000000004 0.0
    vertex 3.3499999999999996 34.3 0.0
  endloop
endfacet
facet normal -0.0002605579199866806 -1.5169667389948656e-05 -0.9999999659397254
  outer loop
    vertex 1.6500000000000026 36.050000000000004 0.0
    vertex 1.6500000000000024 34.3 0.0
    vertex 1.6500000000000026 42.85 0.0
  endloop
endfacet
facet normal -0.0002605579199866806 -1.5169667389948656e-05 -0.9999999659397254
  outer loop
    vertex 3.3499999999999996 34.3 0.0
    vertex 1.6500000000000026 36.050000000000004 0.0
    vertex 3.350000000000001 36.050000000000004 0.0
  endloop
endfacet
facet normal -0.0002605579199866806 -1.5169667389948656e-05 -0.9999999659397254
  outer loop
    vertex 3.3499999999999996 34.3 0.0
    vertex 3.350000000000001 36.050000000000004 0.0
    vertex 3.3499999999999996 27.5 0.0
  endloop
endfacet
facet normal -0.0002605579199866806 -1.5169667389948656e-05 -0.9999999659397254
  outer loop
    vertex 3.3499999999999996 27.5 0.0
    vertex 3.350000000000001 36.050000000000004 0.0
    vertex 3.3499999999999996 25.749999999999996 0.0
  endloop
endfacet
facet normal -0.0002605579199866806 -1.5169667389948656e-05 -0.9999999659397254
  outer loop
    vertex 3.3499999999999996 25.749999999999996 0.0
    vertex 3.350000000000001 36.050000000000004 0.0
    vertex 3.3499999999999996 18.95 0.0
  endloop
endfacet
facet normal -0.0002605579199866806 -1.5169667389948656e-05 -0.9999999659397254
  outer loop
    vertex 5.0 53.35 -0.0004509073729367485
    vertex 1.650000000000002 51.400000000000006 0.0
    vertex 3.2493820592602354e-16 53.35 -4.239852087087337e-34
  endloop
endfacet
facet normal -0.0002605579199866806 -1.5169667389948656e-05 -0.9999999659397254
  outer loop
    vertex 1.650000000000002 51.400000000000006 0.0
    vertex 5.0 53.35 -0.0004509073729367485
    vertex 3.350000000000001 51.400000000000006 0.0
  endloop
endfacet
facet normal -0.0002605579199866806 -1.5169667389948656e-05 -0.9999999659397254
  outer loop
    vertex 3.350000000000001 51.400000000000006 0.0
    vertex 5.0 53.35 -0.0004509073729367485
    vertex 3.350000000000001 44.6 0.0
  endloop
endfacet
facet normal -0.0002605579199866806 -1.5169667389948656e-05 -0.9999999659397254
  outer loop
    vertex 3.350000000000001 44.6 0.0
    vertex 5.0 53.35 -0.0004509073729367485
    vertex 3.350000000000001 42.85 0.0
  endloop
endfacet
facet normal -0.0002605579199866806 -1.5169667389948656e-05 -0.9999999659397254
  outer loop
    vertex 3.350000000000001 42.85 0.0
    vertex 5.0 53.35 -0.0004509073729367485
    vertex 3.350000000000001 36.050000000000004 0.0
  endloop
endfacet
facet normal -0.0002605579199866806 -1.5169667389948656e-05 -0.9999999659397254
  outer loop
    vertex 0.0 12.0 0.0
    vertex -2.5000000000000004 -9.32295206714441e-19 -6.322590745363143e-17
    vertex -2.5000000000000004 12.0 -6.322590745363143e-17
  endloop
endfacet
facet normal -0.0002605579199866806 -1.5169667389948656e-05 -0.9999999659397254
  outer loop
    vertex -2.5000000000000004 -9.32295206714441e-19 -6.322590745363143e-17
    vertex 0.0 12.0 0.0
    vertex 1.650000000000002 1.8499999999999983 2.114974861910923e-15
  endloop
endfacet
facet normal -0.0002605579199866806 -1.5169667389948656e-05 -0.9999999659397254
  outer loop
    vertex -2.5000000000000004 -9.32295206714441e-19 -6.322590745363143e-17
    vertex 1.650000000000002 1.8499999999999983 2.114974861910923e-15
    vertex 5.0 0.0 0.0
  endloop
endfacet
facet normal -0.0002605579199866806 -1.5169667389948656e-05 -0.9999999659397254
  outer loop
    vertex 1.650000000000002 1.8499999999999983 2.114974861910923e-15
    vertex 0.0 12.0 0.0
    vertex 9.50237689964633e-17 27.227626284480888 0.0015841064711511295
  endloop
endfacet
facet normal -0.0002605579199866806 -1.5169667389948656e-05 -0.9999999659397254
  outer loop
    vertex 1.650000000000002 1.8499999999999983 2.114974861910923e-15
    vertex 9.50237689964633e-17 27.227626284480888 0.0015841064711511295
    vertex 3.2493820592602354e-16 53.35 -4.239852087087337e-34
  endloop
endfacet
facet normal -0.0002605579199866806 -1.5169667389948656e-05 -0.9999999659397254
  outer loop
    vertex 1.650000000000002 1.8499999999999983 2.114974861910923e-15
    vertex 3.2493820592602354e-16 53.35 -4.239852087087337e-34
    vertex 1.650000000000002 51.400000000000006 0.0
  endloop
endfacet
facet normal -0.0002605579199866806 -1.5169667389948656e-05 -0.9999999659397254
  outer loop
    vertex 1.650000000000002 1.8499999999999983 2.114974861910923e-15
    vertex 1.650000000000002 51.400000000000006 0.0
    vertex 1.650000000000002 44.6 0.0
  endloop
endfacet
facet normal -0.0002605579199866806 -1.5169667389948656e-05 -0.9999999659397254
  outer loop
    vertex 1.650000000000002 1.8499999999999983 2.114974861910923e-15
    vertex 1.650000000000002 44.6 0.0
    vertex 1.650000000000002 25.749999999999996 0.0
  endloop
endfacet
facet normal -0.0002605579199866806 -1.5169667389948656e-05 -0.9999999659397254
  outer loop
    vertex 1.650000000000002 1.8499999999999983 2.114974861910923e-15
    vertex 1.650000000000002 25.749999999999996 0.0
    vertex 1.650000000000002 18.95 0.0
  endloop
endfacet
facet normal -0.0002605579199866806 -1.5169667389948656e-05 -0.9999999659397254
  outer loop
    vertex 1.650000000000002 1.8499999999999983 2.114974861910923e-15
    vertex 1.650000000000002 18.95 0.0
    vertex 1.650000000000002 8.65 2.114974861910923e-15
  endloop
endfacet
facet normal -0.0002605579199866806 -1.5169667389948656e-05 -0.9999999659397254
  outer loop
    vertex 5.0 0.0 0.0
    vertex 1.650000000000002 1.8499999999999983 2.114974861910923e-15
    vertex 3.3499999999999988 1.8499999999999983 2.114974861910923e-15
  endloop
endfacet
facet normal -0.0002605579199866806 -1.5169667389948656e-05 -0.9999999659397254
  outer loop
    vertex 5.0 0.0 0.0
    vertex 3.3499999999999988 1.8499999999999983 2.114974861910923e-15
    vertex 3.3499999999999996 18.95 0.0
  endloop
endfacet
facet normal -0.0002605579199866806 -1.5169667389948656e-05 -0.9999999659397254
  outer loop
    vertex 5.0 0.0 0.0
    vertex 3.3499999999999996 18.95 0.0
    vertex 3.350000000000001 36.050000000000004 0.0
  endloop
endfacet
facet normal -0.0002605579199866806 -1.5169667389948656e-05 -0.9999999659397254
  outer loop
    vertex 5.0 0.0 0.0
    vertex 3.350000000000001 36.050000000000004 0.0
    vertex 5.0 53.35 -0.0004509073729367485
  endloop
endfacet
facet normal -0.0002605579199866806 -1.5169667389948656e-05 -0.9999999659397254
  outer loop
    vertex 5.0 0.0 0.0
    vertex 5.0 53.35 -0.0004509073729367485
    vertex 5.0 17.6 0.0
  endloop
endfacet
facet normal -0.0002605579199866806 -1.5169667389948656e-05 -0.9999999659397254
  outer loop
    vertex 1.650000000000002 44.6 0.0
    vertex 1.6500000000000026 42.85 0.0
    vertex 1.650000000000002 25.749999999999996 0.0
  endloop
endfacet
facet normal -0.0002605579199866806 -1.5169667389948656e-05 -0.9999999659397254
  outer loop
    vertex 1.6500000000000026 42.85 0.0
    vertex 1.650000000000002 44.6 0.0
    vertex 3.350000000000001 44.6 0.0
  endloop
endfacet
facet normal -0.0002605579199866806 -1.5169667389948656e-05 -0.9999999659397254
  outer loop
    vertex 1.650000000000002 25.749999999999996 0.0
    vertex 1.6500000000000026 42.85 0.0
    vertex 1.6500000000000024 34.3 0.0
  endloop
endfacet
facet normal -0.0002605579199866806 -1.5169667389948656e-05 -0.9999999659397254
  outer loop
    vertex 1.6500000000000026 42.85 0.0
    vertex 3.350000000000001 44.6 0.0
    vertex 3.350000000000001 42.85 0.0
  endloop
endfacet
facet normal -0.0002605579199866806 -1.5169667389948656e-05 -0.9999999659397254
  outer loop
    vertex 1.650000000000002 25.749999999999996 0.0
    vertex 1.6500000000000024 27.5 0.0
    vertex 3.3499999999999996 25.749999999999996 0.0
  endloop
endfacet
facet normal -0.0002605579199866806 -1.5169667389948656e-05 -0.9999999659397254
  outer loop
    vertex 1.6500000000000024 27.5 0.0
    vertex 1.650000000000002 25.749999999999996 0.0
    vertex 1.6500000000000024 34.3 0.0
  endloop
endfacet
facet normal -0.0002605579199866806 -1.5169667389948656e-05 -0.9999999659397254
  outer loop
    vertex 3.3499999999999996 25.749999999999996 0.0
    vertex 1.6500000000000024 27.5 0.0
    vertex 3.3499999999999996 27.5 0.0
  endloop
endfacet
facet normal -0.0002605579199866806 -1.5169667389948656e-05 -0.9999999659397254
  outer loop
    vertex 1.650000000000002 8.65 2.114974861910923e-15
    vertex 1.6500000000000024 10.399999999999999 0.0
    vertex 3.3499999999999988 8.65 2.114974861910923e-15
  endloop
endfacet
facet normal -0.0002605579199866806 -1.5169667389948656e-05 -0.9999999659397254
  outer loop
    vertex 1.6500000000000024 10.399999999999999 0.0
    vertex 1.650000000000002 8.65 2.114974861910923e-15
    vertex 1.6500000000000024 17.199999999999996 0.0
  endloop
endfacet
facet normal -0.0002605579199866806 -1.5169667389948656e-05 -0.9999999659397254
  outer loop
    vertex 3.3499999999999988 8.65 2.114974861910923e-15
    vertex 1.6500000000000024 10.399999999999999 0.0
    vertex 3.3499999999999988 10.399999999999999 0.0
  endloop
endfacet
facet normal -0.0002605579199866806 -1.5169667389948656e-05 -0.9999999659397254
  outer loop
    vertex 3.2493820592602354e-16 53.35 -4.239852087087337e-34
    vertex -1.2920302869878767e-16 44.31805428448089 0.0007495583149194545
    vertex -1.2920302869878767e-16 51.35243528448088 0.0007495583149194545
  endloop
endfacet
facet normal -0.0002605579199866806 -1.5169667389948656e-05 -0.9999999659397254
  outer loop
    vertex -1.2920302869878767e-16 44.31805428448089 0.0007495583149194545
    vertex 3.2493820592602354e-16 53.35 -4.239852087087337e-34
    vertex 9.50237689964633e-17 34.26200728448089 0.0015841064711511295
  endloop
endfacet
facet normal -0.0002605579199866806 -1.5169667389948656e-05 -0.9999999659397254
  outer loop
    vertex 9.50237689964633e-17 34.26200728448089 0.0015841064711511295
    vertex 3.2493820592602354e-16 53.35 -4.239852087087337e-34
    vertex 9.50237689964633e-17 27.227626284480888 0.0015841064711511295
  endloop
endfacet
facet normal 0.0 -1.0 0.0
  outer loop
    vertex -1.5999999999999999 27.227626284480888 8.750000000000002
    vertex -2.6 27.227626284480888 5.901584106471152
    vertex -1.6000000000000003 27.227626284480888 5.901584106471152
  endloop
endfacet
facet normal 0.0 -1.0 0.0
  outer loop
    vertex -2.6 27.227626284480888 5.901584106471152
    vertex -4.7 27.227626284480888 1.5015841064711513
    vertex -2.6 27.227626284480888 1.5015841064711513
  endloop
endfacet
facet normal 0.0 -1.0 0.0
  outer loop
    vertex -4.7 27.227626284480888 1.5015841064711513
    vertex -2.6 27.227626284480888 5.901584106471152
    vertex -4.7 27.227626284480888 8.750000000000002
  endloop
endfacet
facet normal 0.0 -1.0 0.0
  outer loop
    vertex -4.7 27.227626284480888 8.750000000000002
    vertex -2.6 27.227626284480888 5.901584106471152
    vertex -1.5999999999999999 27.227626284480888 8.750000000000002
  endloop
endfacet
facet normal 0.0 0.0 -1.0
  outer loop
    vertex -2.6 34.26200728448089 1.5015841064711513
    vertex -4.7 27.227626284480888 1.5015841064711513
    vertex -4.7 34.26200728448089 1.5015841064711513
  endloop
endfacet
facet normal 0.0 0.0 -1.0
  outer loop
    vertex -4.7 27.227626284480888 1.5015841064711513
    vertex -2.6 34.26200728448089 1.5015841064711513
    vertex -2.6 27.227626284480888 1.5015841064711513
  endloop
endfacet
facet normal -0.0 1.0 -0.0
  outer loop
    vertex -4.7 34.26200728448089 8.750000000000002
    vertex -2.6 34.26200728448089 1.5015841064711513
    vertex -4.7 34.26200728448089 1.5015841064711513
  endloop
endfacet
facet normal -0.0 1.0 -0.0
  outer loop
    vertex -2.6 34.26200728448089 1.5015841064711513
    vertex -4.7 34.26200728448089 8.750000000000002
    vertex -2.6 34.26200728448089 5.901584106471152
  endloop
endfacet
facet normal -0.0 1.0 -0.0
  outer loop
    vertex -2.6 34.26200728448089 5.901584106471152
    vertex -4.7 34.26200728448089 8.750000000000002
    vertex -1.6000000000000003 34.26200728448089 5.901584106471152
  endloop
endfacet
facet normal -0.0 1.0 -0.0
  outer loop
    vertex -1.6000000000000003 34.26200728448089 5.901584106471152
    vertex -4.7 34.26200728448089 8.750000000000002
    vertex -1.5999999999999999 34.26200728448089 8.750000000000002
  endloop
endfacet
facet normal -1.0 8.8870148516044e-18 6.094816348816729e-17
  outer loop
    vertex 6.253161289202563e-16 53.35 6.5000000000000036
    vertex 9.50237689964633e-17 34.26200728448089 5.901584106471152
    vertex 2.2420751463049657e-16 34.26200728448089 6.500000000000002
  endloop
endfacet
facet normal -1.0 8.8870148516044e-18 6.094816348816729e-17
  outer loop
    vertex 9.50237689964633e-17 34.26200728448089 5.901584106471152
    vertex 6.253161289202563e-16 53.35 6.5000000000000036
    vertex 9.50237689964633e-17 34.26200728448089 0.0015841064711511295
  endloop
endfacet
facet normal -1.0 8.8870148516044e-18 6.094816348816729e-17
  outer loop
    vertex 9.50237689964633e-17 34.26200728448089 0.0015841064711511295
    vertex 6.253161289202563e-16 53.35 6.5000000000000036
    vertex 0.0 44.31805428448089 1.842348294212777
  endloop
endfacet
facet normal -1.0 8.8870148516044e-18 6.094816348816729e-17
  outer loop
    vertex 0.0 44.31805428448089 1.842348294212777
    vertex 6.253161289202563e-16 53.35 6.5000000000000036
    vertex 0.0 51.35243528448088 1.842348294212777
  endloop
endfacet
facet normal -1.0 8.8870148516044e-18 6.094816348816729e-17
  outer loop
    vertex 0.0 51.35243528448088 1.842348294212777
    vertex 6.253161289202563e-16 53.35 6.5000000000000036
    vertex -1.2920302869878767e-16 51.35243528448088 0.0007495583149194545
  endloop
endfacet
facet normal -1.0 8.8870148516044e-18 6.094816348816729e-17
  outer loop
    vertex -1.2920302869878767e-16 51.35243528448088 0.0007495583149194545
    vertex 6.253161289202563e-16 53.35 6.5000000000000036
    vertex 3.2493820592602354e-16 53.35 -4.239852087087337e-34
  endloop
endfacet
facet normal -1.0 8.8870148516044e-18 6.094816348816729e-17
  outer loop
    vertex -1.2920302869878767e-16 44.31805428448089 0.0007495583149194545
    vertex 9.50237689964633e-17 34.26200728448089 0.0015841064711511295
    vertex 0.0 44.31805428448089 1.842348294212777
  endloop
endfacet
facet normal 0.0 0.0 -1.0
  outer loop
    vertex -1.6000000000000003 34.26200728448089 5.901584106471152
    vertex -2.6 27.227626284480888 5.901584106471152
    vertex -2.6 34.26200728448089 5.901584106471152
  endloop
endfacet
facet normal 0.0 0.0 -1.0
  outer loop
    vertex -2.6 27.227626284480888 5.901584106471152
    vertex -1.6000000000000003 34.26200728448089 5.901584106471152
    vertex -1.6000000000000003 27.227626284480888 5.901584106471152
  endloop
endfacet
facet normal 0.0 0.0 -1.0
  outer loop
    vertex -1.6000000000000003 27.227626284480888 5.901584106471152
    vertex -1.6000000000000003 34.26200728448089 5.901584106471152
    vertex 9.50237689964633e-17 34.26200728448089 5.901584106471152
  endloop
endfacet
facet normal 0.0 0.0 -1.0
  outer loop
    vertex -1.6000000000000003 27.227626284480888 5.901584106471152
    vertex 9.50237689964633e-17 34.26200728448089 5.901584106471152
    vertex 9.50237689964633e-17 27.227626284480888 5.901584106471152
  endloop
endfacet
facet normal -1.0 -0.0 -0.0
  outer loop
    vertex 9.50237689964633e-17 34.26200728448089 5.901584106471152
    vertex 9.50237689964633e-17 27.227626284480888 0.0015841064711511295
    vertex 9.50237689964633e-17 27.227626284480888 5.901584106471152
  endloop
endfacet
facet normal -1.0 -0.0 -0.0
  outer loop
    vertex 9.50237689964633e-17 27.227626284480888 0.0015841064711511295
    vertex 9.50237689964633e-17 34.26200728448089 5.901584106471152
    vertex 9.50237689964633e-17 34.26200728448089 0.0015841064711511295
  endloop
endfacet
facet normal 1.0 0.0 0.0
  outer loop
    vertex 7.999999999999999 53.35 0.0
    vertex 7.999999999999999 17.6 6.500000000000001
    vertex 7.999999999999999 17.6 0.0
  endloop
endfacet
facet normal 1.0 0.0 0.0
  outer loop
    vertex 7.999999999999999 17.6 6.500000000000001
    vertex 7.999999999999999 53.35 0.0
    vertex 7.999999999999999 53.35 6.500000000000002
  endloop
endfacet
facet normal 1.0 0.0 0.0
  outer loop
    vertex 7.999999999999999 53.35 6.500000000000002
    vertex 7.999999999999999 53.35 0.0
    vertex 7.999999999999999 53.35 1.5995490926270635
  endloop
endfacet
facet normal 1.0 0.0 0.0
  outer loop
    vertex 7.999999999999999 53.35 6.500000000000002
    vertex 7.999999999999999 53.35 1.5995490926270635
    vertex 7.999999999999999 53.35 4.900000000000002
  endloop
endfacet
facet normal 1.3159843571199293e-14 -1.0 3.732268808333153e-19
  outer loop
    vertex 7.999999999999999 17.6 0.0
    vertex 6.411981 17.599999999999923 1.2495490926270632
    vertex 5.0 17.6 0.0
  endloop
endfacet
facet normal 1.3159843571199293e-14 -1.0 3.732268808333153e-19
  outer loop
    vertex 6.411981 17.599999999999923 1.2495490926270632
    vertex 7.999999999999999 17.6 0.0
    vertex 7.999999999999999 17.6 6.500000000000001
  endloop
endfacet
facet normal 1.3159843571199293e-14 -1.0 3.732268808333153e-19
  outer loop
    vertex 6.411981 17.599999999999923 1.2495490926270632
    vertex 7.999999999999999 17.6 6.500000000000001
    vertex 6.411981 17.599999999999923 5.250000000000002
  endloop
endfacet
facet normal 1.3159843571199293e-14 -1.0 3.732268808333153e-19
  outer loop
    vertex 6.411981 17.599999999999923 5.250000000000002
    vertex 7.999999999999999 17.6 6.500000000000001
    vertex 5.0 17.599999999999923 5.250000000000002
  endloop
endfacet
facet normal 1.3159843571199293e-14 -1.0 3.732268808333153e-19
  outer loop
    vertex 5.0 17.599999999999923 5.250000000000002
    vertex 7.999999999999999 17.6 6.500000000000001
    vertex 5.0 17.6 6.500000000000001
  endloop
endfacet
facet normal 1.3159843571199293e-14 -1.0 3.732268808333153e-19
  outer loop
    vertex 5.0 17.599999999999923 1.2495490926270634
    vertex 5.0 17.6 0.0
    vertex 6.411981 17.599999999999923 1.2495490926270632
  endloop
endfacet
facet normal -1.9617925257616176e-32 -3.9440090665005554e-17 1.0
  outer loop
    vertex 7.999999999999999 17.6 6.500000000000001
    vertex 5.0 53.35 6.500000000000002
    vertex 5.0 17.6 6.500000000000001
  endloop
endfacet
facet normal -1.9617925257616176e-32 -3.9440090665005554e-17 1.0
  outer loop
    vertex 5.0 53.35 6.500000000000002
    vertex 7.999999999999999 17.6 6.500000000000001
    vertex 7.999999999999999 53.35 6.500000000000002
  endloop
endfacet
facet normal -0.0 1.0 -0.0
  outer loop
    vertex 5.0 53.35 1.2495490926270634
    vertex 7.999999999999999 53.35 0.0
    vertex 5.0 53.35 -0.0004509073729367485
  endloop
endfacet
facet normal -0.0 1.0 -0.0
  outer loop
    vertex 7.999999999999999 53.35 0.0
    vertex 5.0 53.35 1.2495490926270634
    vertex 6.411981 53.35 1.2495490926270632
  endloop
endfacet
facet normal -0.0 1.0 -0.0
  outer loop
    vertex 6.411981 53.35 1.2495490926270632
    vertex 7.999999999999999 53.35 1.5995490926270635
    vertex 7.999999999999999 53.35 0.0
  endloop
endfacet
facet normal -0.0 1.0 -0.0
  outer loop
    vertex 7.999999999999999 53.35 1.5995490926270635
    vertex 6.411981 53.35 1.2495490926270632
    vertex 6.411981 53.35 1.5995490926270632
  endloop
endfacet
facet normal 7.515122860908096e-05 -6.306396806356442e-06 -0.9999999971562612
  outer loop
    vertex 7.999999999999999 53.35 0.0
    vertex 5.0 17.6 0.0
    vertex 5.0 53.35 -0.0004509073729367485
  endloop
endfacet
facet normal 7.515122860908096e-05 -6.306396806356442e-06 -0.9999999971562612
  outer loop
    vertex 5.0 17.6 0.0
    vertex 7.999999999999999 53.35 0.0
    vertex 7.999999999999999 17.6 0.0
  endloop
endfacet
facet normal 1.0 -0.0 -0.0
  outer loop
    vertex 5.0 17.6 0.0
    vertex 5.0 53.35 1.2495490926270634
    vertex 5.0 17.599999999999923 1.2495490926270634
  endloop
endfacet
facet normal 1.0 -0.0 -0.0
  outer loop
    vertex 5.0 53.35 1.2495490926270634
    vertex 5.0 17.6 0.0
    vertex 5.0 53.35 -0.0004509073729367485
  endloop
endfacet
facet normal -0.0 1.0 -0.0
  outer loop
    vertex 5.0 53.35 6.500000000000002
    vertex 6.411981 53.35 5.250000000000002
    vertex 5.0 53.35 5.250000000000002
  endloop
endfacet
facet normal -0.0 1.0 -0.0
  outer loop
    vertex 6.411981 53.35 5.250000000000002
    vertex 7.999999999999999 53.35 4.900000000000002
    vertex 6.411981 53.35 4.900000000000002
  endloop
endfacet
facet normal -0.0 1.0 -0.0
  outer loop
    vertex 7.999999999999999 53.35 4.900000000000002
    vertex 6.411981 53.35 5.250000000000002
    vertex 7.999999999999999 53.35 6.500000000000002
  endloop
endfacet
facet normal -0.0 1.0 -0.0
  outer loop
    vertex 7.999999999999999 53.35 6.500000000000002
    vertex 6.411981 53.35 5.250000000000002
    vertex 5.0 53.35 6.500000000000002
  endloop
endfacet
facet normal -0.0 1.0 -0.0
  outer loop
    vertex 6.411981 53.35 4.900000000000002
    vertex 7.999999999999999 53.35 1.5995490926270635
    vertex 6.411981 53.35 1.5995490926270632
  endloop
endfacet
facet normal -0.0 1.0 -0.0
  outer loop
    vertex 7.999999999999999 53.35 1.5995490926270635
    vertex 6.411981 53.35 4.900000000000002
    vertex 7.999999999999999 53.35 4.900000000000002
  endloop
endfacet
facet normal -1.0 -0.0 -0.0
  outer loop
    vertex 6.411981 53.35 5.250000000000002
    vertex 6.411981 17.599999999999923 1.2495490926270632
    vertex 6.411981 17.599999999999923 5.250000000000002
  endloop
endfacet
facet normal -1.0 -0.0 -0.0
  outer loop
    vertex 6.411981 17.599999999999923 1.2495490926270632
    vertex 6.411981 53.35 5.250000000000002
    vertex 6.411981 53.35 1.2495490926270632
  endloop
endfacet
facet normal -1.0 -0.0 -0.0
  outer loop
    vertex 6.411981 53.35 1.2495490926270632
    vertex 6.411981 53.35 5.250000000000002
    vertex 6.411981 53.35 4.900000000000002
  endloop
endfacet
facet normal -1.0 -0.0 -0.0
  outer loop
    vertex 6.411981 53.35 1.2495490926270632
    vertex 6.411981 53.35 4.900000000000002
    vertex 6.411981 53.35 1.5995490926270632
  endloop
endfacet
facet normal 1.0 -0.0 -0.0
  outer loop
    vertex 5.0 53.35 1.2495490926270634
    vertex 5.0 17.599999999999923 5.250000000000002
    vertex 5.0 17.599999999999923 1.2495490926270634
  endloop
endfacet
facet normal 1.0 -0.0 -0.0
  outer loop
    vertex 5.0 17.599999999999923 5.250000000000002
    vertex 5.0 53.35 1.2495490926270634
    vertex 5.0 53.35 5.250000000000002
  endloop
endfacet
facet normal 1.0 -0.0 -0.0
  outer loop
    vertex 5.0 53.35 5.250000000000002
    vertex 5.0 17.6 6.500000000000001
    vertex 5.0 17.599999999999923 5.250000000000002
  endloop
endfacet
facet normal 1.0 -0.0 -0.0
  outer loop
    vertex 5.0 17.6 6.500000000000001
    vertex 5.0 53.35 5.250000000000002
    vertex 5.0 53.35 6.500000000000002
  endloop
endfacet
facet normal 0.0 0.0 -1.0
  outer loop
    vertex 6.411981 53.35 5.250000000000002
    vertex 5.0 17.599999999999923 5.250000000000002
    vertex 5.0 53.35 5.250000000000002
  endloop
endfacet
facet normal 0.0 0.0 -1.0
  outer loop
    vertex 5.0 17.599999999999923 5.250000000000002
    vertex 6.411981 53.35 5.250000000000002
    vertex 6.411981 17.599999999999923 5.250000000000002
  endloop
endfacet
facet normal 2.728335868085423e-16 0.0 1.0
  outer loop
    vertex 6.411981 17.599999999999923 1.2495490926270632
    vertex 5.0 53.35 1.2495490926270634
    vertex 5.0 17.599999999999923 1.2495490926270634
  endloop
endfacet
facet normal 2.728335868085423e-16 0.0 1.0
  outer loop
    vertex 5.0 53.35 1.2495490926270634
    vertex 6.411981 17.599999999999923 1.2495490926270632
    vertex 6.411981 53.35 1.2495490926270632
  endloop
endfacet
facet normal 1.0 0.0 0.0
  outer loop
    vertex -2.6 34.26200728448089 1.5015841064711513
    vertex -2.6 27.227626284480888 5.901584106471152
    vertex -2.6 27.227626284480888 1.5015841064711513
  endloop
endfacet
facet normal 1.0 0.0 0.0
  outer loop
    vertex -2.6 27.227626284480888 5.901584106471152
    vertex -2.6 34.26200728448089 1.5015841064711513
    vertex -2.6 34.26200728448089 5.901584106471152
  endloop
endfacet
facet normal 0.0 0.0 1.0
  outer loop
    vertex -1.5999999999999999 27.227626284480888 8.750000000000002
    vertex -4.7 34.26200728448089 8.750000000000002
    vertex -4.7 27.227626284480888 8.750000000000002
  endloop
endfacet
facet normal 0.0 0.0 1.0
  outer loop
    vertex -4.7 34.26200728448089 8.750000000000002
    vertex -1.5999999999999999 27.227626284480888 8.750000000000002
    vertex -1.5999999999999999 34.26200728448089 8.750000000000002
  endloop
endfacet
facet normal 0.0 0.0 1.0
  outer loop
    vertex -1.5999999999999999 34.26200728448089 8.750000000000002
    vertex -1.5999999999999999 27.227626284480888 8.750000000000002
    vertex 1.631902 27.227626284480888 8.750000000000002
  endloop
endfacet
facet normal 0.0 0.0 1.0
  outer loop
    vertex -1.5999999999999999 34.26200728448089 8.750000000000002
    vertex 1.631902 27.227626284480888 8.750000000000002
    vertex 1.631902 34.26200728448089 8.750000000000002
  endloop
endfacet
facet normal 0.9999970031724337 0.0006928933297377408 0.0023480939047747025
  outer loop
    vertex 1.6500000000000024 27.5 6.500000000000001
    vertex 1.631902 27.227626284480888 8.750000000000002
    vertex 1.631902 27.227626284480888 6.500000000000002
  endloop
endfacet
facet normal 0.9999970031724337 0.0006928933297377408 0.0023480939047747025
  outer loop
    vertex 1.631902 27.227626284480888 8.750000000000002
    vertex 1.6500000000000024 27.5 6.500000000000001
    vertex 1.631902 34.26200728448089 8.750000000000002
  endloop
endfacet
facet normal 0.9999970031724337 0.0006928933297377408 0.0023480939047747025
  outer loop
    vertex 1.631902 34.26200728448089 8.750000000000002
    vertex 1.6500000000000024 27.5 6.500000000000001
    vertex 1.631902 34.26200728448089 6.500000000000002
  endloop
endfacet
facet normal -1.0 5.352901767790449e-18 1.1182697970792854e-17
  outer loop
    vertex 2.2420751463049657e-16 27.227626284480888 6.500000000000002
    vertex -3.2415023255746386e-18 0.0 1.9999999999999998
    vertex 0.0 0.0 6.499999999999999
  endloop
endfacet
facet normal -1.0 5.352901767790449e-18 1.1182697970792854e-17
  outer loop
    vertex -3.2415023255746386e-18 0.0 1.9999999999999998
    vertex 2.2420751463049657e-16 27.227626284480888 6.500000000000002
    vertex -3.2415023255746386e-18 12.0 1.9999999999999998
  endloop
endfacet
facet normal -1.0 5.352901767790449e-18 1.1182697970792854e-17
  outer loop
    vertex -3.2415023255746386e-18 12.0 1.9999999999999998
    vertex 2.2420751463049657e-16 27.227626284480888 6.500000000000002
    vertex 0.0 12.0 0.0
  endloop
endfacet
facet normal -1.0 5.352901767790449e-18 1.1182697970792854e-17
  outer loop
    vertex 0.0 12.0 0.0
    vertex 2.2420751463049657e-16 27.227626284480888 6.500000000000002
    vertex 9.50237689964633e-17 27.227626284480888 0.0015841064711511295
  endloop
endfacet
facet normal -1.0 5.352901767790449e-18 1.1182697970792854e-17
  outer loop
    vertex 9.50237689964633e-17 27.227626284480888 0.0015841064711511295
    vertex 2.2420751463049657e-16 27.227626284480888 6.500000000000002
    vertex 9.50237689964633e-17 27.227626284480888 5.901584106471152
  endloop
endfacet
facet normal -1.0 -3.7291808268577536e-19 -2.5290362981452555e-17
  outer loop
    vertex -2.5000000000000004 12.0 1.9999999999999991
    vertex -2.5000000000000004 -9.32295206714441e-19 -6.322590745363143e-17
    vertex -2.5000000000000004 -9.32295206714441e-19 1.9999999999999991
  endloop
endfacet
facet normal -1.0 -3.7291808268577536e-19 -2.5290362981452555e-17
  outer loop
    vertex -2.5000000000000004 -9.32295206714441e-19 -6.322590745363143e-17
    vertex -2.5000000000000004 12.0 1.9999999999999991
    vertex -2.5000000000000004 12.0 -6.322590745363143e-17
  endloop
endfacet
facet normal -2.5290362981452558e-17 0.0 1.0
  outer loop
    vertex -3.2415023255746386e-18 0.0 1.9999999999999998
    vertex -2.5000000000000004 12.0 1.9999999999999991
    vertex -2.5000000000000004 -9.32295206714441e-19 1.9999999999999991
  endloop
endfacet
facet normal -2.5290362981452558e-17 0.0 1.0
  outer loop
    vertex -2.5000000000000004 12.0 1.9999999999999991
    vertex -3.2415023255746386e-18 0.0 1.9999999999999998
    vertex -3.2415023255746386e-18 12.0 1.9999999999999998
  endloop
endfacet
facet normal -3.7291808268577546e-19 1.0 -6.044074161373882e-37
  outer loop
    vertex -2.5000000000000004 12.0 1.9999999999999991
    vertex 0.0 12.0 0.0
    vertex -2.5000000000000004 12.0 -6.322590745363143e-17
  endloop
endfacet
facet normal -3.7291808268577546e-19 1.0 -6.044074161373882e-37
  outer loop
    vertex 0.0 12.0 0.0
    vertex -2.5000000000000004 12.0 1.9999999999999991
    vertex -3.2415023255746386e-18 12.0 1.9999999999999998
  endloop
endfacet
endsolid RedTeamTripleThreat
