solid Plate Plug 1 Dovetail
facet normal 0.8696257864488581 -0.4937114456271045 -9.322089844638066e-15
  outer loop
    vertex 43.041288994710854 3.6190841753992666 0.0035348278166645207
    vertex 42.29982937414705 2.313073526134516 3.003534827816648
    vertex 42.2998293741471 2.313073526134516 0.0035348278166983603
  endloop
endfacet
facet normal 0.8696257864488581 -0.4937114456271045 -9.322089844638066e-15
  outer loop
    vertex 42.29982937414705 2.313073526134516 3.003534827816648
    vertex 43.041288994710854 3.6190841753992666 0.0035348278166645207
    vertex 43.041288994710946 3.619084175399233 3.003534827816659
  endloop
endfacet
facet normal 0.832050294337839 -1.2261172071271574e-14 0.5547001962252364
  outer loop
    vertex 30.268286548659585 10.777956547447573 3.271161119755561e-13
    vertex 29.268286548659553 0.016372047447790136 1.5000000000001097
    vertex 30.268286548659606 0.016372047447756295 1.0111524099132232e-13
  endloop
endfacet
facet normal 0.832050294337839 -1.2261172071271574e-14 0.5547001962252364
  outer loop
    vertex 29.268286548659553 0.016372047447790136 1.5000000000001097
    vertex 30.268286548659585 10.777956547447573 3.271161119755561e-13
    vertex 29.268286548659596 10.777956547447573 1.5000000000003244
  endloop
endfacet
facet normal -0.00029456870626809944 0.0001650417619553786 -0.9999999429952454
  outer loop
    vertex 22.276279100175852 10.779441830176458 0.003534827817130763
    vertex 30.268286548659606 0.016372047447756295 1.0111524099132232e-13
    vertex 22.268287100175698 0.01785733017654751 1.464410523524129e-14
  endloop
endfacet
facet normal -0.00029456870626809944 0.0001650417619553786 -0.9999999429952454
  outer loop
    vertex 30.268286548659606 0.016372047447756295 1.0111524099132232e-13
    vertex 22.276279100175852 10.779441830176458 0.003534827817130763
    vertex 30.268286548659585 10.777956547447573 3.271161119755561e-13
  endloop
endfacet
facet normal 0.7041311647366351 -0.7100699281385107 -2.757932638412135e-14
  outer loop
    vertex 41.36985722928372 1.1087295965430326 3.003534827816659
    vertex 40.2682865486594 0.016372047447750657 0.003534827816686677
    vertex 41.369857229283646 1.1087295965430777 0.003534827816641961
  endloop
endfacet
facet normal 0.7041311647366351 -0.7100699281385107 -2.757932638412135e-14
  outer loop
    vertex 40.2682865486594 0.016372047447750657 0.003534827816686677
    vertex 41.36985722928372 1.1087295965430326 3.003534827816659
    vertex 40.26828654865946 0.016372047447697075 3.00353482781658
  endloop
endfacet
facet normal -1.8959402287350586e-14 -2.4657482678157837e-14 1.0
  outer loop
    vertex 30.518286548659674 0.016372047447759115 3.0035348278169747
    vertex 22.276279100175852 10.779441830176447 3.0035348278171368
    vertex 22.26828710017574 0.01785733017652777 3.0035348278168996
  endloop
endfacet
facet normal -1.8959402287350586e-14 -2.4657482678157837e-14 1.0
  outer loop
    vertex 22.276279100175852 10.779441830176447 3.0035348278171368
    vertex 30.518286548659674 0.016372047447759115 3.0035348278169747
    vertex 30.518286548659674 10.777956547447653 3.003534827817268
  endloop
endfacet
facet normal 9.228981215611546e-15 -2.5789117825007412e-14 1.0
  outer loop
    vertex 35.01828654865955 0.016372047447730916 4.253534827816904
    vertex 29.518286548659606 10.777956547447664 4.253534827817232
    vertex 29.518286548659606 0.016372047447711174 4.253534827816983
  endloop
endfacet
facet normal 9.228981215611546e-15 -2.5789117825007412e-14 1.0
  outer loop
    vertex 29.518286548659606 10.777956547447664 4.253534827817232
    vertex 35.01828654865955 0.016372047447730916 4.253534827816904
    vertex 35.018286548659574 10.77795654744772 4.25353482781721
  endloop
endfacet
facet normal -1.0 -4.511946372076634e-15 -1.6593613542153872e-29
  outer loop
    vertex 38.26828654865949 15.777956547447632 3.0035348278171665
    vertex 38.26828654865951 10.77795654744764 0.0035348278171157153
    vertex 38.26828654865951 10.77795654744763 3.0035348278171217
  endloop
endfacet
facet normal -1.0 -4.511946372076634e-15 -1.6593613542153872e-29
  outer loop
    vertex 38.26828654865951 10.77795654744764 0.0035348278171157153
    vertex 38.26828654865949 15.777956547447632 3.0035348278171665
    vertex 38.26828654865949 15.777956547447644 0.0035348278171608346
  endloop
endfacet
facet normal 0.9317157805329513 -0.36318824912966774 -1.8791370282631723e-14
  outer loop
    vertex 43.041288994710854 3.6190841753992666 0.0035348278166645207
    vertex 43.58075069832822 5.003008306914826 3.0035348278166705
    vertex 43.041288994710946 3.619084175399233 3.003534827816659
  endloop
endfacet
facet normal 0.9317157805329513 -0.36318824912966774 -1.8791370282631723e-14
  outer loop
    vertex 43.58075069832822 5.003008306914826 3.0035348278166705
    vertex 43.041288994710854 3.6190841753992666 0.0035348278166645207
    vertex 43.58075069832822 5.003008306914872 0.0035348278166758007
  endloop
endfacet
facet normal -2.6545216276221913e-14 1.7948211919413285e-14 -1.0
  outer loop
    vertex 41.369857229283646 14.697183498352436 0.0035348278168675583
    vertex 40.2682865486594 0.016372047447750657 0.003534827816686677
    vertex 40.2682865486594 15.777956547447655 0.003534827816969077
  endloop
endfacet
facet normal -2.6545216276221913e-14 1.7948211919413285e-14 -1.0
  outer loop
    vertex 40.2682865486594 0.016372047447750657 0.003534827816686677
    vertex 41.369857229283646 14.697183498352436 0.0035348278168675583
    vertex 41.369857229283646 1.1087295965430777 0.003534827816641961
  endloop
endfacet
facet normal -2.6545216276221913e-14 1.7948211919413285e-14 -1.0
  outer loop
    vertex 41.369857229283646 1.1087295965430777 0.003534827816641961
    vertex 41.369857229283646 14.697183498352436 0.0035348278168675583
    vertex 42.2998293741471 13.492839568760964 0.003534827816890118
  endloop
endfacet
facet normal -2.6545216276221913e-14 1.7948211919413285e-14 -1.0
  outer loop
    vertex 41.369857229283646 1.1087295965430777 0.003534827816641961
    vertex 42.2998293741471 13.492839568760964 0.003534827816890118
    vertex 42.2998293741471 2.313073526134516 0.0035348278166983603
  endloop
endfacet
facet normal -2.6545216276221913e-14 1.7948211919413285e-14 -1.0
  outer loop
    vertex 42.2998293741471 2.313073526134516 0.0035348278166983603
    vertex 42.2998293741471 13.492839568760964 0.003534827816890118
    vertex 43.041288994710875 12.186828919496202 0.0035348278168449987
  endloop
endfacet
facet normal -2.6545216276221913e-14 1.7948211919413285e-14 -1.0
  outer loop
    vertex 42.2998293741471 2.313073526134516 0.0035348278166983603
    vertex 43.041288994710875 12.186828919496202 0.0035348278168449987
    vertex 43.041288994710854 3.6190841753992666 0.0035348278166645207
  endloop
endfacet
facet normal -2.6545216276221913e-14 1.7948211919413285e-14 -1.0
  outer loop
    vertex 43.041288994710854 3.6190841753992666 0.0035348278166645207
    vertex 43.041288994710875 12.186828919496202 0.0035348278168449987
    vertex 43.58075069832822 5.003008306914872 0.0035348278166758007
  endloop
endfacet
facet normal -2.6545216276221913e-14 1.7948211919413285e-14 -1.0
  outer loop
    vertex 43.58075069832822 5.003008306914872 0.0035348278166758007
    vertex 43.041288994710875 12.186828919496202 0.0035348278168449987
    vertex 43.580750698328195 10.802904787980598 0.003534827816799879
  endloop
endfacet
facet normal -2.6545216276221913e-14 1.7948211919413285e-14 -1.0
  outer loop
    vertex 43.58075069832822 5.003008306914872 0.0035348278166758007
    vertex 43.580750698328195 10.802904787980598 0.003534827816799879
    vertex 43.908402955564895 9.366237473161613 0.0035348278167434796
  endloop
endfacet
facet normal -2.6545216276221913e-14 1.7948211919413285e-14 -1.0
  outer loop
    vertex 43.58075069832822 5.003008306914872 0.0035348278166758007
    vertex 43.908402955564895 9.366237473161613 0.0035348278167434796
    vertex 43.90840295556496 6.439675621733793 0.0035348278166870803
  endloop
endfacet
facet normal -2.6545216276221913e-14 1.7948211919413285e-14 -1.0
  outer loop
    vertex 43.90840295556496 6.439675621733793 0.0035348278166870803
    vertex 43.908402955564895 9.366237473161613 0.0035348278167434796
    vertex 44.018286548659255 7.902956547447748 0.0035348278166983603
  endloop
endfacet
facet normal 0.00035302578906459223 -5.861999474191268e-05 -0.9999999359682422
  outer loop
    vertex 40.2682865486594 15.777956547447655 0.003534827816969077
    vertex 38.26828654865951 10.77795654744764 0.0035348278171157153
    vertex 38.26828654865949 15.777956547447644 0.0035348278171608346
  endloop
endfacet
facet normal 0.00035302578906459223 -5.861999474191268e-05 -0.9999999359682422
  outer loop
    vertex 38.26828654865951 10.77795654744764 0.0035348278171157153
    vertex 34.26961254762318 0.016372047447767574 0.003536000000027824
    vertex 34.268286548659404 10.77795654744762 2.4815705046421497e-13
  endloop
endfacet
facet normal 0.00035302578906459223 -5.861999474191268e-05 -0.9999999359682422
  outer loop
    vertex 34.26961254762318 0.016372047447767574 0.003536000000027824
    vertex 38.26828654865951 10.77795654744764 0.0035348278171157153
    vertex 40.2682865486594 0.016372047447750657 0.003534827816686677
  endloop
endfacet
facet normal 0.00035302578906459223 -5.861999474191268e-05 -0.9999999359682422
  outer loop
    vertex 40.2682865486594 0.016372047447750657 0.003534827816686677
    vertex 38.26828654865951 10.77795654744764 0.0035348278171157153
    vertex 40.2682865486594 15.777956547447655 0.003534827816969077
  endloop
endfacet
facet normal 3.880847058232163e-14 -2.254350280765094e-14 1.0
  outer loop
    vertex 40.26828654865946 0.016372047447697075 3.00353482781658
    vertex 34.01828654865946 10.777956547447653 3.003534827817189
    vertex 34.01828654865942 0.016372047447733736 3.003534827816884
  endloop
endfacet
facet normal 3.880847058232163e-14 -2.254350280765094e-14 1.0
  outer loop
    vertex 34.01828654865946 10.777956547447653 3.003534827817189
    vertex 40.26828654865946 0.016372047447697075 3.00353482781658
    vertex 38.26828654865951 10.77795654744763 3.0035348278171217
  endloop
endfacet
facet normal 3.880847058232163e-14 -2.254350280765094e-14 1.0
  outer loop
    vertex 38.26828654865951 10.77795654744763 3.0035348278171217
    vertex 40.26828654865951 15.777956547447644 3.003534827816896
    vertex 38.26828654865949 15.777956547447632 3.0035348278171665
  endloop
endfacet
facet normal 3.880847058232163e-14 -2.254350280765094e-14 1.0
  outer loop
    vertex 40.26828654865951 15.777956547447644 3.003534827816896
    vertex 38.26828654865951 10.77795654744763 3.0035348278171217
    vertex 40.26828654865946 0.016372047447697075 3.00353482781658
  endloop
endfacet
facet normal 3.880847058232163e-14 -2.254350280765094e-14 1.0
  outer loop
    vertex 40.26828654865951 15.777956547447644 3.003534827816896
    vertex 40.26828654865946 0.016372047447697075 3.00353482781658
    vertex 41.36985722928372 1.1087295965430326 3.003534827816659
  endloop
endfacet
facet normal 3.880847058232163e-14 -2.254350280765094e-14 1.0
  outer loop
    vertex 40.26828654865951 15.777956547447644 3.003534827816896
    vertex 41.36985722928372 1.1087295965430326 3.003534827816659
    vertex 41.36985722928374 14.697183498352345 3.0035348278169183
  endloop
endfacet
facet normal 3.880847058232163e-14 -2.254350280765094e-14 1.0
  outer loop
    vertex 41.36985722928374 14.697183498352345 3.0035348278169183
    vertex 41.36985722928372 1.1087295965430326 3.003534827816659
    vertex 42.29982937414705 2.313073526134516 3.003534827816648
  endloop
endfacet
facet normal 3.880847058232163e-14 -2.254350280765094e-14 1.0
  outer loop
    vertex 41.36985722928374 14.697183498352345 3.0035348278169183
    vertex 42.29982937414705 2.313073526134516 3.003534827816648
    vertex 42.2998293741471 13.49283956876094 3.0035348278168397
  endloop
endfacet
facet normal 3.880847058232163e-14 -2.254350280765094e-14 1.0
  outer loop
    vertex 42.2998293741471 13.49283956876094 3.0035348278168397
    vertex 42.29982937414705 2.313073526134516 3.003534827816648
    vertex 43.041288994710946 3.619084175399233 3.003534827816659
  endloop
endfacet
facet normal 3.880847058232163e-14 -2.254350280765094e-14 1.0
  outer loop
    vertex 42.2998293741471 13.49283956876094 3.0035348278168397
    vertex 43.041288994710946 3.619084175399233 3.003534827816659
    vertex 43.041288994710875 12.186828919496111 3.0035348278168055
  endloop
endfacet
facet normal 3.880847058232163e-14 -2.254350280765094e-14 1.0
  outer loop
    vertex 43.041288994710875 12.186828919496111 3.0035348278168055
    vertex 43.041288994710946 3.619084175399233 3.003534827816659
    vertex 43.580750698328195 10.802904787980518 3.0035348278167833
  endloop
endfacet
facet normal 3.880847058232163e-14 -2.254350280765094e-14 1.0
  outer loop
    vertex 43.580750698328195 10.802904787980518 3.0035348278167833
    vertex 43.041288994710946 3.619084175399233 3.003534827816659
    vertex 43.58075069832822 5.003008306914826 3.0035348278166705
  endloop
endfacet
facet normal 3.880847058232163e-14 -2.254350280765094e-14 1.0
  outer loop
    vertex 43.580750698328195 10.802904787980518 3.0035348278167833
    vertex 43.58075069832822 5.003008306914826 3.0035348278166705
    vertex 43.90840295556492 9.366237473161592 3.003534827816828
  endloop
endfacet
facet normal 3.880847058232163e-14 -2.254350280765094e-14 1.0
  outer loop
    vertex 43.90840295556492 9.366237473161592 3.003534827816828
    vertex 43.58075069832822 5.003008306914826 3.0035348278166705
    vertex 43.90840295556499 6.439675621733781 3.003534827816738
  endloop
endfacet
facet normal 3.880847058232163e-14 -2.254350280765094e-14 1.0
  outer loop
    vertex 43.90840295556492 9.366237473161592 3.003534827816828
    vertex 43.90840295556499 6.439675621733781 3.003534827816738
    vertex 44.0182865486593 7.902956547447714 3.0035348278167153
  endloop
endfacet
facet normal -0.8319182726474862 4.008004574081026e-05 0.5548981762709377
  outer loop
    vertex 35.26828654865954 10.777956547447676 1.5000000000002904
    vertex 34.26961254762318 0.016372047447767574 0.003536000000027824
    vertex 35.268286548659496 0.016372047447767574 1.5000000000000533
  endloop
endfacet
facet normal -0.8319182726474862 4.008004574081026e-05 0.5548981762709377
  outer loop
    vertex 34.26961254762318 0.016372047447767574 0.003536000000027824
    vertex 35.26828654865954 10.777956547447676 1.5000000000002904
    vertex 34.268286548659404 10.77795654744762 2.4815705046421497e-13
  endloop
endfacet
facet normal 0.9971923159089627 -0.07488314291026743 -1.1811741236207473e-14
  outer loop
    vertex 43.90840295556496 6.439675621733793 0.0035348278166870803
    vertex 44.0182865486593 7.902956547447714 3.0035348278167153
    vertex 43.90840295556499 6.439675621733781 3.003534827816738
  endloop
endfacet
facet normal 0.9971923159089627 -0.07488314291026743 -1.1811741236207473e-14
  outer loop
    vertex 44.0182865486593 7.902956547447714 3.0035348278167153
    vertex 43.90840295556496 6.439675621733793 0.0035348278166870803
    vertex 44.018286548659255 7.902956547447748 0.0035348278166983603
  endloop
endfacet
facet normal 0.9971923159089592 0.07488314291031704 -1.0545660966163085e-14
  outer loop
    vertex 44.018286548659255 7.902956547447748 0.0035348278166983603
    vertex 43.90840295556492 9.366237473161592 3.003534827816828
    vertex 44.0182865486593 7.902956547447714 3.0035348278167153
  endloop
endfacet
facet normal 0.9971923159089592 0.07488314291031704 -1.0545660966163085e-14
  outer loop
    vertex 43.90840295556492 9.366237473161592 3.003534827816828
    vertex 44.018286548659255 7.902956547447748 0.0035348278166983603
    vertex 43.908402955564895 9.366237473161613 0.0035348278167434796
  endloop
endfacet
facet normal 0.8696257864488811 0.4937114456270639 9.279246048334061e-15
  outer loop
    vertex 43.041288994710875 12.186828919496202 0.0035348278168449987
    vertex 42.2998293741471 13.49283956876094 3.0035348278168397
    vertex 43.041288994710875 12.186828919496111 3.0035348278168055
  endloop
endfacet
facet normal 0.8696257864488811 0.4937114456270639 9.279246048334061e-15
  outer loop
    vertex 42.2998293741471 13.49283956876094 3.0035348278168397
    vertex 43.041288994710875 12.186828919496202 0.0035348278168449987
    vertex 42.2998293741471 13.492839568760964 0.003534827816890118
  endloop
endfacet
facet normal -8.203511694279502e-15 2.18416766854514e-14 -1.0
  outer loop
    vertex 29.268286548659596 10.777956547447573 1.5000000000003244
    vertex 35.268286548659496 0.016372047447767574 1.5000000000000533
    vertex 29.268286548659553 0.016372047447790136 1.5000000000001097
  endloop
endfacet
facet normal -8.203511694279502e-15 2.18416766854514e-14 -1.0
  outer loop
    vertex 35.268286548659496 0.016372047447767574 1.5000000000000533
    vertex 29.268286548659596 10.777956547447573 1.5000000000003244
    vertex 35.26828654865954 10.777956547447676 1.5000000000002904
  endloop
endfacet
facet normal 0.9317157805329513 0.36318824912966774 1.0239578567481329e-14
  outer loop
    vertex 43.580750698328195 10.802904787980598 0.003534827816799879
    vertex 43.041288994710875 12.186828919496111 3.0035348278168055
    vertex 43.580750698328195 10.802904787980518 3.0035348278167833
  endloop
endfacet
facet normal 0.9317157805329513 0.36318824912966774 1.0239578567481329e-14
  outer loop
    vertex 43.041288994710875 12.186828919496111 3.0035348278168055
    vertex 43.580750698328195 10.802904787980598 0.003534827816799879
    vertex 43.041288994710875 12.186828919496202 0.0035348278168449987
  endloop
endfacet
facet normal 3.36202167874531e-17 -1.0 -8.913725118873903e-15
  outer loop
    vertex 40.26828654865946 0.016372047447697075 3.00353482781658
    vertex 34.26961254762318 0.016372047447767574 0.003536000000027824
    vertex 40.2682865486594 0.016372047447750657 0.003534827816686677
  endloop
endfacet
facet normal 3.36202167874531e-17 -1.0 -8.913725118873903e-15
  outer loop
    vertex 34.26961254762318 0.016372047447767574 0.003536000000027824
    vertex 40.26828654865946 0.016372047447697075 3.00353482781658
    vertex 35.268286548659496 0.016372047447767574 1.5000000000000533
  endloop
endfacet
facet normal 3.36202167874531e-17 -1.0 -8.913725118873903e-15
  outer loop
    vertex 35.268286548659496 0.016372047447767574 1.5000000000000533
    vertex 40.26828654865946 0.016372047447697075 3.00353482781658
    vertex 29.268286548659553 0.016372047447790136 1.5000000000001097
  endloop
endfacet
facet normal 3.36202167874531e-17 -1.0 -8.913725118873903e-15
  outer loop
    vertex 30.268286548659606 0.016372047447756295 1.0111524099132232e-13
    vertex 22.26828710017574 0.01785733017652777 3.0035348278168996
    vertex 22.268287100175698 0.01785733017654751 1.464410523524129e-14
  endloop
endfacet
facet normal 3.36202167874531e-17 -1.0 -8.913725118873903e-15
  outer loop
    vertex 22.26828710017574 0.01785733017652777 3.0035348278168996
    vertex 30.268286548659606 0.016372047447756295 1.0111524099132232e-13
    vertex 29.268286548659553 0.016372047447790136 1.5000000000001097
  endloop
endfacet
facet normal 3.36202167874531e-17 -1.0 -8.913725118873903e-15
  outer loop
    vertex 22.26828710017574 0.01785733017652777 3.0035348278168996
    vertex 29.268286548659553 0.016372047447790136 1.5000000000001097
    vertex 40.26828654865946 0.016372047447697075 3.00353482781658
  endloop
endfacet
facet normal 3.36202167874531e-17 -1.0 -8.913725118873903e-15
  outer loop
    vertex 22.26828710017574 0.01785733017652777 3.0035348278168996
    vertex 40.26828654865946 0.016372047447697075 3.00353482781658
    vertex 34.01828654865942 0.016372047447733736 3.003534827816884
  endloop
endfacet
facet normal 3.36202167874531e-17 -1.0 -8.913725118873903e-15
  outer loop
    vertex 22.26828710017574 0.01785733017652777 3.0035348278168996
    vertex 34.01828654865942 0.016372047447733736 3.003534827816884
    vertex 30.518286548659674 0.016372047447759115 3.0035348278169747
  endloop
endfacet
facet normal 3.36202167874531e-17 -1.0 -8.913725118873903e-15
  outer loop
    vertex 30.518286548659674 0.016372047447759115 3.0035348278169747
    vertex 34.01828654865942 0.016372047447733736 3.003534827816884
    vertex 35.01828654865955 0.016372047447730916 4.253534827816904
  endloop
endfacet
facet normal 3.36202167874531e-17 -1.0 -8.913725118873903e-15
  outer loop
    vertex 30.518286548659674 0.016372047447759115 3.0035348278169747
    vertex 35.01828654865955 0.016372047447730916 4.253534827816904
    vertex 29.518286548659606 0.016372047447711174 4.253534827816983
  endloop
endfacet
facet normal 0.9749658348445427 0.2223547186049441 1.0053948482432405e-16
  outer loop
    vertex 43.908402955564895 9.366237473161613 0.0035348278167434796
    vertex 43.580750698328195 10.802904787980518 3.0035348278167833
    vertex 43.90840295556492 9.366237473161592 3.003534827816828
  endloop
endfacet
facet normal 0.9749658348445427 0.2223547186049441 1.0053948482432405e-16
  outer loop
    vertex 43.580750698328195 10.802904787980518 3.0035348278167833
    vertex 43.908402955564895 9.366237473161613 0.0035348278167434796
    vertex 43.580750698328195 10.802904787980598 0.003534827816799879
  endloop
endfacet
facet normal 0.7914939440899504 -0.6111770091135091 -7.556046893008376e-15
  outer loop
    vertex 41.369857229283646 1.1087295965430777 0.003534827816641961
    vertex 42.29982937414705 2.313073526134516 3.003534827816648
    vertex 41.36985722928372 1.1087295965430326 3.003534827816659
  endloop
endfacet
facet normal 0.7914939440899504 -0.6111770091135091 -7.556046893008376e-15
  outer loop
    vertex 42.29982937414705 2.313073526134516 3.003534827816648
    vertex 41.369857229283646 1.1087295965430777 0.003534827816641961
    vertex 42.2998293741471 2.313073526134516 0.0035348278166983603
  endloop
endfacet
facet normal 0.7914939440899414 0.6111770091135211 -4.2200021454587424e-16
  outer loop
    vertex 42.2998293741471 13.492839568760964 0.003534827816890118
    vertex 41.36985722928374 14.697183498352345 3.0035348278169183
    vertex 42.2998293741471 13.49283956876094 3.0035348278168397
  endloop
endfacet
facet normal 0.7914939440899414 0.6111770091135211 -4.2200021454587424e-16
  outer loop
    vertex 41.36985722928374 14.697183498352345 3.0035348278169183
    vertex 42.2998293741471 13.492839568760964 0.003534827816890118
    vertex 41.369857229283646 14.697183498352436 0.0035348278168675583
  endloop
endfacet
facet normal 0.9749658348445355 -0.22235471860497572 -5.757135608677467e-15
  outer loop
    vertex 43.58075069832822 5.003008306914872 0.0035348278166758007
    vertex 43.90840295556499 6.439675621733781 3.003534827816738
    vertex 43.58075069832822 5.003008306914826 3.0035348278166705
  endloop
endfacet
facet normal 0.9749658348445355 -0.22235471860497572 -5.757135608677467e-15
  outer loop
    vertex 43.90840295556499 6.439675621733781 3.003534827816738
    vertex 43.58075069832822 5.003008306914872 0.0035348278166758007
    vertex 43.90840295556496 6.439675621733793 0.0035348278166870803
  endloop
endfacet
facet normal -0.7808688094430072 1.5774881063415506e-14 -0.6246950475544535
  outer loop
    vertex 29.518286548659606 10.777956547447664 4.253534827817232
    vertex 30.518286548659674 0.016372047447759115 3.0035348278169747
    vertex 29.518286548659606 0.016372047447711174 4.253534827816983
  endloop
endfacet
facet normal -0.7808688094430072 1.5774881063415506e-14 -0.6246950475544535
  outer loop
    vertex 30.518286548659674 0.016372047447759115 3.0035348278169747
    vertex 29.518286548659606 10.777956547447664 4.253534827817232
    vertex 30.518286548659674 10.777956547447653 3.003534827817268
  endloop
endfacet
facet normal 0.7808688094429982 1.5289336190854278e-14 -0.6246950475544647
  outer loop
    vertex 34.01828654865942 0.016372047447733736 3.003534827816884
    vertex 35.018286548659574 10.77795654744772 4.25353482781721
    vertex 35.01828654865955 0.016372047447730916 4.253534827816904
  endloop
endfacet
facet normal 0.7808688094429982 1.5289336190854278e-14 -0.6246950475544647
  outer loop
    vertex 35.018286548659574 10.77795654744772 4.25353482781721
    vertex 34.01828654865942 0.016372047447733736 3.003534827816884
    vertex 34.01828654865946 10.777956547447653 3.003534827817189
  endloop
endfacet
facet normal -0.999999724241864 0.0007426413644082974 7.52382880782164e-15
  outer loop
    vertex 22.276279100175852 10.779441830176447 3.0035348278171368
    vertex 22.268287100175698 0.01785733017654751 1.464410523524129e-14
    vertex 22.26828710017574 0.01785733017652777 3.0035348278168996
  endloop
endfacet
facet normal -0.999999724241864 0.0007426413644082974 7.52382880782164e-15
  outer loop
    vertex 22.268287100175698 0.01785733017654751 1.464410523524129e-14
    vertex 22.276279100175852 10.779441830176447 3.0035348278171368
    vertex 22.276279100175852 10.779441830176458 0.003534827817130763
  endloop
endfacet
facet normal 0.7914939440899328 0.6111770091135321 -0.0
  outer loop
    vertex 17.494393156757145 14.679198224570902 -5.3631267322912475e-24
    vertex 18.4243653016206 13.474854294979432 10.093710000000002
    vertex 18.4243653016206 13.474854294979432 -5.3631267322912475e-24
  endloop
endfacet
facet normal 0.7914939440899328 0.6111770091135321 -0.0
  outer loop
    vertex 18.4243653016206 13.474854294979432 10.093710000000002
    vertex 17.494393156757145 14.679198224570902 -5.3631267322912475e-24
    vertex 17.494393156757145 14.679198224570902 10.093710000000002
  endloop
endfacet
facet normal 0.9317157805329571 -0.3631882491296529 2.0147409323275586e-16
  outer loop
    vertex 19.705286625801737 4.985023033133377 -5.3631267322912475e-24
    vertex 19.16582492218445 3.601098901617797 10.093710000000002
    vertex 19.16582492218445 3.6010989016177857 -5.3631267322912475e-24
  endloop
endfacet
facet normal 0.9317157805329571 -0.3631882491296529 2.0147409323275586e-16
  outer loop
    vertex 19.16582492218445 3.601098901617797 10.093710000000002
    vertex 19.705286625801737 4.985023033133377 -5.3631267322912475e-24
    vertex 19.705286625801737 4.985023033133377 10.093710000000002
  endloop
endfacet
facet normal 0.9749658348445359 -0.22235471860497444 -0.0
  outer loop
    vertex 20.032938883038486 6.421690347952286 -5.3631267322912475e-24
    vertex 19.705286625801737 4.985023033133377 10.093710000000002
    vertex 19.705286625801737 4.985023033133377 -5.3631267322912475e-24
  endloop
endfacet
facet normal 0.9749658348445359 -0.22235471860497444 -0.0
  outer loop
    vertex 19.705286625801737 4.985023033133377 10.093710000000002
    vertex 20.032938883038486 6.421690347952286 -5.3631267322912475e-24
    vertex 20.032938883038486 6.421690347952286 10.093710000000002
  endloop
endfacet
facet normal 0.9971923159089556 0.07488314291036235 -0.0
  outer loop
    vertex 20.032938883038486 9.348252199380136 -5.3631267322912475e-24
    vertex 20.142822476132928 7.884971273666217 10.093710000000002
    vertex 20.142822476132928 7.884971273666217 -5.3631267322912475e-24
  endloop
endfacet
facet normal 0.9971923159089556 0.07488314291036235 -0.0
  outer loop
    vertex 20.142822476132928 7.884971273666217 10.093710000000002
    vertex 20.032938883038486 9.348252199380136 -5.3631267322912475e-24
    vertex 20.032938883038486 9.348252199380136 10.093710000000002
  endloop
endfacet
facet normal 0.869625786448853 0.49371144562711317 -0.0
  outer loop
    vertex 18.4243653016206 13.474854294979432 -5.3631267322912475e-24
    vertex 19.16582492218446 12.168843645714665 10.093710000000002
    vertex 19.16582492218446 12.168843645714665 -5.3631267322912475e-24
  endloop
endfacet
facet normal 0.869625786448853 0.49371144562711317 -0.0
  outer loop
    vertex 19.16582492218446 12.168843645714665 10.093710000000002
    vertex 18.4243653016206 13.474854294979432 -5.3631267322912475e-24
    vertex 18.4243653016206 13.474854294979432 10.093710000000002
  endloop
endfacet
facet normal 0.7914939440899369 -0.6111770091135267 -0.0
  outer loop
    vertex 18.4243653016206 2.2950882523530187 -5.3631267322912475e-24
    vertex 17.494393156757145 1.0907443227615323 10.093710000000002
    vertex 17.494393156757145 1.0907443227615323 -5.3631267322912475e-24
  endloop
endfacet
facet normal 0.7914939440899369 -0.6111770091135267 -0.0
  outer loop
    vertex 17.494393156757145 1.0907443227615323 10.093710000000002
    vertex 18.4243653016206 2.2950882523530187 -5.3631267322912475e-24
    vertex 18.4243653016206 2.2950882523530187 10.093710000000002
  endloop
endfacet
facet normal -1.0 -2.1659834609636665e-30 2.8199664825478982e-15
  outer loop
    vertex 14.392822476132864 5.009971273666242 10.093710000000009
    vertex 14.392822476132869 0.00997127366625565 1.3747336602421e-14
    vertex 14.392822476132864 0.009971273666248236 10.093710000000005
  endloop
endfacet
facet normal -1.0 -2.1659834609636665e-30 2.8199664825478982e-15
  outer loop
    vertex 14.392822476132869 0.00997127366625565 1.3747336602421e-14
    vertex 14.392822476132864 5.009971273666242 10.093710000000009
    vertex 14.392822476132869 5.009971273666233 1.9387269567516796e-14
  endloop
endfacet
facet normal 0.9749658348445371 0.22235471860496947 -0.0
  outer loop
    vertex 19.705286625801737 10.78491951419908 -5.3631267322912475e-24
    vertex 20.032938883038486 9.348252199380136 10.093710000000002
    vertex 20.032938883038486 9.348252199380136 -5.3631267322912475e-24
  endloop
endfacet
facet normal 0.9749658348445371 0.22235471860496947 -0.0
  outer loop
    vertex 20.032938883038486 9.348252199380136 10.093710000000002
    vertex 19.705286625801737 10.78491951419908 -5.3631267322912475e-24
    vertex 19.705286625801737 10.78491951419908 10.093710000000002
  endloop
endfacet
facet normal 0.7003362857837664 -0.7138130615326387 0.0
  outer loop
    vertex 17.494393156757145 1.0907443227615323 10.093710000000002
    vertex 16.392822476132913 0.009971273666248236 -5.3631267322912475e-24
    vertex 17.494393156757145 1.0907443227615323 -5.3631267322912475e-24
  endloop
endfacet
facet normal 0.7003362857837664 -0.7138130615326387 0.0
  outer loop
    vertex 16.392822476132913 0.009971273666248236 -5.3631267322912475e-24
    vertex 17.494393156757145 1.0907443227615323 10.093710000000002
    vertex 16.392822476132913 0.009971273666248236 10.093710000000002
  endloop
endfacet
facet normal 0.9971923159089556 -0.07488314291036177 -0.0
  outer loop
    vertex 20.142822476132928 7.884971273666217 -5.3631267322912475e-24
    vertex 20.032938883038486 6.421690347952286 10.093710000000002
    vertex 20.032938883038486 6.421690347952286 -5.3631267322912475e-24
  endloop
endfacet
facet normal 0.9971923159089556 -0.07488314291036177 -0.0
  outer loop
    vertex 20.032938883038486 6.421690347952286 10.093710000000002
    vertex 20.142822476132928 7.884971273666217 -5.3631267322912475e-24
    vertex 20.142822476132928 7.884971273666217 10.093710000000002
  endloop
endfacet
facet normal 0.8696257864488572 -0.49371144562710584 2.7659187268305e-16
  outer loop
    vertex 19.16582492218445 3.6010989016177857 -5.3631267322912475e-24
    vertex 18.4243653016206 2.2950882523530187 10.093710000000002
    vertex 18.4243653016206 2.2950882523530187 -5.3631267322912475e-24
  endloop
endfacet
facet normal 0.8696257864488572 -0.49371144562710584 2.7659187268305e-16
  outer loop
    vertex 18.4243653016206 2.2950882523530187 10.093710000000002
    vertex 19.16582492218445 3.6010989016177857 -5.3631267322912475e-24
    vertex 19.16582492218445 3.601098901617797 10.093710000000002
  endloop
endfacet
facet normal 0.9317157805329597 0.36318824912964626 -0.0
  outer loop
    vertex 19.16582492218446 12.168843645714665 -5.3631267322912475e-24
    vertex 19.705286625801737 10.78491951419908 10.093710000000002
    vertex 19.705286625801737 10.78491951419908 -5.3631267322912475e-24
  endloop
endfacet
facet normal 0.9317157805329597 0.36318824912964626 -0.0
  outer loop
    vertex 19.705286625801737 10.78491951419908 10.093710000000002
    vertex 19.16582492218446 12.168843645714665 -5.3631267322912475e-24
    vertex 19.16582492218446 12.168843645714665 10.093710000000002
  endloop
endfacet
facet normal 1.107764281636761e-16 -1.0 4.780368489204133e-16
  outer loop
    vertex 14.392822476132864 5.009971273666242 10.093710000000009
    vertex 0.41111747613282346 5.009971273666233 5.257699240782217e-14
    vertex 14.392822476132869 5.009971273666233 1.9387269567516796e-14
  endloop
endfacet
facet normal 1.107764281636761e-16 -1.0 4.780368489204133e-16
  outer loop
    vertex 0.41111747613282346 5.009971273666233 5.257699240782217e-14
    vertex 14.392822476132864 5.009971273666242 10.093710000000009
    vertex 11.39282247613297 5.00997127366623 8.593709999999984
  endloop
endfacet
facet normal 1.107764281636761e-16 -1.0 4.780368489204133e-16
  outer loop
    vertex 11.39282247613297 5.00997127366623 8.593709999999984
    vertex 14.392822476132864 5.009971273666242 10.093710000000009
    vertex 10.39282247613282 5.009971273666242 10.093710000000018
  endloop
endfacet
facet normal 1.107764281636761e-16 -1.0 4.780368489204133e-16
  outer loop
    vertex 0.41111747613282346 5.009971273666233 5.257699240782217e-14
    vertex 5.392822476132953 5.00997127366622 8.593710000000007
    vertex 0.4111174761328446 5.009971273666234 10.093710000000018
  endloop
endfacet
facet normal 1.107764281636761e-16 -1.0 4.780368489204133e-16
  outer loop
    vertex 5.392822476132953 5.00997127366622 8.593710000000007
    vertex 0.41111747613282346 5.009971273666233 5.257699240782217e-14
    vertex 11.39282247613297 5.00997127366623 8.593709999999984
  endloop
endfacet
facet normal 1.107764281636761e-16 -1.0 4.780368489204133e-16
  outer loop
    vertex 0.4111174761328446 5.009971273666234 10.093710000000018
    vertex 5.392822476132953 5.00997127366622 8.593710000000007
    vertex 6.392822476132974 5.009971273666242 10.093709999999989
  endloop
endfacet
facet normal -7.019646745382887e-17 -1.0 -1.4101103458608363e-16
  outer loop
    vertex 16.392822476132913 0.009971273666248236 10.093710000000002
    vertex 14.392822476132869 0.00997127366625565 1.3747336602421e-14
    vertex 16.392822476132913 0.009971273666248236 -5.3631267322912475e-24
  endloop
endfacet
facet normal -7.019646745382887e-17 -1.0 -1.4101103458608363e-16
  outer loop
    vertex 14.392822476132869 0.00997127366625565 1.3747336602421e-14
    vertex 16.392822476132913 0.009971273666248236 10.093710000000002
    vertex 14.392822476132864 0.009971273666248236 10.093710000000005
  endloop
endfacet
facet normal 0.7002658293925945 0.7138821808348403 8.46132172332763e-06
  outer loop
    vertex 16.392825395257788 15.759015806417377 8.593688173941892
    vertex 17.494393156757145 14.679198224570902 -5.3631267322912475e-24
    vertex 16.392822476132913 15.759971273666205 -5.3631267322912475e-24
  endloop
endfacet
facet normal 0.7002658293925945 0.7138821808348403 8.46132172332763e-06
  outer loop
    vertex 17.494393156757145 14.679198224570902 -5.3631267322912475e-24
    vertex 16.392825395257788 15.759015806417377 8.593688173941892
    vertex 17.494393156757145 14.679198224570902 10.093710000000002
  endloop
endfacet
facet normal 0.7002658293925945 0.7138821808348403 8.46132172332763e-06
  outer loop
    vertex 17.494393156757145 14.679198224570902 10.093710000000002
    vertex 16.392825395257788 15.759015806417377 8.593688173941892
    vertex 16.39282417781471 15.759971272803778 9.724849000394645
  endloop
endfacet
facet normal 0.7002658293925945 0.7138821808348403 8.46132172332763e-06
  outer loop
    vertex 17.494393156757145 14.679198224570902 10.093710000000002
    vertex 16.39282417781471 15.759971272803778 9.724849000394645
    vertex 16.392822476132913 15.759971273666205 10.093710000000002
  endloop
endfacet
facet normal -5.662895047010158e-07 2.2506387740001206e-07 0.9999999999998144
  outer loop
    vertex 16.392822476132913 0.009971273666248236 10.093710000000002
    vertex 14.392822476132864 5.009971273666242 10.093710000000009
    vertex 14.392822476132864 0.009971273666248236 10.093710000000005
  endloop
endfacet
facet normal -5.662895047010158e-07 2.2506387740001206e-07 0.9999999999998144
  outer loop
    vertex 14.392822476132864 5.009971273666242 10.093710000000009
    vertex 10.392826037396471 15.760282829110485 10.093696704561014
    vertex 10.39282247613282 5.009971273666242 10.093710000000018
  endloop
endfacet
facet normal -5.662895047010158e-07 2.2506387740001206e-07 0.9999999999998144
  outer loop
    vertex 10.392826037396471 15.760282829110485 10.093696704561014
    vertex 14.392822476132864 5.009971273666242 10.093710000000009
    vertex 16.392822476132913 15.759971273666205 10.093710000000002
  endloop
endfacet
facet normal -5.662895047010158e-07 2.2506387740001206e-07 0.9999999999998144
  outer loop
    vertex 16.392822476132913 15.759971273666205 10.093710000000002
    vertex 14.392822476132864 5.009971273666242 10.093710000000009
    vertex 16.392822476132913 0.009971273666248236 10.093710000000002
  endloop
endfacet
facet normal -5.662895047010158e-07 2.2506387740001206e-07 0.9999999999998144
  outer loop
    vertex 16.392822476132913 15.759971273666205 10.093710000000002
    vertex 16.392822476132913 0.009971273666248236 10.093710000000002
    vertex 17.494393156757145 1.0907443227615323 10.093710000000002
  endloop
endfacet
facet normal -5.662895047010158e-07 2.2506387740001206e-07 0.9999999999998144
  outer loop
    vertex 16.392822476132913 15.759971273666205 10.093710000000002
    vertex 17.494393156757145 1.0907443227615323 10.093710000000002
    vertex 17.494393156757145 14.679198224570902 10.093710000000002
  endloop
endfacet
facet normal -5.662895047010158e-07 2.2506387740001206e-07 0.9999999999998144
  outer loop
    vertex 17.494393156757145 14.679198224570902 10.093710000000002
    vertex 17.494393156757145 1.0907443227615323 10.093710000000002
    vertex 18.4243653016206 2.2950882523530187 10.093710000000002
  endloop
endfacet
facet normal -5.662895047010158e-07 2.2506387740001206e-07 0.9999999999998144
  outer loop
    vertex 17.494393156757145 14.679198224570902 10.093710000000002
    vertex 18.4243653016206 2.2950882523530187 10.093710000000002
    vertex 18.4243653016206 13.474854294979432 10.093710000000002
  endloop
endfacet
facet normal -5.662895047010158e-07 2.2506387740001206e-07 0.9999999999998144
  outer loop
    vertex 18.4243653016206 13.474854294979432 10.093710000000002
    vertex 18.4243653016206 2.2950882523530187 10.093710000000002
    vertex 19.16582492218445 3.601098901617797 10.093710000000002
  endloop
endfacet
facet normal -5.662895047010158e-07 2.2506387740001206e-07 0.9999999999998144
  outer loop
    vertex 18.4243653016206 13.474854294979432 10.093710000000002
    vertex 19.16582492218445 3.601098901617797 10.093710000000002
    vertex 19.16582492218446 12.168843645714665 10.093710000000002
  endloop
endfacet
facet normal -5.662895047010158e-07 2.2506387740001206e-07 0.9999999999998144
  outer loop
    vertex 19.16582492218446 12.168843645714665 10.093710000000002
    vertex 19.16582492218445 3.601098901617797 10.093710000000002
    vertex 19.705286625801737 4.985023033133377 10.093710000000002
  endloop
endfacet
facet normal -5.662895047010158e-07 2.2506387740001206e-07 0.9999999999998144
  outer loop
    vertex 19.16582492218446 12.168843645714665 10.093710000000002
    vertex 19.705286625801737 4.985023033133377 10.093710000000002
    vertex 19.705286625801737 10.78491951419908 10.093710000000002
  endloop
endfacet
facet normal -5.662895047010158e-07 2.2506387740001206e-07 0.9999999999998144
  outer loop
    vertex 19.705286625801737 10.78491951419908 10.093710000000002
    vertex 19.705286625801737 4.985023033133377 10.093710000000002
    vertex 20.032938883038486 6.421690347952286 10.093710000000002
  endloop
endfacet
facet normal -5.662895047010158e-07 2.2506387740001206e-07 0.9999999999998144
  outer loop
    vertex 19.705286625801737 10.78491951419908 10.093710000000002
    vertex 20.032938883038486 6.421690347952286 10.093710000000002
    vertex 20.032938883038486 9.348252199380136 10.093710000000002
  endloop
endfacet
facet normal -5.662895047010158e-07 2.2506387740001206e-07 0.9999999999998144
  outer loop
    vertex 20.032938883038486 9.348252199380136 10.093710000000002
    vertex 20.032938883038486 6.421690347952286 10.093710000000002
    vertex 20.142822476132928 7.884971273666217 10.093710000000002
  endloop
endfacet
facet normal -0.9999999986270598 5.2400963352718865e-05 1.3925581707896193e-07
  outer loop
    vertex 16.392825395257788 15.759015806417377 8.593688173941892
    vertex 16.392822476132913 15.725991773666218 -5.3631267322912475e-24
    vertex 16.392821833994148 15.724724750973108 8.593701469380715
  endloop
endfacet
facet normal -0.9999999986270598 5.2400963352718865e-05 1.3925581707896193e-07
  outer loop
    vertex 16.392822476132913 15.725991773666218 -5.3631267322912475e-24
    vertex 16.392825395257788 15.759015806417377 8.593688173941892
    vertex 16.392822476132913 15.759971273666205 -5.3631267322912475e-24
  endloop
endfacet
facet normal 1.0 2.4181540539465516e-30 -2.0953394360556532e-15
  outer loop
    vertex 0.41111747613282346 0.00997127366625565 4.693705944272637e-14
    vertex 0.4111174761328446 5.009971273666234 10.093710000000018
    vertex 0.4111174761328446 0.009971273666244262 10.09371000000001
  endloop
endfacet
facet normal 1.0 2.4181540539465516e-30 -2.0953394360556532e-15
  outer loop
    vertex 0.4111174761328446 5.009971273666234 10.093710000000018
    vertex 0.41111747613282346 0.00997127366625565 4.693705944272637e-14
    vertex 0.41111747613282346 5.009971273666233 5.257699240782217e-14
  endloop
endfacet
facet normal 7.570722836405969e-15 9.3579182271529e-15 1.0
  outer loop
    vertex 0.4111174761328446 0.009971273666244262 10.09371000000001
    vertex -1.5888825238671345 15.725992013558809 10.093710162582639
    vertex -1.5888825238671345 0.009971513558846947 10.093710162582735
  endloop
endfacet
facet normal 7.570722836405969e-15 9.3579182271529e-15 1.0
  outer loop
    vertex -1.5888825238671345 15.725992013558809 10.093710162582639
    vertex 0.4111174761328446 0.009971273666244262 10.09371000000001
    vertex 0.4111174761328446 15.725991773666218 10.093709999999911
  endloop
endfacet
facet normal 7.570722836405969e-15 9.3579182271529e-15 1.0
  outer loop
    vertex 0.4111174761328446 15.725991773666218 10.093709999999911
    vertex 0.4111174761328446 0.009971273666244262 10.09371000000001
    vertex 0.4111174761328446 5.009971273666234 10.093710000000018
  endloop
endfacet
facet normal 7.570722836405969e-15 9.3579182271529e-15 1.0
  outer loop
    vertex 0.4111174761328446 15.725991773666218 10.093709999999911
    vertex 0.4111174761328446 5.009971273666234 10.093710000000018
    vertex 6.392822476132974 5.009971273666242 10.093709999999989
  endloop
endfacet
facet normal 7.570722836405969e-15 9.3579182271529e-15 1.0
  outer loop
    vertex 0.4111174761328446 15.725991773666218 10.093709999999911
    vertex 6.392822476132974 5.009971273666242 10.093709999999989
    vertex 0.41112483227848334 15.761432948612116 10.093737374914367
  endloop
endfacet
facet normal 7.570722836405969e-15 9.3579182271529e-15 1.0
  outer loop
    vertex 0.41112483227848334 15.761432948612116 10.093737374914367
    vertex 6.392822476132974 5.009971273666242 10.093709999999989
    vertex 6.392822476132985 15.725991773666218 10.09370999999981
  endloop
endfacet
facet normal 7.570722836405969e-15 9.3579182271529e-15 1.0
  outer loop
    vertex 0.41112483227848334 15.761432948612116 10.093737374914367
    vertex 6.392822476132985 15.725991773666218 10.09370999999981
    vertex 6.392829832278617 15.761432948612116 10.093737374914266
  endloop
endfacet
facet normal 0.0001282522718479722 0.9999999878172657 -8.89765328812351e-05
  outer loop
    vertex -1.5888825238671345 15.759971513558797 1.6258272646411215e-07
    vertex 16.392825395257788 15.759015806417377 8.593688173941892
    vertex 16.392822476132913 15.759971273666205 -5.3631267322912475e-24
  endloop
endfacet
facet normal 0.0001282522718479722 0.9999999878172657 -8.89765328812351e-05
  outer loop
    vertex 16.392825395257788 15.759015806417377 8.593688173941892
    vertex -1.5888825238671345 15.759971513558797 1.6258272646411215e-07
    vertex 5.392826037396604 15.760282829110464 8.593696704561003
  endloop
endfacet
facet normal 0.0001282522718479722 0.9999999878172657 -8.89765328812351e-05
  outer loop
    vertex 5.392826037396604 15.760282829110464 8.593696704561003
    vertex -1.5888825238671345 15.759971513558797 1.6258272646411215e-07
    vertex -1.5888751677214956 15.763957962467328 8.593746036904745
  endloop
endfacet
facet normal 0.0001282522718479722 0.9999999878172657 -8.89765328812351e-05
  outer loop
    vertex 16.392825395257788 15.759015806417377 8.593688173941892
    vertex 5.392826037396604 15.760282829110464 8.593696704561003
    vertex 11.392826037396611 15.760282829110475 8.59369670456098
  endloop
endfacet
facet normal 0.0001282522718479722 0.9999999878172657 -8.89765328812351e-05
  outer loop
    vertex 5.392826037396604 15.760282829110464 8.593696704561003
    vertex -1.5888751677214956 15.763957962467328 8.593746036904745
    vertex 0.41112483227848334 15.763957722574737 8.59374587432202
  endloop
endfacet
facet normal 0.0001282522718479722 0.9999999878172657 -8.89765328812351e-05
  outer loop
    vertex 0.41112483227848334 15.763957722574737 8.59374587432202
    vertex 6.392829832278617 15.761432948612116 10.093737374914266
    vertex 5.392826037396604 15.760282829110464 8.593696704561003
  endloop
endfacet
facet normal 0.0001282522718479722 0.9999999878172657 -8.89765328812351e-05
  outer loop
    vertex 6.392829832278617 15.761432948612116 10.093737374914266
    vertex 0.41112483227848334 15.763957722574737 8.59374587432202
    vertex 0.41112483227848334 15.761432948612116 10.093737374914367
  endloop
endfacet
facet normal 0.0001282522718479722 0.9999999878172657 -8.89765328812351e-05
  outer loop
    vertex 11.392826037396611 15.760282829110475 8.59369670456098
    vertex 16.39282417781471 15.759971272803778 9.724849000394645
    vertex 16.392825395257788 15.759015806417377 8.593688173941892
  endloop
endfacet
facet normal 0.0001282522718479722 0.9999999878172657 -8.89765328812351e-05
  outer loop
    vertex 16.39282417781471 15.759971272803778 9.724849000394645
    vertex 11.392826037396611 15.760282829110475 8.59369670456098
    vertex 10.392826037396471 15.760282829110485 10.093696704561014
  endloop
endfacet
facet normal 0.0001282522718479722 0.9999999878172657 -8.89765328812351e-05
  outer loop
    vertex 16.39282417781471 15.759971272803778 9.724849000394645
    vertex 10.392826037396471 15.760282829110485 10.093696704561014
    vertex 16.392822476132913 15.759971273666205 10.093710000000002
  endloop
endfacet
facet normal -0.9999999784595632 0.0002075590306559861 3.493617371165489e-07
  outer loop
    vertex 0.41112483227848334 15.761432948612116 10.093737374914367
    vertex 0.4111174761328446 15.728516547628837 8.593718499407563
    vertex 0.4111174761328446 15.725991773666218 10.093709999999911
  endloop
endfacet
facet normal -0.9999999784595632 0.0002075590306559861 3.493617371165489e-07
  outer loop
    vertex 0.4111174761328446 15.728516547628837 8.593718499407563
    vertex 0.41112483227848334 15.761432948612116 10.093737374914367
    vertex 0.41112483227848334 15.763957722574737 8.59374587432202
  endloop
endfacet
facet normal -0.8320502943377424 -4.103910976656971e-07 -0.5547001962252294
  outer loop
    vertex 10.39282247613282 5.009971273666242 10.093710000000018
    vertex 11.392826037396611 15.760282829110475 8.59369670456098
    vertex 11.39282247613297 5.00997127366623 8.593709999999984
  endloop
endfacet
facet normal -0.8320502943377424 -4.103910976656971e-07 -0.5547001962252294
  outer loop
    vertex 11.392826037396611 15.760282829110475 8.59369670456098
    vertex 10.39282247613282 5.009971273666242 10.093710000000018
    vertex 10.392826037396471 15.760282829110485 10.093696704561014
  endloop
endfacet
facet normal 0.8320518822746149 -4.823644353575582e-07 -0.554697814312476
  outer loop
    vertex 5.392826037396604 15.760282829110464 8.593696704561003
    vertex 6.392822476132974 5.009971273666242 10.093709999999989
    vertex 5.392822476132953 5.00997127366622 8.593710000000007
  endloop
endfacet
facet normal 0.8320518822746149 -4.823644353575582e-07 -0.554697814312476
  outer loop
    vertex 6.392822476132974 5.009971273666242 10.093709999999989
    vertex 5.392826037396604 15.760282829110464 8.593696704561003
    vertex 6.392822476132985 15.725991773666218 10.09370999999981
  endloop
endfacet
facet normal 0.8320561464042675 0.0002557449726633639 -0.5546913590686169
  outer loop
    vertex 6.392829832278617 15.761432948612116 10.093737374914266
    vertex 6.392822476132985 15.725991773666218 10.09370999999981
    vertex 5.392826037396604 15.760282829110464 8.593696704561003
  endloop
endfacet
facet normal 3.7599530016397524e-15 1.236749180280754e-06 0.9999999999992353
  outer loop
    vertex 11.39282247613297 5.00997127366623 8.593709999999984
    vertex 5.392826037396604 15.760282829110464 8.593696704561003
    vertex 5.392822476132953 5.00997127366622 8.593710000000007
  endloop
endfacet
facet normal 3.7599530016397524e-15 1.236749180280754e-06 0.9999999999992353
  outer loop
    vertex 5.392826037396604 15.760282829110464 8.593696704561003
    vertex 11.39282247613297 5.00997127366623 8.593709999999984
    vertex 11.392826037396611 15.760282829110475 8.59369670456098
  endloop
endfacet
facet normal -5.583478557974475e-15 -1.0 -1.1282911767979249e-15
  outer loop
    vertex 0.4111174761328446 0.009971273666244262 10.09371000000001
    vertex -1.5888825238671556 0.009971513558858336 1.6258276921049272e-07
    vertex 0.41111747613282346 0.00997127366625565 4.693705944272637e-14
  endloop
endfacet
facet normal -5.583478557974475e-15 -1.0 -1.1282911767979249e-15
  outer loop
    vertex -1.5888825238671556 0.009971513558858336 1.6258276921049272e-07
    vertex 0.4111174761328446 0.009971273666244262 10.09371000000001
    vertex -1.5888825238671345 0.009971513558846947 10.093710162582735
  endloop
endfacet
facet normal -1.7004864303672745e-15 -9.733356483059068e-16 -1.0
  outer loop
    vertex 16.392822476132913 15.759971273666205 -5.3631267322912475e-24
    vertex 0.41111747613282346 5.009971273666233 5.257699240782217e-14
    vertex -1.5888825238671345 15.759971513558797 1.6258272646411215e-07
  endloop
endfacet
facet normal -1.7004864303672745e-15 -9.733356483059068e-16 -1.0
  outer loop
    vertex 0.41111747613282346 5.009971273666233 5.257699240782217e-14
    vertex 16.392822476132913 15.759971273666205 -5.3631267322912475e-24
    vertex 14.392822476132869 5.009971273666233 1.9387269567516796e-14
  endloop
endfacet
facet normal -1.7004864303672745e-15 -9.733356483059068e-16 -1.0
  outer loop
    vertex 14.392822476132869 5.009971273666233 1.9387269567516796e-14
    vertex 16.392822476132913 15.759971273666205 -5.3631267322912475e-24
    vertex 14.392822476132869 0.00997127366625565 1.3747336602421e-14
  endloop
endfacet
facet normal -1.7004864303672745e-15 -9.733356483059068e-16 -1.0
  outer loop
    vertex 14.392822476132869 0.00997127366625565 1.3747336602421e-14
    vertex 16.392822476132913 15.759971273666205 -5.3631267322912475e-24
    vertex 16.392822476132913 0.009971273666248236 -5.3631267322912475e-24
  endloop
endfacet
facet normal -1.7004864303672745e-15 -9.733356483059068e-16 -1.0
  outer loop
    vertex 16.392822476132913 0.009971273666248236 -5.3631267322912475e-24
    vertex 16.392822476132913 15.759971273666205 -5.3631267322912475e-24
    vertex 17.494393156757145 14.679198224570902 -5.3631267322912475e-24
  endloop
endfacet
facet normal -1.7004864303672745e-15 -9.733356483059068e-16 -1.0
  outer loop
    vertex 16.392822476132913 0.009971273666248236 -5.3631267322912475e-24
    vertex 17.494393156757145 14.679198224570902 -5.3631267322912475e-24
    vertex 17.494393156757145 1.0907443227615323 -5.3631267322912475e-24
  endloop
endfacet
facet normal -1.7004864303672745e-15 -9.733356483059068e-16 -1.0
  outer loop
    vertex 17.494393156757145 1.0907443227615323 -5.3631267322912475e-24
    vertex 17.494393156757145 14.679198224570902 -5.3631267322912475e-24
    vertex 18.4243653016206 13.474854294979432 -5.3631267322912475e-24
  endloop
endfacet
facet normal -1.7004864303672745e-15 -9.733356483059068e-16 -1.0
  outer loop
    vertex 17.494393156757145 1.0907443227615323 -5.3631267322912475e-24
    vertex 18.4243653016206 13.474854294979432 -5.3631267322912475e-24
    vertex 18.4243653016206 2.2950882523530187 -5.3631267322912475e-24
  endloop
endfacet
facet normal -1.7004864303672745e-15 -9.733356483059068e-16 -1.0
  outer loop
    vertex 18.4243653016206 2.2950882523530187 -5.3631267322912475e-24
    vertex 18.4243653016206 13.474854294979432 -5.3631267322912475e-24
    vertex 19.16582492218446 12.168843645714665 -5.3631267322912475e-24
  endloop
endfacet
facet normal -1.7004864303672745e-15 -9.733356483059068e-16 -1.0
  outer loop
    vertex 18.4243653016206 2.2950882523530187 -5.3631267322912475e-24
    vertex 19.16582492218446 12.168843645714665 -5.3631267322912475e-24
    vertex 19.16582492218445 3.6010989016177857 -5.3631267322912475e-24
  endloop
endfacet
facet normal -1.7004864303672745e-15 -9.733356483059068e-16 -1.0
  outer loop
    vertex 19.16582492218445 3.6010989016177857 -5.3631267322912475e-24
    vertex 19.16582492218446 12.168843645714665 -5.3631267322912475e-24
    vertex 19.705286625801737 4.985023033133377 -5.3631267322912475e-24
  endloop
endfacet
facet normal -1.7004864303672745e-15 -9.733356483059068e-16 -1.0
  outer loop
    vertex 19.705286625801737 4.985023033133377 -5.3631267322912475e-24
    vertex 19.16582492218446 12.168843645714665 -5.3631267322912475e-24
    vertex 19.705286625801737 10.78491951419908 -5.3631267322912475e-24
  endloop
endfacet
facet normal -1.7004864303672745e-15 -9.733356483059068e-16 -1.0
  outer loop
    vertex 19.705286625801737 4.985023033133377 -5.3631267322912475e-24
    vertex 19.705286625801737 10.78491951419908 -5.3631267322912475e-24
    vertex 20.032938883038486 9.348252199380136 -5.3631267322912475e-24
  endloop
endfacet
facet normal -1.7004864303672745e-15 -9.733356483059068e-16 -1.0
  outer loop
    vertex 19.705286625801737 4.985023033133377 -5.3631267322912475e-24
    vertex 20.032938883038486 9.348252199380136 -5.3631267322912475e-24
    vertex 20.032938883038486 6.421690347952286 -5.3631267322912475e-24
  endloop
endfacet
facet normal -1.7004864303672745e-15 -9.733356483059068e-16 -1.0
  outer loop
    vertex 20.032938883038486 6.421690347952286 -5.3631267322912475e-24
    vertex 20.032938883038486 9.348252199380136 -5.3631267322912475e-24
    vertex 20.142822476132928 7.884971273666217 -5.3631267322912475e-24
  endloop
endfacet
facet normal -1.7004864303672745e-15 -9.733356483059068e-16 -1.0
  outer loop
    vertex -1.5888825238671345 15.759971513558797 1.6258272646411215e-07
    vertex 0.41111747613282346 0.00997127366625565 4.693705944272637e-14
    vertex -1.5888825238671556 0.009971513558858336 1.6258276921049272e-07
  endloop
endfacet
facet normal -1.7004864303672745e-15 -9.733356483059068e-16 -1.0
  outer loop
    vertex 0.41111747613282346 0.00997127366625565 4.693705944272637e-14
    vertex -1.5888825238671345 15.759971513558797 1.6258272646411215e-07
    vertex 0.41111747613282346 5.009971273666233 5.257699240782217e-14
  endloop
endfacet
facet normal -2.1973622959969303e-15 1.0 -1.3750238024042298e-14
  outer loop
    vertex 22.276279100175852 10.779441830176458 0.003534827817130763
    vertex 29.268286548659596 10.777956547447573 1.5000000000003244
    vertex 30.268286548659585 10.777956547447573 3.271161119755561e-13
  endloop
endfacet
facet normal -2.1973622959969303e-15 1.0 -1.3750238024042298e-14
  outer loop
    vertex 29.268286548659596 10.777956547447573 1.5000000000003244
    vertex 22.276279100175852 10.779441830176458 0.003534827817130763
    vertex 22.276279100175852 10.779441830176447 3.0035348278171368
  endloop
endfacet
facet normal -2.1973622959969303e-15 1.0 -1.3750238024042298e-14
  outer loop
    vertex 29.268286548659596 10.777956547447573 1.5000000000003244
    vertex 22.276279100175852 10.779441830176447 3.0035348278171368
    vertex 38.26828654865951 10.77795654744763 3.0035348278171217
  endloop
endfacet
facet normal -2.1973622959969303e-15 1.0 -1.3750238024042298e-14
  outer loop
    vertex 38.26828654865951 10.77795654744763 3.0035348278171217
    vertex 22.276279100175852 10.779441830176447 3.0035348278171368
    vertex 34.01828654865946 10.777956547447653 3.003534827817189
  endloop
endfacet
facet normal -2.1973622959969303e-15 1.0 -1.3750238024042298e-14
  outer loop
    vertex 34.01828654865946 10.777956547447653 3.003534827817189
    vertex 22.276279100175852 10.779441830176447 3.0035348278171368
    vertex 30.518286548659674 10.777956547447653 3.003534827817268
  endloop
endfacet
facet normal -2.1973622959969303e-15 1.0 -1.3750238024042298e-14
  outer loop
    vertex 34.01828654865946 10.777956547447653 3.003534827817189
    vertex 30.518286548659674 10.777956547447653 3.003534827817268
    vertex 35.018286548659574 10.77795654744772 4.25353482781721
  endloop
endfacet
facet normal -2.1973622959969303e-15 1.0 -1.3750238024042298e-14
  outer loop
    vertex 35.018286548659574 10.77795654744772 4.25353482781721
    vertex 30.518286548659674 10.777956547447653 3.003534827817268
    vertex 29.518286548659606 10.777956547447664 4.253534827817232
  endloop
endfacet
facet normal -2.1973622959969303e-15 1.0 -1.3750238024042298e-14
  outer loop
    vertex 35.26828654865954 10.777956547447676 1.5000000000002904
    vertex 38.26828654865951 10.77795654744764 0.0035348278171157153
    vertex 34.268286548659404 10.77795654744762 2.4815705046421497e-13
  endloop
endfacet
facet normal -2.1973622959969303e-15 1.0 -1.3750238024042298e-14
  outer loop
    vertex 38.26828654865951 10.77795654744764 0.0035348278171157153
    vertex 35.26828654865954 10.777956547447676 1.5000000000002904
    vertex 38.26828654865951 10.77795654744763 3.0035348278171217
  endloop
endfacet
facet normal -2.1973622959969303e-15 1.0 -1.3750238024042298e-14
  outer loop
    vertex 38.26828654865951 10.77795654744763 3.0035348278171217
    vertex 35.26828654865954 10.777956547447676 1.5000000000002904
    vertex 29.268286548659596 10.777956547447573 1.5000000000003244
  endloop
endfacet
facet normal 0.7003362857837554 0.7138130615326497 -1.1625606675511948e-14
  outer loop
    vertex 40.2682865486594 15.777956547447655 0.003534827816969077
    vertex 41.36985722928374 14.697183498352345 3.0035348278169183
    vertex 41.369857229283646 14.697183498352436 0.0035348278168675583
  endloop
endfacet
facet normal 0.7003362857837554 0.7138130615326497 -1.1625606675511948e-14
  outer loop
    vertex 41.36985722928374 14.697183498352345 3.0035348278169183
    vertex 40.2682865486594 15.777956547447655 0.003534827816969077
    vertex 40.26828654865951 15.777956547447644 3.003534827816896
  endloop
endfacet
facet normal -5.639932965095465e-15 1.0 3.759955310064012e-15
  outer loop
    vertex 38.26828654865949 15.777956547447644 0.0035348278171608346
    vertex 40.26828654865951 15.777956547447644 3.003534827816896
    vertex 40.2682865486594 15.777956547447655 0.003534827816969077
  endloop
endfacet
facet normal -5.639932965095465e-15 1.0 3.759955310064012e-15
  outer loop
    vertex 40.26828654865951 15.777956547447644 3.003534827816896
    vertex 38.26828654865949 15.777956547447644 0.0035348278171608346
    vertex 38.26828654865949 15.777956547447632 3.0035348278171665
  endloop
endfacet
facet normal -0.9999999999999896 1.1994629575941458e-07 8.129136323205607e-08
  outer loop
    vertex -1.5888825238671345 15.725992013558809 10.093710162582639
    vertex -1.5888825238671556 0.009971513558858336 1.6258276921049272e-07
    vertex -1.5888825238671345 0.009971513558846947 10.093710162582735
  endloop
endfacet
facet normal -0.9999999999999896 1.1994629575941458e-07 8.129136323205607e-08
  outer loop
    vertex -1.5888825238671556 0.009971513558858336 1.6258276921049272e-07
    vertex -1.5888825238671345 15.725992013558809 10.093710162582639
    vertex -1.5888825238671345 15.72851678752143 8.59371866199029
  endloop
endfacet
facet normal -0.9999999999999896 1.1994629575941458e-07 8.129136323205607e-08
  outer loop
    vertex -1.5888825238671556 0.009971513558858336 1.6258276921049272e-07
    vertex -1.5888825238671345 15.72851678752143 8.59371866199029
    vertex -1.5888825238671345 15.759971513558797 1.6258272646411215e-07
  endloop
endfacet
facet normal -0.9999999999999896 1.1994629575941458e-07 8.129136323205607e-08
  outer loop
    vertex -1.5888825238671345 15.759971513558797 1.6258272646411215e-07
    vertex -1.5888825238671345 15.72851678752143 8.59371866199029
    vertex -1.5888751677214956 15.763957962467328 8.593746036904745
  endloop
endfacet
facet normal 1.2008295464069625e-07 0.9999985834350469 0.0016831897948203314
  outer loop
    vertex -1.5888825238671345 15.72851678752143 8.59371866199029
    vertex 0.4111174761328446 15.725991773666218 10.093709999999911
    vertex 0.4111174761328446 15.728516547628837 8.593718499407563
  endloop
endfacet
facet normal 1.2008295464069625e-07 0.9999985834350469 0.0016831897948203314
  outer loop
    vertex 0.4111174761328446 15.725991773666218 10.093709999999911
    vertex -1.5888825238671345 15.72851678752143 8.59371866199029
    vertex -1.5888825238671345 15.725992013558809 10.093710162582639
  endloop
endfacet
facet normal 8.119869197848637e-08 -0.0007724040450011983 0.9999997016959479
  outer loop
    vertex 0.4111174761328446 15.728516547628837 8.593718499407563
    vertex -1.5888751677214956 15.763957962467328 8.593746036904745
    vertex -1.5888825238671345 15.72851678752143 8.59371866199029
  endloop
endfacet
facet normal 8.119869197848637e-08 -0.0007724040450011983 0.9999997016959479
  outer loop
    vertex -1.5888751677214956 15.763957962467328 8.593746036904745
    vertex 0.4111174761328446 15.728516547628837 8.593718499407563
    vertex 0.41112483227848334 15.763957722574737 8.59374587432202
  endloop
endfacet
endsolid Plate Plug 1 Dovetail
