solid Plate Plug 1 Extension
facet normal 0.8696257864488579 -0.4937114456271044 -9.322089844638064e-15
  outer loop
    vertex 20.773001894535156 3.6027121279515693 0.003534827816649876
    vertex 20.031542273971358 2.296701478686819 3.0035348278166327
    vertex 20.031542273971404 2.296701478686819 0.003534827816683716
  endloop
endfacet
facet normal 0.8696257864488579 -0.4937114456271044 -9.322089844638064e-15
  outer loop
    vertex 20.031542273971358 2.296701478686819 3.0035348278166327
    vertex 20.773001894535156 3.6027121279515693 0.003534827816649876
    vertex 20.773001894535245 3.6027121279515355 3.0035348278166443
  endloop
endfacet
facet normal 0.832050294337839 -1.2261172071271574e-14 0.5547001962252364
  outer loop
    vertex 7.999999448483887 10.761584499999877 3.124720067403148e-13
    vertex 6.999999448483855 9.305889392408061e-14 1.500000000000095
    vertex 7.999999448483909 5.921929613350585e-14 8.647113575608103e-14
  endloop
endfacet
facet normal 0.832050294337839 -1.2261172071271574e-14 0.5547001962252364
  outer loop
    vertex 6.999999448483855 9.305889392408061e-14 1.500000000000095
    vertex 7.999999448483887 10.761584499999877 3.124720067403148e-13
    vertex 6.9999994484839005 10.761584499999877 1.5000000000003098
  endloop
endfacet
facet normal -0.00029456870626809944 0.0001650417619553786 -0.9999999429952454
  outer loop
    vertex 0.007992000000156717 10.763069782728762 0.0035348278171161186
    vertex 7.999999448483909 5.921929613350585e-14 8.647113575608103e-14
    vertex 0.0 0.001485282728850435 0.0
  endloop
endfacet
facet normal -0.00029456870626809944 0.0001650417619553786 -0.9999999429952454
  outer loop
    vertex 7.999999448483909 5.921929613350585e-14 8.647113575608103e-14
    vertex 0.007992000000156717 10.763069782728762 0.0035348278171161186
    vertex 7.999999448483887 10.761584499999877 3.124720067403148e-13
  endloop
endfacet
facet normal 0.7041311647366351 -0.7100699281385107 -2.757932638412135e-14
  outer loop
    vertex 19.10157012910802 1.0923575490953357 3.0035348278166443
    vertex 17.9999994484837 5.357936316841005e-14 0.0035348278166720325
    vertex 19.10157012910795 1.0923575490953807 0.0035348278166273165
  endloop
endfacet
facet normal 0.7041311647366351 -0.7100699281385107 -2.757932638412135e-14
  outer loop
    vertex 17.9999994484837 5.357936316841005e-14 0.0035348278166720325
    vertex 19.10157012910802 1.0923575490953357 3.0035348278166443
    vertex 17.999999448483766 0.0 3.003534827816565
  endloop
endfacet
facet normal -1.8959402287350586e-14 -2.4657482678157837e-14 1.0
  outer loop
    vertex 8.249999448483978 6.203926261605374e-14 3.0035348278169596
    vertex 0.007992000000156717 10.76306978272875 3.0035348278171217
    vertex 4.511946372076636e-14 0.0014852827288306951 3.0035348278168845
  endloop
endfacet
facet normal -1.8959402287350586e-14 -2.4657482678157837e-14 1.0
  outer loop
    vertex 0.007992000000156717 10.76306978272875 3.0035348278171217
    vertex 8.249999448483978 6.203926261605374e-14 3.0035348278169596
    vertex 8.249999448483978 10.761584499999957 3.003534827817253
  endloop
endfacet
facet normal 9.228981215611546e-15 -2.5789117825007412e-14 1.0
  outer loop
    vertex 12.749999448483855 3.3839597790574766e-14 4.253534827816889
    vertex 7.249999448483911 10.761584499999968 4.253534827817218
    vertex 7.249999448483911 1.4099832412739488e-14 4.253534827816968
  endloop
endfacet
facet normal 9.228981215611546e-15 -2.5789117825007412e-14 1.0
  outer loop
    vertex 7.249999448483911 10.761584499999968 4.253534827817218
    vertex 12.749999448483855 3.3839597790574766e-14 4.253534827816889
    vertex 12.749999448483878 10.761584500000025 4.2535348278171945
  endloop
endfacet
facet normal -1.0 -4.511946372076634e-15 -1.6593613542153872e-29
  outer loop
    vertex 15.999999448483793 15.761584499999934 3.003534827817152
    vertex 15.999999448483816 10.761584499999945 0.0035348278171010708
    vertex 15.999999448483816 10.761584499999934 3.0035348278171066
  endloop
endfacet
facet normal -1.0 -4.511946372076634e-15 -1.6593613542153872e-29
  outer loop
    vertex 15.999999448483816 10.761584499999945 0.0035348278171010708
    vertex 15.999999448483793 15.761584499999934 3.003534827817152
    vertex 15.999999448483793 15.761584499999946 0.0035348278171461905
  endloop
endfacet
facet normal 0.9317157805329511 -0.3631882491296677 -1.879137028263172e-14
  outer loop
    vertex 20.773001894535156 3.6027121279515693 0.003534827816649876
    vertex 21.31246359815252 4.9866362594671285 3.0035348278166554
    vertex 20.773001894535245 3.6027121279515355 3.0035348278166443
  endloop
endfacet
facet normal 0.9317157805329511 -0.3631882491296677 -1.879137028263172e-14
  outer loop
    vertex 21.31246359815252 4.9866362594671285 3.0035348278166554
    vertex 20.773001894535156 3.6027121279515693 0.003534827816649876
    vertex 21.31246359815252 4.986636259467174 0.003534827816661156
  endloop
endfacet
facet normal -2.6545216276221913e-14 1.7948211919413285e-14 -1.0
  outer loop
    vertex 19.10157012910795 14.680811450904738 0.003534827816852914
    vertex 17.9999994484837 5.357936316841005e-14 0.0035348278166720325
    vertex 17.9999994484837 15.761584499999957 0.0035348278169544324
  endloop
endfacet
facet normal -2.6545216276221913e-14 1.7948211919413285e-14 -1.0
  outer loop
    vertex 17.9999994484837 5.357936316841005e-14 0.0035348278166720325
    vertex 19.10157012910795 14.680811450904738 0.003534827816852914
    vertex 19.10157012910795 1.0923575490953807 0.0035348278166273165
  endloop
endfacet
facet normal -2.6545216276221913e-14 1.7948211919413285e-14 -1.0
  outer loop
    vertex 19.10157012910795 1.0923575490953807 0.0035348278166273165
    vertex 19.10157012910795 14.680811450904738 0.003534827816852914
    vertex 20.031542273971404 13.476467521313266 0.0035348278168754734
  endloop
endfacet
facet normal -2.6545216276221913e-14 1.7948211919413285e-14 -1.0
  outer loop
    vertex 19.10157012910795 1.0923575490953807 0.0035348278166273165
    vertex 20.031542273971404 13.476467521313266 0.0035348278168754734
    vertex 20.031542273971404 2.296701478686819 0.003534827816683716
  endloop
endfacet
facet normal -2.6545216276221913e-14 1.7948211919413285e-14 -1.0
  outer loop
    vertex 20.031542273971404 2.296701478686819 0.003534827816683716
    vertex 20.031542273971404 13.476467521313266 0.0035348278168754734
    vertex 20.773001894535177 12.170456872048506 0.003534827816830354
  endloop
endfacet
facet normal -2.6545216276221913e-14 1.7948211919413285e-14 -1.0
  outer loop
    vertex 20.031542273971404 2.296701478686819 0.003534827816683716
    vertex 20.773001894535177 12.170456872048506 0.003534827816830354
    vertex 20.773001894535156 3.6027121279515693 0.003534827816649876
  endloop
endfacet
facet normal -2.6545216276221913e-14 1.7948211919413285e-14 -1.0
  outer loop
    vertex 20.773001894535156 3.6027121279515693 0.003534827816649876
    vertex 20.773001894535177 12.170456872048506 0.003534827816830354
    vertex 21.31246359815252 4.986636259467174 0.003534827816661156
  endloop
endfacet
facet normal -2.6545216276221913e-14 1.7948211919413285e-14 -1.0
  outer loop
    vertex 21.31246359815252 4.986636259467174 0.003534827816661156
    vertex 20.773001894535177 12.170456872048506 0.003534827816830354
    vertex 21.312463598152497 10.7865327405329 0.0035348278167852344
  endloop
endfacet
facet normal -2.6545216276221913e-14 1.7948211919413285e-14 -1.0
  outer loop
    vertex 21.31246359815252 4.986636259467174 0.003534827816661156
    vertex 21.312463598152497 10.7865327405329 0.0035348278167852344
    vertex 21.640115855389197 9.349865425713917 0.003534827816728835
  endloop
endfacet
facet normal -2.6545216276221913e-14 1.7948211919413285e-14 -1.0
  outer loop
    vertex 21.31246359815252 4.986636259467174 0.003534827816661156
    vertex 21.640115855389197 9.349865425713917 0.003534827816728835
    vertex 21.640115855389265 6.423303574286096 0.0035348278166724358
  endloop
endfacet
facet normal -2.6545216276221913e-14 1.7948211919413285e-14 -1.0
  outer loop
    vertex 21.640115855389265 6.423303574286096 0.0035348278166724358
    vertex 21.640115855389197 9.349865425713917 0.003534827816728835
    vertex 21.749999448483557 7.886584500000052 0.003534827816683716
  endloop
endfacet
facet normal 0.00035302578906459223 -5.861999474191268e-05 -0.9999999359682422
  outer loop
    vertex 17.9999994484837 15.761584499999957 0.0035348278169544324
    vertex 15.999999448483816 10.761584499999945 0.0035348278171010708
    vertex 15.999999448483793 15.761584499999946 0.0035348278171461905
  endloop
endfacet
facet normal 0.00035302578906459223 -5.861999474191268e-05 -0.9999999359682422
  outer loop
    vertex 15.999999448483816 10.761584499999945 0.0035348278171010708
    vertex 12.001325447447488 7.049916206369744e-14 0.0035360000000131796
    vertex 11.999999448483711 10.761584499999922 2.3351294522897366e-13
  endloop
endfacet
facet normal 0.00035302578906459223 -5.861999474191268e-05 -0.9999999359682422
  outer loop
    vertex 12.001325447447488 7.049916206369744e-14 0.0035360000000131796
    vertex 15.999999448483816 10.761584499999945 0.0035348278171010708
    vertex 17.9999994484837 5.357936316841005e-14 0.0035348278166720325
  endloop
endfacet
facet normal 0.00035302578906459223 -5.861999474191268e-05 -0.9999999359682422
  outer loop
    vertex 17.9999994484837 5.357936316841005e-14 0.0035348278166720325
    vertex 15.999999448483816 10.761584499999945 0.0035348278171010708
    vertex 17.9999994484837 15.761584499999957 0.0035348278169544324
  endloop
endfacet
facet normal 3.880847058232163e-14 -2.254350280765094e-14 1.0
  outer loop
    vertex 17.999999448483766 0.0 3.003534827816565
    vertex 11.749999448483768 10.761584499999957 3.0035348278171745
    vertex 11.749999448483722 3.665956427312267e-14 3.0035348278168694
  endloop
endfacet
facet normal 3.880847058232163e-14 -2.254350280765094e-14 1.0
  outer loop
    vertex 11.749999448483768 10.761584499999957 3.0035348278171745
    vertex 17.999999448483766 0.0 3.003534827816565
    vertex 15.999999448483816 10.761584499999934 3.0035348278171066
  endloop
endfacet
facet normal 3.880847058232163e-14 -2.254350280765094e-14 1.0
  outer loop
    vertex 15.999999448483816 10.761584499999934 3.0035348278171066
    vertex 17.999999448483813 15.761584499999946 3.003534827816881
    vertex 15.999999448483793 15.761584499999934 3.003534827817152
  endloop
endfacet
facet normal 3.880847058232163e-14 -2.254350280765094e-14 1.0
  outer loop
    vertex 17.999999448483813 15.761584499999946 3.003534827816881
    vertex 15.999999448483816 10.761584499999934 3.0035348278171066
    vertex 17.999999448483766 0.0 3.003534827816565
  endloop
endfacet
facet normal 3.880847058232163e-14 -2.254350280765094e-14 1.0
  outer loop
    vertex 17.999999448483813 15.761584499999946 3.003534827816881
    vertex 17.999999448483766 0.0 3.003534827816565
    vertex 19.10157012910802 1.0923575490953357 3.0035348278166443
  endloop
endfacet
facet normal 3.880847058232163e-14 -2.254350280765094e-14 1.0
  outer loop
    vertex 17.999999448483813 15.761584499999946 3.003534827816881
    vertex 19.10157012910802 1.0923575490953357 3.0035348278166443
    vertex 19.10157012910804 14.680811450904647 3.0035348278169036
  endloop
endfacet
facet normal 3.880847058232163e-14 -2.254350280765094e-14 1.0
  outer loop
    vertex 19.10157012910804 14.680811450904647 3.0035348278169036
    vertex 19.10157012910802 1.0923575490953357 3.0035348278166443
    vertex 20.031542273971358 2.296701478686819 3.0035348278166327
  endloop
endfacet
facet normal 3.880847058232163e-14 -2.254350280765094e-14 1.0
  outer loop
    vertex 19.10157012910804 14.680811450904647 3.0035348278169036
    vertex 20.031542273971358 2.296701478686819 3.0035348278166327
    vertex 20.031542273971404 13.476467521313243 3.0035348278168246
  endloop
endfacet
facet normal 3.880847058232163e-14 -2.254350280765094e-14 1.0
  outer loop
    vertex 20.031542273971404 13.476467521313243 3.0035348278168246
    vertex 20.031542273971358 2.296701478686819 3.0035348278166327
    vertex 20.773001894535245 3.6027121279515355 3.0035348278166443
  endloop
endfacet
facet normal 3.880847058232163e-14 -2.254350280765094e-14 1.0
  outer loop
    vertex 20.031542273971404 13.476467521313243 3.0035348278168246
    vertex 20.773001894535245 3.6027121279515355 3.0035348278166443
    vertex 20.773001894535177 12.170456872048415 3.003534827816791
  endloop
endfacet
facet normal 3.880847058232163e-14 -2.254350280765094e-14 1.0
  outer loop
    vertex 20.773001894535177 12.170456872048415 3.003534827816791
    vertex 20.773001894535245 3.6027121279515355 3.0035348278166443
    vertex 21.312463598152497 10.786532740532822 3.003534827816768
  endloop
endfacet
facet normal 3.880847058232163e-14 -2.254350280765094e-14 1.0
  outer loop
    vertex 21.312463598152497 10.786532740532822 3.003534827816768
    vertex 20.773001894535245 3.6027121279515355 3.0035348278166443
    vertex 21.31246359815252 4.9866362594671285 3.0035348278166554
  endloop
endfacet
facet normal 3.880847058232163e-14 -2.254350280765094e-14 1.0
  outer loop
    vertex 21.312463598152497 10.786532740532822 3.003534827816768
    vertex 21.31246359815252 4.9866362594671285 3.0035348278166554
    vertex 21.640115855389222 9.349865425713894 3.0035348278168135
  endloop
endfacet
facet normal 3.880847058232163e-14 -2.254350280765094e-14 1.0
  outer loop
    vertex 21.640115855389222 9.349865425713894 3.0035348278168135
    vertex 21.31246359815252 4.9866362594671285 3.0035348278166554
    vertex 21.64011585538929 6.423303574286085 3.0035348278167233
  endloop
endfacet
facet normal 3.880847058232163e-14 -2.254350280765094e-14 1.0
  outer loop
    vertex 21.640115855389222 9.349865425713894 3.0035348278168135
    vertex 21.64011585538929 6.423303574286085 3.0035348278167233
    vertex 21.749999448483603 7.886584500000017 3.0035348278167007
  endloop
endfacet
facet normal -0.8319182726474862 4.008004574081026e-05 0.5548981762709377
  outer loop
    vertex 12.999999448483845 10.761584499999978 1.500000000000276
    vertex 12.001325447447488 7.049916206369744e-14 0.0035360000000131796
    vertex 12.999999448483798 7.049916206369744e-14 1.5000000000000386
  endloop
endfacet
facet normal -0.8319182726474862 4.008004574081026e-05 0.5548981762709377
  outer loop
    vertex 12.001325447447488 7.049916206369744e-14 0.0035360000000131796
    vertex 12.999999448483845 10.761584499999978 1.500000000000276
    vertex 11.999999448483711 10.761584499999922 2.3351294522897366e-13
  endloop
endfacet
facet normal 0.9971923159089627 -0.07488314291026743 -1.1811741236207473e-14
  outer loop
    vertex 21.640115855389265 6.423303574286096 0.0035348278166724358
    vertex 21.749999448483603 7.886584500000017 3.0035348278167007
    vertex 21.64011585538929 6.423303574286085 3.0035348278167233
  endloop
endfacet
facet normal 0.9971923159089627 -0.07488314291026743 -1.1811741236207473e-14
  outer loop
    vertex 21.749999448483603 7.886584500000017 3.0035348278167007
    vertex 21.640115855389265 6.423303574286096 0.0035348278166724358
    vertex 21.749999448483557 7.886584500000052 0.003534827816683716
  endloop
endfacet
facet normal 0.997192315908959 0.07488314291031703 -1.0545660966163083e-14
  outer loop
    vertex 21.749999448483557 7.886584500000052 0.003534827816683716
    vertex 21.640115855389222 9.349865425713894 3.0035348278168135
    vertex 21.749999448483603 7.886584500000017 3.0035348278167007
  endloop
endfacet
facet normal 0.997192315908959 0.07488314291031703 -1.0545660966163083e-14
  outer loop
    vertex 21.640115855389222 9.349865425713894 3.0035348278168135
    vertex 21.749999448483557 7.886584500000052 0.003534827816683716
    vertex 21.640115855389197 9.349865425713917 0.003534827816728835
  endloop
endfacet
facet normal 0.8696257864488811 0.4937114456270639 9.279246048334061e-15
  outer loop
    vertex 20.773001894535177 12.170456872048506 0.003534827816830354
    vertex 20.031542273971404 13.476467521313243 3.0035348278168246
    vertex 20.773001894535177 12.170456872048415 3.003534827816791
  endloop
endfacet
facet normal 0.8696257864488811 0.4937114456270639 9.279246048334061e-15
  outer loop
    vertex 20.031542273971404 13.476467521313243 3.0035348278168246
    vertex 20.773001894535177 12.170456872048506 0.003534827816830354
    vertex 20.031542273971404 13.476467521313266 0.0035348278168754734
  endloop
endfacet
facet normal -2.1973622959969303e-15 1.0 -1.3750238024042298e-14
  outer loop
    vertex 0.007992000000156717 10.763069782728762 0.0035348278171161186
    vertex 6.9999994484839005 10.761584499999877 1.5000000000003098
    vertex 7.999999448483887 10.761584499999877 3.124720067403148e-13
  endloop
endfacet
facet normal -2.1973622959969303e-15 1.0 -1.3750238024042298e-14
  outer loop
    vertex 6.9999994484839005 10.761584499999877 1.5000000000003098
    vertex 0.007992000000156717 10.763069782728762 0.0035348278171161186
    vertex 0.007992000000156717 10.76306978272875 3.0035348278171217
  endloop
endfacet
facet normal -2.1973622959969303e-15 1.0 -1.3750238024042298e-14
  outer loop
    vertex 6.9999994484839005 10.761584499999877 1.5000000000003098
    vertex 0.007992000000156717 10.76306978272875 3.0035348278171217
    vertex 15.999999448483816 10.761584499999934 3.0035348278171066
  endloop
endfacet
facet normal -2.1973622959969303e-15 1.0 -1.3750238024042298e-14
  outer loop
    vertex 15.999999448483816 10.761584499999934 3.0035348278171066
    vertex 0.007992000000156717 10.76306978272875 3.0035348278171217
    vertex 11.749999448483768 10.761584499999957 3.0035348278171745
  endloop
endfacet
facet normal -2.1973622959969303e-15 1.0 -1.3750238024042298e-14
  outer loop
    vertex 11.749999448483768 10.761584499999957 3.0035348278171745
    vertex 0.007992000000156717 10.76306978272875 3.0035348278171217
    vertex 8.249999448483978 10.761584499999957 3.003534827817253
  endloop
endfacet
facet normal -2.1973622959969303e-15 1.0 -1.3750238024042298e-14
  outer loop
    vertex 11.749999448483768 10.761584499999957 3.0035348278171745
    vertex 8.249999448483978 10.761584499999957 3.003534827817253
    vertex 12.749999448483878 10.761584500000025 4.2535348278171945
  endloop
endfacet
facet normal -2.1973622959969303e-15 1.0 -1.3750238024042298e-14
  outer loop
    vertex 12.749999448483878 10.761584500000025 4.2535348278171945
    vertex 8.249999448483978 10.761584499999957 3.003534827817253
    vertex 7.249999448483911 10.761584499999968 4.253534827817218
  endloop
endfacet
facet normal -2.1973622959969303e-15 1.0 -1.3750238024042298e-14
  outer loop
    vertex 12.999999448483845 10.761584499999978 1.500000000000276
    vertex 15.999999448483816 10.761584499999945 0.0035348278171010708
    vertex 11.999999448483711 10.761584499999922 2.3351294522897366e-13
  endloop
endfacet
facet normal -2.1973622959969303e-15 1.0 -1.3750238024042298e-14
  outer loop
    vertex 15.999999448483816 10.761584499999945 0.0035348278171010708
    vertex 12.999999448483845 10.761584499999978 1.500000000000276
    vertex 15.999999448483816 10.761584499999934 3.0035348278171066
  endloop
endfacet
facet normal -2.1973622959969303e-15 1.0 -1.3750238024042298e-14
  outer loop
    vertex 15.999999448483816 10.761584499999934 3.0035348278171066
    vertex 12.999999448483845 10.761584499999978 1.500000000000276
    vertex 6.9999994484839005 10.761584499999877 1.5000000000003098
  endloop
endfacet
facet normal -8.203511694279502e-15 2.18416766854514e-14 -1.0
  outer loop
    vertex 6.9999994484839005 10.761584499999877 1.5000000000003098
    vertex 12.999999448483798 7.049916206369744e-14 1.5000000000000386
    vertex 6.999999448483855 9.305889392408061e-14 1.500000000000095
  endloop
endfacet
facet normal -8.203511694279502e-15 2.18416766854514e-14 -1.0
  outer loop
    vertex 12.999999448483798 7.049916206369744e-14 1.5000000000000386
    vertex 6.9999994484839005 10.761584499999877 1.5000000000003098
    vertex 12.999999448483845 10.761584499999978 1.500000000000276
  endloop
endfacet
facet normal 0.9317157805329511 0.3631882491296677 1.0239578567481327e-14
  outer loop
    vertex 21.312463598152497 10.7865327405329 0.0035348278167852344
    vertex 20.773001894535177 12.170456872048415 3.003534827816791
    vertex 21.312463598152497 10.786532740532822 3.003534827816768
  endloop
endfacet
facet normal 0.9317157805329511 0.3631882491296677 1.0239578567481327e-14
  outer loop
    vertex 20.773001894535177 12.170456872048415 3.003534827816791
    vertex 21.312463598152497 10.7865327405329 0.0035348278167852344
    vertex 20.773001894535177 12.170456872048506 0.003534827816830354
  endloop
endfacet
facet normal 3.36202167874531e-17 -1.0 -8.913725118873903e-15
  outer loop
    vertex 17.999999448483766 0.0 3.003534827816565
    vertex 12.001325447447488 7.049916206369744e-14 0.0035360000000131796
    vertex 17.9999994484837 5.357936316841005e-14 0.0035348278166720325
  endloop
endfacet
facet normal 3.36202167874531e-17 -1.0 -8.913725118873903e-15
  outer loop
    vertex 12.001325447447488 7.049916206369744e-14 0.0035360000000131796
    vertex 17.999999448483766 0.0 3.003534827816565
    vertex 12.999999448483798 7.049916206369744e-14 1.5000000000000386
  endloop
endfacet
facet normal 3.36202167874531e-17 -1.0 -8.913725118873903e-15
  outer loop
    vertex 12.999999448483798 7.049916206369744e-14 1.5000000000000386
    vertex 17.999999448483766 0.0 3.003534827816565
    vertex 6.999999448483855 9.305889392408061e-14 1.500000000000095
  endloop
endfacet
facet normal 3.36202167874531e-17 -1.0 -8.913725118873903e-15
  outer loop
    vertex 7.999999448483909 5.921929613350585e-14 8.647113575608103e-14
    vertex 4.511946372076636e-14 0.0014852827288306951 3.0035348278168845
    vertex 0.0 0.001485282728850435 0.0
  endloop
endfacet
facet normal 3.36202167874531e-17 -1.0 -8.913725118873903e-15
  outer loop
    vertex 4.511946372076636e-14 0.0014852827288306951 3.0035348278168845
    vertex 7.999999448483909 5.921929613350585e-14 8.647113575608103e-14
    vertex 6.999999448483855 9.305889392408061e-14 1.500000000000095
  endloop
endfacet
facet normal 3.36202167874531e-17 -1.0 -8.913725118873903e-15
  outer loop
    vertex 4.511946372076636e-14 0.0014852827288306951 3.0035348278168845
    vertex 6.999999448483855 9.305889392408061e-14 1.500000000000095
    vertex 17.999999448483766 0.0 3.003534827816565
  endloop
endfacet
facet normal 3.36202167874531e-17 -1.0 -8.913725118873903e-15
  outer loop
    vertex 4.511946372076636e-14 0.0014852827288306951 3.0035348278168845
    vertex 17.999999448483766 0.0 3.003534827816565
    vertex 11.749999448483722 3.665956427312267e-14 3.0035348278168694
  endloop
endfacet
facet normal 3.36202167874531e-17 -1.0 -8.913725118873903e-15
  outer loop
    vertex 4.511946372076636e-14 0.0014852827288306951 3.0035348278168845
    vertex 11.749999448483722 3.665956427312267e-14 3.0035348278168694
    vertex 8.249999448483978 6.203926261605374e-14 3.0035348278169596
  endloop
endfacet
facet normal 3.36202167874531e-17 -1.0 -8.913725118873903e-15
  outer loop
    vertex 8.249999448483978 6.203926261605374e-14 3.0035348278169596
    vertex 11.749999448483722 3.665956427312267e-14 3.0035348278168694
    vertex 12.749999448483855 3.3839597790574766e-14 4.253534827816889
  endloop
endfacet
facet normal 3.36202167874531e-17 -1.0 -8.913725118873903e-15
  outer loop
    vertex 8.249999448483978 6.203926261605374e-14 3.0035348278169596
    vertex 12.749999448483855 3.3839597790574766e-14 4.253534827816889
    vertex 7.249999448483911 1.4099832412739488e-14 4.253534827816968
  endloop
endfacet
facet normal 0.9749658348445427 0.2223547186049441 1.0053948482432405e-16
  outer loop
    vertex 21.640115855389197 9.349865425713917 0.003534827816728835
    vertex 21.312463598152497 10.786532740532822 3.003534827816768
    vertex 21.640115855389222 9.349865425713894 3.0035348278168135
  endloop
endfacet
facet normal 0.9749658348445427 0.2223547186049441 1.0053948482432405e-16
  outer loop
    vertex 21.312463598152497 10.786532740532822 3.003534827816768
    vertex 21.640115855389197 9.349865425713917 0.003534827816728835
    vertex 21.312463598152497 10.7865327405329 0.0035348278167852344
  endloop
endfacet
facet normal 0.7914939440899504 -0.6111770091135091 -7.556046893008376e-15
  outer loop
    vertex 19.10157012910795 1.0923575490953807 0.0035348278166273165
    vertex 20.031542273971358 2.296701478686819 3.0035348278166327
    vertex 19.10157012910802 1.0923575490953357 3.0035348278166443
  endloop
endfacet
facet normal 0.7914939440899504 -0.6111770091135091 -7.556046893008376e-15
  outer loop
    vertex 20.031542273971358 2.296701478686819 3.0035348278166327
    vertex 19.10157012910795 1.0923575490953807 0.0035348278166273165
    vertex 20.031542273971404 2.296701478686819 0.003534827816683716
  endloop
endfacet
facet normal 0.7914939440899412 0.611177009113521 -4.2200021454587414e-16
  outer loop
    vertex 20.031542273971404 13.476467521313266 0.0035348278168754734
    vertex 19.10157012910804 14.680811450904647 3.0035348278169036
    vertex 20.031542273971404 13.476467521313243 3.0035348278168246
  endloop
endfacet
facet normal 0.7914939440899412 0.611177009113521 -4.2200021454587414e-16
  outer loop
    vertex 19.10157012910804 14.680811450904647 3.0035348278169036
    vertex 20.031542273971404 13.476467521313266 0.0035348278168754734
    vertex 19.10157012910795 14.680811450904738 0.003534827816852914
  endloop
endfacet
facet normal 0.7003362857837554 0.7138130615326497 -1.1625606675511948e-14
  outer loop
    vertex 17.9999994484837 15.761584499999957 0.0035348278169544324
    vertex 19.10157012910804 14.680811450904647 3.0035348278169036
    vertex 19.10157012910795 14.680811450904738 0.003534827816852914
  endloop
endfacet
facet normal 0.7003362857837554 0.7138130615326497 -1.1625606675511948e-14
  outer loop
    vertex 19.10157012910804 14.680811450904647 3.0035348278169036
    vertex 17.9999994484837 15.761584499999957 0.0035348278169544324
    vertex 17.999999448483813 15.761584499999946 3.003534827816881
  endloop
endfacet
facet normal 0.9749658348445355 -0.22235471860497572 -5.757135608677467e-15
  outer loop
    vertex 21.31246359815252 4.986636259467174 0.003534827816661156
    vertex 21.64011585538929 6.423303574286085 3.0035348278167233
    vertex 21.31246359815252 4.9866362594671285 3.0035348278166554
  endloop
endfacet
facet normal 0.9749658348445355 -0.22235471860497572 -5.757135608677467e-15
  outer loop
    vertex 21.64011585538929 6.423303574286085 3.0035348278167233
    vertex 21.31246359815252 4.986636259467174 0.003534827816661156
    vertex 21.640115855389265 6.423303574286096 0.0035348278166724358
  endloop
endfacet
facet normal -0.780868809443007 1.5774881063415503e-14 -0.6246950475544534
  outer loop
    vertex 7.249999448483911 10.761584499999968 4.253534827817218
    vertex 8.249999448483978 6.203926261605374e-14 3.0035348278169596
    vertex 7.249999448483911 1.4099832412739488e-14 4.253534827816968
  endloop
endfacet
facet normal -0.780868809443007 1.5774881063415503e-14 -0.6246950475544534
  outer loop
    vertex 8.249999448483978 6.203926261605374e-14 3.0035348278169596
    vertex 7.249999448483911 10.761584499999968 4.253534827817218
    vertex 8.249999448483978 10.761584499999957 3.003534827817253
  endloop
endfacet
facet normal 0.780868809442998 1.5289336190854275e-14 -0.6246950475544646
  outer loop
    vertex 11.749999448483722 3.665956427312267e-14 3.0035348278168694
    vertex 12.749999448483878 10.761584500000025 4.2535348278171945
    vertex 12.749999448483855 3.3839597790574766e-14 4.253534827816889
  endloop
endfacet
facet normal 0.780868809442998 1.5289336190854275e-14 -0.6246950475544646
  outer loop
    vertex 12.749999448483878 10.761584500000025 4.2535348278171945
    vertex 11.749999448483722 3.665956427312267e-14 3.0035348278168694
    vertex 11.749999448483768 10.761584499999957 3.0035348278171745
  endloop
endfacet
facet normal -0.999999724241864 0.0007426413644082974 7.52382880782164e-15
  outer loop
    vertex 0.007992000000156717 10.76306978272875 3.0035348278171217
    vertex 0.0 0.001485282728850435 0.0
    vertex 4.511946372076636e-14 0.0014852827288306951 3.0035348278168845
  endloop
endfacet
facet normal -0.999999724241864 0.0007426413644082974 7.52382880782164e-15
  outer loop
    vertex 0.0 0.001485282728850435 0.0
    vertex 0.007992000000156717 10.76306978272875 3.0035348278171217
    vertex 0.007992000000156717 10.763069782728762 0.0035348278171161186
  endloop
endfacet
facet normal -5.639932965095465e-15 1.0 3.759955310064012e-15
  outer loop
    vertex 15.999999448483793 15.761584499999946 0.0035348278171461905
    vertex 17.999999448483813 15.761584499999946 3.003534827816881
    vertex 17.9999994484837 15.761584499999957 0.0035348278169544324
  endloop
endfacet
facet normal -5.639932965095465e-15 1.0 3.759955310064012e-15
  outer loop
    vertex 17.999999448483813 15.761584499999946 3.003534827816881
    vertex 15.999999448483793 15.761584499999946 0.0035348278171461905
    vertex 15.999999448483793 15.761584499999934 3.003534827817152
  endloop
endfacet
endsolid Plate Plug 1 Extension
