solid Linear Access Control Master Key v1.2
facet normal 1.0 0.0 0.0
  outer loop
    vertex 31.25 -14.125007221686989 1.4707469999999936
    vertex 31.25 -15.075007221686976 3.270746999999989
    vertex 31.25 -15.075007221686986 1.4707469999999903
  endloop
endfacet
facet normal 1.0 0.0 0.0
  outer loop
    vertex 31.25 -15.075007221686976 3.270746999999989
    vertex 31.25 -14.125007221686989 1.4707469999999936
    vertex 31.25 -14.125007221687017 2.270747000000005
  endloop
endfacet
facet normal 1.0 0.0 0.0
  outer loop
    vertex 31.25 -14.125007221687017 2.270747000000005
    vertex 31.25 -13.625007221687023 3.2707470000000045
    vertex 31.25 -15.075007221686976 3.270746999999989
  endloop
endfacet
facet normal 1.0 0.0 0.0
  outer loop
    vertex 31.25 -13.625007221687023 3.2707470000000045
    vertex 31.25 -14.125007221687017 2.270747000000005
    vertex 31.25 -13.625007221686978 2.2707469999999828
  endloop
endfacet
facet normal 0.0 -1.0 -4.511946372076536e-14
  outer loop
    vertex 32.249999999999986 -13.625007221687023 3.2707470000000045
    vertex 31.25 -13.625007221686978 2.2707469999999828
    vertex 32.249999999999986 -13.625007221686978 2.2707469999999828
  endloop
endfacet
facet normal 0.0 -1.0 -4.511946372076536e-14
  outer loop
    vertex 31.25 -13.625007221686978 2.2707469999999828
    vertex 32.249999999999986 -13.625007221687023 3.2707470000000045
    vertex 31.25 -13.625007221687023 3.2707470000000045
  endloop
endfacet
facet normal -0.47219448239388145 0.8814943963501836 -1.235897898060818e-15
  outer loop
    vertex 41.660464000000005 -8.024635221686992 2.4707470000000122
    vertex 42.211228536685375 -7.72960444622448 1.4707470000000158
    vertex 41.660464000000005 -8.024635221687 1.4707470000000116
  endloop
endfacet
facet normal -0.47219448239388145 0.8814943963501836 -1.235897898060818e-15
  outer loop
    vertex 42.211228536685375 -7.72960444622448 1.4707470000000158
    vertex 41.660464000000005 -8.024635221686992 2.4707470000000122
    vertex 42.211228536685375 -7.729604446224483 2.4707470000000042
  endloop
endfacet
facet normal -0.4469473545562036 0.894560261947294 -6.913739843674052e-15
  outer loop
    vertex 43.660447 -8.024635221687 1.4707470000000116
    vertex 44.660447 -7.525007221686991 2.4707470000000162
    vertex 44.660447 -7.525007221686999 1.4707470000000038
  endloop
endfacet
facet normal -0.4469473545562036 0.894560261947294 -6.913739843674052e-15
  outer loop
    vertex 44.660447 -7.525007221686991 2.4707470000000162
    vertex 43.660447 -8.024635221687 1.4707470000000116
    vertex 43.660447 -8.024635221686992 2.4707470000000122
  endloop
endfacet
facet normal 0.5575189250640428 0.8301642296530455 2.9259883031696233e-15
  outer loop
    vertex 42.211228536685375 -7.729604446224483 2.4707470000000042
    vertex 42.66046380564255 -8.031300370119604 1.4707470000000167
    vertex 42.211228536685375 -7.72960444622448 1.4707470000000158
  endloop
endfacet
facet normal 0.5575189250640428 0.8301642296530455 2.9259883031696233e-15
  outer loop
    vertex 42.66046380564255 -8.031300370119604 1.4707470000000167
    vertex 42.211228536685375 -7.729604446224483 2.4707470000000042
    vertex 42.66046380564255 -8.031300370119606 2.4707470000000047
  endloop
endfacet
facet normal -1.4015605235591006e-44 1.0 -7.04991620636974e-15
  outer loop
    vertex 40.660464 -8.024635221686992 2.4707470000000122
    vertex 41.660464000000005 -8.024635221687 1.4707470000000116
    vertex 40.660464 -8.024635221687 1.4707470000000116
  endloop
endfacet
facet normal -1.4015605235591006e-44 1.0 -7.04991620636974e-15
  outer loop
    vertex 41.660464000000005 -8.024635221687 1.4707470000000116
    vertex 40.660464 -8.024635221686992 2.4707470000000122
    vertex 41.660464000000005 -8.024635221686992 2.4707470000000122
  endloop
endfacet
facet normal -0.7875162436892178 0.6162938957393823 -1.3808640226080542e-17
  outer loop
    vertex 40.54999954139009 -7.9355178754697775 2.470747000000002
    vertex 39.95000001487851 -8.702212753676925 1.4707470000000065
    vertex 39.95000001487851 -8.702212753676926 2.470747000000015
  endloop
endfacet
facet normal -0.7875162436892178 0.6162938957393823 -1.3808640226080542e-17
  outer loop
    vertex 39.95000001487851 -8.702212753676925 1.4707470000000065
    vertex 40.54999954139009 -7.9355178754697775 2.470747000000002
    vertex 40.54999954139009 -7.93551787546978 1.4707470000000153
  endloop
endfacet
facet normal -8.759745027338428e-45 1.0 2.8199664825478734e-15
  outer loop
    vertex 39.14999963838792 -8.702212753676926 2.470747000000015
    vertex 39.95000001487851 -8.702212753676925 1.4707470000000065
    vertex 39.14999963838792 -8.702212753676925 1.4707470000000065
  endloop
endfacet
facet normal -8.759745027338428e-45 1.0 2.8199664825478734e-15
  outer loop
    vertex 39.95000001487851 -8.702212753676925 1.4707470000000065
    vertex 39.14999963838792 -8.702212753676926 2.470747000000015
    vertex 39.95000001487851 -8.702212753676926 2.470747000000015
  endloop
endfacet
facet normal -0.27493112413100584 0.9614639239118968 -3.3976857759379708e-15
  outer loop
    vertex 37.549999638387916 -8.703767753676935 2.4707470000000007
    vertex 38.349999999999994 -8.475007221687 1.470747000000008
    vertex 37.549999638387916 -8.703767753676935 1.4707470000000016
  endloop
endfacet
facet normal -0.27493112413100584 0.9614639239118968 -3.3976857759379708e-15
  outer loop
    vertex 38.349999999999994 -8.475007221687 1.470747000000008
    vertex 37.549999638387916 -8.703767753676935 2.4707470000000007
    vertex 38.349999999999994 -8.475007221686994 2.4707470000000056
  endloop
endfacet
facet normal -5.763702708861649e-32 1.0 -1.4099832412739497e-15
  outer loop
    vertex 36.749999638387926 -8.703767753676935 2.4707470000000007
    vertex 37.549999638387916 -8.703767753676935 1.4707470000000016
    vertex 36.749999638387926 -8.703767753676935 1.4707470000000016
  endloop
endfacet
facet normal -5.763702708861649e-32 1.0 -1.4099832412739497e-15
  outer loop
    vertex 37.549999638387916 -8.703767753676935 1.4707470000000016
    vertex 36.749999638387926 -8.703767753676935 2.4707470000000007
    vertex 37.549999638387916 -8.703767753676935 2.4707470000000007
  endloop
endfacet
facet normal 0.6278937736584703 0.7782990485674036 -3.839911546027086e-15
  outer loop
    vertex 40.54999954139009 -7.93551787546978 1.4707470000000153
    vertex 40.660464 -8.024635221686992 2.4707470000000122
    vertex 40.660464 -8.024635221687 1.4707470000000116
  endloop
endfacet
facet normal 0.6278937736584703 0.7782990485674036 -3.839911546027086e-15
  outer loop
    vertex 40.660464 -8.024635221686992 2.4707470000000122
    vertex 40.54999954139009 -7.93551787546978 1.4707470000000153
    vertex 40.54999954139009 -7.9355178754697775 2.470747000000002
  endloop
endfacet
facet normal -1.0468359639073262e-47 1.0 -3.916620114649837e-16
  outer loop
    vertex 22.25 -6.075007221686996 3.2707470000000174
    vertex 31.25 -6.075007221686997 1.470747000000008
    vertex 22.25 -6.075007221686997 1.470747000000008
  endloop
endfacet
facet normal -1.0468359639073262e-47 1.0 -3.916620114649837e-16
  outer loop
    vertex 31.25 -6.075007221686997 1.470747000000008
    vertex 22.25 -6.075007221686996 3.2707470000000174
    vertex 31.25 -6.075007221686996 3.2707470000000174
  endloop
endfacet
facet normal 1.0 0.0 0.0
  outer loop
    vertex 31.25 -7.725007221686986 1.470747000000008
    vertex 31.25 -7.225007221687 2.470747000000009
    vertex 31.25 -7.725007221687005 2.470747000000013
  endloop
endfacet
facet normal 1.0 0.0 0.0
  outer loop
    vertex 31.25 -7.225007221687 2.470747000000009
    vertex 31.25 -7.725007221686986 1.470747000000008
    vertex 31.25 -6.075007221686997 1.470747000000008
  endloop
endfacet
facet normal 1.0 0.0 0.0
  outer loop
    vertex 31.25 -7.225007221687 2.470747000000009
    vertex 31.25 -6.075007221686997 1.470747000000008
    vertex 31.25 -7.2250072216869885 3.270747000000026
  endloop
endfacet
facet normal 1.0 0.0 0.0
  outer loop
    vertex 31.25 -7.2250072216869885 3.270747000000026
    vertex 31.25 -6.075007221686997 1.470747000000008
    vertex 31.25 -6.075007221686996 3.2707470000000174
  endloop
endfacet
facet normal 1.5780168629094247e-31 -1.0 1.4099832412739196e-14
  outer loop
    vertex 31.25 -7.2250072216869885 3.270747000000026
    vertex 28.25 -7.225007221687 2.470747000000009
    vertex 31.25 -7.225007221687 2.470747000000009
  endloop
endfacet
facet normal 1.5780168629094247e-31 -1.0 1.4099832412739196e-14
  outer loop
    vertex 28.25 -7.225007221687 2.470747000000009
    vertex 31.25 -7.2250072216869885 3.270747000000026
    vertex 28.25 -7.2250072216869885 3.270747000000026
  endloop
endfacet
facet normal 0.0 -1.0 6.266592183439777e-15
  outer loop
    vertex 31.25 -15.075007221686976 3.270746999999989
    vertex 22.25 -15.075007221686986 1.4707469999999903
    vertex 31.25 -15.075007221686986 1.4707469999999903
  endloop
endfacet
facet normal 0.0 -1.0 6.266592183439777e-15
  outer loop
    vertex 22.25 -15.075007221686986 1.4707469999999903
    vertex 31.25 -15.075007221686976 3.270746999999989
    vertex 22.25 -15.075007221686976 3.270746999999989
  endloop
endfacet
facet normal -1.0 0.0 0.0
  outer loop
    vertex 2.2499999999999987 -1.5750072216870044 4.17074700000001
    vertex 2.2499999999999987 -19.575007221686985 0.5707469999999786
    vertex 2.2499999999999987 -19.575007221686995 4.170746999999982
  endloop
endfacet
facet normal -1.0 0.0 0.0
  outer loop
    vertex 2.2499999999999987 -19.575007221686985 0.5707469999999786
    vertex 2.2499999999999987 -1.5750072216870044 4.17074700000001
    vertex 2.2499999999999987 -1.5750072216870024 0.5707470000000199
  endloop
endfacet
facet normal 0.0 -1.0 -3.1332960917198834e-15
  outer loop
    vertex 22.25 -19.575007221686995 4.170746999999982
    vertex 2.2499999999999987 -19.575007221686985 0.5707469999999786
    vertex 22.25 -19.575007221686985 0.5707469999999786
  endloop
endfacet
facet normal 0.0 -1.0 -3.1332960917198834e-15
  outer loop
    vertex 2.2499999999999987 -19.575007221686985 0.5707469999999786
    vertex 22.25 -19.575007221686995 4.170746999999982
    vertex 2.2499999999999987 -19.575007221686995 4.170746999999982
  endloop
endfacet
facet normal -4.309571592763138e-32 1.0 2.892273315433713e-15
  outer loop
    vertex 2.2499999999999987 -1.5750072216870044 4.17074700000001
    vertex 22.25 -1.5750072216870024 0.5707470000000199
    vertex 2.2499999999999987 -1.5750072216870024 0.5707470000000199
  endloop
endfacet
facet normal -4.309571592763138e-32 1.0 2.892273315433713e-15
  outer loop
    vertex 22.25 -1.5750072216870024 0.5707470000000199
    vertex 2.2499999999999987 -1.5750072216870044 4.17074700000001
    vertex 22.25 -1.5750072216870044 4.17074700000001
  endloop
endfacet
facet normal 1.0257109608911778e-31 2.291222767070169e-15 -1.0
  outer loop
    vertex 22.25 -1.5750072216870024 0.5707470000000199
    vertex 2.2499999999999987 -19.575007221686985 0.5707469999999786
    vertex 2.2499999999999987 -1.5750072216870024 0.5707470000000199
  endloop
endfacet
facet normal 1.0257109608911778e-31 2.291222767070169e-15 -1.0
  outer loop
    vertex 2.2499999999999987 -19.575007221686985 0.5707469999999786
    vertex 22.25 -1.5750072216870024 0.5707470000000199
    vertex 22.25 -19.575007221686985 0.5707469999999786
  endloop
endfacet
facet normal 3.479919211905105e-16 -3.0038211439662725e-15 1.0
  outer loop
    vertex 31.25 -15.075007221686976 3.270746999999989
    vertex 22.25 -6.075007221686996 3.2707470000000174
    vertex 22.25 -15.075007221686976 3.270746999999989
  endloop
endfacet
facet normal 3.479919211905105e-16 -3.0038211439662725e-15 1.0
  outer loop
    vertex 22.25 -6.075007221686996 3.2707470000000174
    vertex 31.25 -15.075007221686976 3.270746999999989
    vertex 28.222341000000007 -11.475007221687 3.2707470000000045
  endloop
endfacet
facet normal 3.479919211905105e-16 -3.0038211439662725e-15 1.0
  outer loop
    vertex 28.222341000000007 -11.475007221687 3.2707470000000045
    vertex 31.25 -15.075007221686976 3.270746999999989
    vertex 31.25 -13.625007221687023 3.2707470000000045
  endloop
endfacet
facet normal 3.479919211905105e-16 -3.0038211439662725e-15 1.0
  outer loop
    vertex 28.222341000000007 -11.475007221687 3.2707470000000045
    vertex 31.25 -13.625007221687023 3.2707470000000045
    vertex 32.84999999999999 -13.100007221687019 3.2707470000000116
  endloop
endfacet
facet normal 3.479919211905105e-16 -3.0038211439662725e-15 1.0
  outer loop
    vertex 28.222341000000007 -11.475007221687 3.2707470000000045
    vertex 32.84999999999999 -13.100007221687019 3.2707470000000116
    vertex 36.74999963838791 -12.304246689697058 3.2707469999999934
  endloop
endfacet
facet normal 3.479919211905105e-16 -3.0038211439662725e-15 1.0
  outer loop
    vertex 28.222341000000007 -11.475007221687 3.2707470000000045
    vertex 36.74999963838791 -12.304246689697058 3.2707469999999934
    vertex 47.04159083302067 -11.474956336555195 3.270746999999996
  endloop
endfacet
facet normal 3.479919211905105e-16 -3.0038211439662725e-15 1.0
  outer loop
    vertex 32.84999999999999 -13.100007221687019 3.2707470000000116
    vertex 31.25 -13.625007221687023 3.2707470000000045
    vertex 32.249999999999986 -13.625007221687023 3.2707470000000045
  endloop
endfacet
facet normal 3.479919211905105e-16 -3.0038211439662725e-15 1.0
  outer loop
    vertex 36.74999963838791 -12.304246689697058 3.2707469999999934
    vertex 32.84999999999999 -13.100007221687019 3.2707470000000116
    vertex 33.899999999999984 -13.100007221687019 3.2707470000000116
  endloop
endfacet
facet normal 3.479919211905105e-16 -3.0038211439662725e-15 1.0
  outer loop
    vertex 36.74999963838791 -12.304246689697058 3.2707469999999934
    vertex 33.899999999999984 -13.100007221687019 3.2707470000000116
    vertex 35.19999999999998 -13.101379221687013 3.270747000000002
  endloop
endfacet
facet normal 3.479919211905105e-16 -3.0038211439662725e-15 1.0
  outer loop
    vertex 35.19999999999998 -13.101379221687013 3.270747000000002
    vertex 33.899999999999984 -13.100007221687019 3.2707470000000116
    vertex 34.54999999999998 -13.625007221687023 3.270746999999996
  endloop
endfacet
facet normal 3.479919211905105e-16 -3.0038211439662725e-15 1.0
  outer loop
    vertex 36.74999963838791 -12.304246689697058 3.2707469999999934
    vertex 35.19999999999998 -13.101379221687013 3.270747000000002
    vertex 36.15 -13.101379221687013 3.270747000000002
  endloop
endfacet
facet normal 3.479919211905105e-16 -3.0038211439662725e-15 1.0
  outer loop
    vertex 47.04159083302067 -11.474956336555195 3.270746999999996
    vertex 36.74999963838791 -12.304246689697058 3.2707469999999934
    vertex 37.54999963838791 -12.304246689697058 3.2707469999999934
  endloop
endfacet
facet normal 3.479919211905105e-16 -3.0038211439662725e-15 1.0
  outer loop
    vertex 47.04159083302067 -11.474956336555195 3.270746999999996
    vertex 37.54999963838791 -12.304246689697058 3.2707469999999934
    vertex 39.149999638387904 -12.305801689697057 3.270747000000002
  endloop
endfacet
facet normal 3.479919211905105e-16 -3.0038211439662725e-15 1.0
  outer loop
    vertex 39.149999638387904 -12.305801689697057 3.270747000000002
    vertex 37.54999963838791 -12.304246689697058 3.2707469999999934
    vertex 38.34999999999999 -12.643458221686998 3.270746999999996
  endloop
endfacet
facet normal 3.479919211905105e-16 -3.0038211439662725e-15 1.0
  outer loop
    vertex 47.04159083302067 -11.474956336555195 3.270746999999996
    vertex 39.149999638387904 -12.305801689697057 3.270747000000002
    vertex 39.9500000148785 -12.305801689697057 3.270747000000002
  endloop
endfacet
facet normal 3.479919211905105e-16 -3.0038211439662725e-15 1.0
  outer loop
    vertex 47.04159083302067 -11.474956336555195 3.270746999999996
    vertex 39.9500000148785 -12.305801689697057 3.270747000000002
    vertex 40.66046399999999 -13.025007221687007 3.2707469999999947
  endloop
endfacet
facet normal 3.479919211905105e-16 -3.0038211439662725e-15 1.0
  outer loop
    vertex 40.66046399999999 -13.025007221687007 3.2707469999999947
    vertex 39.9500000148785 -12.305801689697057 3.270747000000002
    vertex 40.549999541390086 -13.12248756790422 3.2707470000000076
  endloop
endfacet
facet normal 3.479919211905105e-16 -3.0038211439662725e-15 1.0
  outer loop
    vertex 47.04159083302067 -11.474956336555195 3.270746999999996
    vertex 40.66046399999999 -13.025007221687007 3.2707469999999947
    vertex 41.66046399999999 -13.025007221687007 3.2707469999999947
  endloop
endfacet
facet normal 3.479919211905105e-16 -3.0038211439662725e-15 1.0
  outer loop
    vertex 47.04159083302067 -11.474956336555195 3.270746999999996
    vertex 41.66046399999999 -13.025007221687007 3.2707469999999947
    vertex 42.660463805642536 -13.018342073254388 3.2707469999999974
  endloop
endfacet
facet normal 3.479919211905105e-16 -3.0038211439662725e-15 1.0
  outer loop
    vertex 42.660463805642536 -13.018342073254388 3.2707469999999974
    vertex 41.66046399999999 -13.025007221687007 3.2707469999999947
    vertex 42.209196325084285 -13.311930669600955 3.270746999999989
  endloop
endfacet
facet normal 3.479919211905105e-16 -3.0038211439662725e-15 1.0
  outer loop
    vertex 47.04159083302067 -11.474956336555195 3.270746999999996
    vertex 42.660463805642536 -13.018342073254388 3.2707469999999974
    vertex 43.66044699999999 -13.025007221687007 3.2707469999999947
  endloop
endfacet
facet normal 3.479919211905105e-16 -3.0038211439662725e-15 1.0
  outer loop
    vertex 47.04159083302067 -11.474956336555195 3.270746999999996
    vertex 43.66044699999999 -13.025007221687007 3.2707469999999947
    vertex 44.660446999999984 -13.825007221686972 3.270746999999985
  endloop
endfacet
facet normal 3.479919211905105e-16 -3.0038211439662725e-15 1.0
  outer loop
    vertex 47.04159083302067 -11.474956336555195 3.270746999999996
    vertex 44.660446999999984 -13.825007221686972 3.270746999999985
    vertex 46.53845637704918 -12.125007221686996 3.270746999999992
  endloop
endfacet
facet normal 3.479919211905105e-16 -3.0038211439662725e-15 1.0
  outer loop
    vertex 47.04159083302067 -11.474956336555195 3.270746999999996
    vertex 46.53845637704918 -12.125007221686996 3.270746999999992
    vertex 47.03606557377049 -11.706562221687 3.2707469999999974
  endloop
endfacet
facet normal 3.479919211905105e-16 -3.0038211439662725e-15 1.0
  outer loop
    vertex 47.03606557377049 -9.975007221686994 3.2707470000000045
    vertex 28.25 -9.12500722168699 3.2707470000000076
    vertex 28.227951999999988 -9.975007221686994 3.2707470000000045
  endloop
endfacet
facet normal 3.479919211905105e-16 -3.0038211439662725e-15 1.0
  outer loop
    vertex 28.25 -9.12500722168699 3.2707470000000076
    vertex 47.03606557377049 -9.975007221686994 3.2707470000000045
    vertex 46.55655737704918 -9.12500722168699 3.2707470000000076
  endloop
endfacet
facet normal 3.479919211905105e-16 -3.0038211439662725e-15 1.0
  outer loop
    vertex 46.55655737704918 -9.12500722168699 3.2707470000000076
    vertex 47.03606557377049 -9.975007221686994 3.2707470000000045
    vertex 47.03606557377049 -9.675007221686998 3.270747000000009
  endloop
endfacet
facet normal 3.479919211905105e-16 -3.0038211439662725e-15 1.0
  outer loop
    vertex 22.25 -6.075007221686996 3.2707470000000174
    vertex 28.25 -7.2250072216869885 3.270747000000026
    vertex 31.25 -6.075007221686996 3.2707470000000174
  endloop
endfacet
facet normal 3.479919211905105e-16 -3.0038211439662725e-15 1.0
  outer loop
    vertex 28.25 -7.2250072216869885 3.270747000000026
    vertex 22.25 -6.075007221686996 3.2707470000000174
    vertex 28.227951999999988 -9.975007221686994 3.2707470000000045
  endloop
endfacet
facet normal 3.479919211905105e-16 -3.0038211439662725e-15 1.0
  outer loop
    vertex 28.227951999999988 -9.975007221686994 3.2707470000000045
    vertex 22.25 -6.075007221686996 3.2707470000000174
    vertex 28.222341000000007 -11.475007221687 3.2707470000000045
  endloop
endfacet
facet normal 3.479919211905105e-16 -3.0038211439662725e-15 1.0
  outer loop
    vertex 28.25 -7.2250072216869885 3.270747000000026
    vertex 28.227951999999988 -9.975007221686994 3.2707470000000045
    vertex 28.25 -9.12500722168699 3.2707470000000076
  endloop
endfacet
facet normal 3.479919211905105e-16 -3.0038211439662725e-15 1.0
  outer loop
    vertex 31.25 -6.075007221686996 3.2707470000000174
    vertex 28.25 -7.2250072216869885 3.270747000000026
    vertex 31.25 -7.2250072216869885 3.270747000000026
  endloop
endfacet
facet normal 6.142590279221022e-18 -1.0 6.864208341476309e-15
  outer loop
    vertex 46.53845637704918 -12.125007221686994 2.2707470000000005
    vertex 28.25 -12.125007221687 1.4707470000000056
    vertex 46.53845637704918 -12.125007221687 1.4707470000000056
  endloop
endfacet
facet normal 6.142590279221022e-18 -1.0 6.864208341476309e-15
  outer loop
    vertex 28.25 -12.125007221687 1.4707470000000056
    vertex 46.53845637704918 -12.125007221686994 2.2707470000000005
    vertex 28.25 -12.125007221686996 2.270747000000012
  endloop
endfacet
facet normal 1.0 -0.0 -0.0
  outer loop
    vertex 28.25 -14.125007221686989 1.4707469999999936
    vertex 28.25 -12.125007221686996 2.270747000000012
    vertex 28.25 -14.125007221687017 2.270747000000005
  endloop
endfacet
facet normal 1.0 -0.0 -0.0
  outer loop
    vertex 28.25 -12.125007221686996 2.270747000000012
    vertex 28.25 -14.125007221686989 1.4707469999999936
    vertex 28.25 -12.125007221687 1.4707470000000056
  endloop
endfacet
facet normal 0.27320243903630026 0.9619565620674442 -1.3416634793487302e-15
  outer loop
    vertex 38.349999999999994 -8.475007221687 1.470747000000008
    vertex 39.14999963838792 -8.702212753676926 2.470747000000015
    vertex 39.14999963838792 -8.702212753676925 1.4707470000000065
  endloop
endfacet
facet normal 0.27320243903630026 0.9619565620674442 -1.3416634793487302e-15
  outer loop
    vertex 39.14999963838792 -8.702212753676926 2.470747000000015
    vertex 38.349999999999994 -8.475007221687 1.470747000000008
    vertex 38.349999999999994 -8.475007221686994 2.4707470000000056
  endloop
endfacet
facet normal -0.006665112397107629 0.999977787891678 -2.1151827960625614e-15
  outer loop
    vertex 42.66046380564255 -8.031300370119604 1.4707470000000167
    vertex 43.660447 -8.024635221686992 2.4707470000000122
    vertex 43.660447 -8.024635221687 1.4707470000000116
  endloop
endfacet
facet normal -0.006665112397107629 0.999977787891678 -2.1151827960625614e-15
  outer loop
    vertex 43.660447 -8.024635221686992 2.4707470000000122
    vertex 42.66046380564255 -8.031300370119604 1.4707470000000167
    vertex 42.66046380564255 -8.031300370119606 2.4707470000000047
  endloop
endfacet
facet normal 0.4983488272617858 0.866976612352838 3.0549790633175052e-15
  outer loop
    vertex 34.54999999999999 -7.725007221686986 1.470747000000008
    vertex 35.19999999999999 -8.098635221686983 2.470747000000015
    vertex 35.19999999999999 -8.098635221686997 1.4707470000000038
  endloop
endfacet
facet normal 0.4983488272617858 0.866976612352838 3.0549790633175052e-15
  outer loop
    vertex 35.19999999999999 -8.098635221686983 2.470747000000015
    vertex 34.54999999999999 -7.725007221686986 1.470747000000008
    vertex 34.54999999999999 -7.725007221687007 2.4707470000000096
  endloop
endfacet
facet normal 0.7101120463046547 0.7040886887978075 -4.971475567131061e-15
  outer loop
    vertex 36.150000000000006 -8.098635221686996 1.4707470000000027
    vertex 36.749999638387926 -8.703767753676935 2.4707470000000007
    vertex 36.749999638387926 -8.703767753676935 1.4707470000000016
  endloop
endfacet
facet normal 0.7101120463046547 0.7040886887978075 -4.971475567131061e-15
  outer loop
    vertex 36.749999638387926 -8.703767753676935 2.4707470000000007
    vertex 36.150000000000006 -8.098635221686996 1.4707470000000027
    vertex 36.150000000000006 -8.098635221686983 2.470747000000015
  endloop
endfacet
facet normal -7.420964427757579e-16 1.0 -1.3394840792102357e-14
  outer loop
    vertex 35.19999999999999 -8.098635221686997 1.4707470000000038
    vertex 36.150000000000006 -8.098635221686983 2.470747000000015
    vertex 36.150000000000006 -8.098635221686996 1.4707470000000027
  endloop
endfacet
facet normal -7.420964427757579e-16 1.0 -1.3394840792102357e-14
  outer loop
    vertex 36.150000000000006 -8.098635221686983 2.470747000000015
    vertex 35.19999999999999 -8.098635221686997 1.4707470000000038
    vertex 35.19999999999999 -8.098635221686983 2.470747000000015
  endloop
endfacet
facet normal 4.699944137580079e-16 1.0 2.0444756998472183e-14
  outer loop
    vertex 31.25 -7.725007221687005 2.470747000000013
    vertex 32.25 -7.725007221686986 1.470747000000008
    vertex 31.25 -7.725007221686986 1.470747000000008
  endloop
endfacet
facet normal 4.699944137580079e-16 1.0 2.0444756998472183e-14
  outer loop
    vertex 32.25 -7.725007221686986 1.470747000000008
    vertex 31.25 -7.725007221687005 2.470747000000013
    vertex 32.25 -7.725007221687007 2.4707470000000096
  endloop
endfacet
facet normal 0.38885367925046344 -0.9212995257425122 -1.957754150817774e-15
  outer loop
    vertex 39.149999638387904 -12.305801689697066 2.270747000000003
    vertex 38.34999999999999 -12.643458221686998 3.270746999999996
    vertex 38.34999999999999 -12.643458221686984 2.270746999999998
  endloop
endfacet
facet normal 0.38885367925046344 -0.9212995257425122 -1.957754150817774e-15
  outer loop
    vertex 38.34999999999999 -12.643458221686998 3.270746999999996
    vertex 39.149999638387904 -12.305801689697066 2.270747000000003
    vertex 39.149999638387904 -12.305801689697057 3.270747000000002
  endloop
endfacet
facet normal -0.006665112397108333 -0.999977787891678 -8.459720735024482e-15
  outer loop
    vertex 43.66044699999999 -13.025007221687007 3.2707469999999947
    vertex 42.660463805642536 -13.018342073254388 2.2707469999999996
    vertex 43.66044699999999 -13.025007221686991 2.2707469999999987
  endloop
endfacet
facet normal -0.006665112397108333 -0.999977787891678 -8.459720735024482e-15
  outer loop
    vertex 42.660463805642536 -13.018342073254388 2.2707469999999996
    vertex 43.66044699999999 -13.025007221687007 3.2707469999999947
    vertex 42.660463805642536 -13.018342073254388 3.2707469999999974
  endloop
endfacet
facet normal 1.49085662339801e-43 -1.0 -3.383959779057476e-14
  outer loop
    vertex 36.15 -13.101379221687013 3.270747000000002
    vertex 35.19999999999998 -13.10137922168698 2.2707470000000014
    vertex 36.15 -13.10137922168698 2.2707470000000014
  endloop
endfacet
facet normal 1.49085662339801e-43 -1.0 -3.383959779057476e-14
  outer loop
    vertex 35.19999999999998 -13.10137922168698 2.2707470000000014
    vertex 36.15 -13.101379221687013 3.270747000000002
    vertex 35.19999999999998 -13.101379221687013 3.270747000000002
  endloop
endfacet
facet normal 0.6273418088787425 -0.7787440239467314 -3.0735168668079916e-14
  outer loop
    vertex 35.19999999999998 -13.10137922168698 2.2707470000000014
    vertex 34.54999999999998 -13.625007221687023 3.270746999999996
    vertex 34.54999999999998 -13.625007221686978 2.2707469999999828
  endloop
endfacet
facet normal 0.6273418088787425 -0.7787440239467314 -3.0735168668079916e-14
  outer loop
    vertex 34.54999999999998 -13.625007221687023 3.270746999999996
    vertex 35.19999999999998 -13.10137922168698 2.2707470000000014
    vertex 35.19999999999998 -13.101379221687013 3.270747000000002
  endloop
endfacet
facet normal 0.798964324243262 -0.6013784237786617 -1.1877357396213665e-14
  outer loop
    vertex 36.15 -13.10137922168698 2.2707470000000014
    vertex 36.74999963838791 -12.304246689697058 3.2707469999999934
    vertex 36.15 -13.101379221687013 3.270747000000002
  endloop
endfacet
facet normal 0.798964324243262 -0.6013784237786617 -1.1877357396213665e-14
  outer loop
    vertex 36.74999963838791 -12.304246689697058 3.2707469999999934
    vertex 36.15 -13.10137922168698 2.2707470000000014
    vertex 36.74999963838791 -12.30424668969705 2.270747000000001
  endloop
endfacet
facet normal 0.6616663119987793 -0.7497984339580431 -1.056691773361778e-14
  outer loop
    vertex 40.66046399999999 -13.025007221686991 2.2707469999999987
    vertex 40.549999541390086 -13.12248756790422 3.2707470000000076
    vertex 40.549999541390086 -13.122487567904209 2.270746999999994
  endloop
endfacet
facet normal 0.6616663119987793 -0.7497984339580431 -1.056691773361778e-14
  outer loop
    vertex 40.549999541390086 -13.12248756790422 3.2707470000000076
    vertex 40.66046399999999 -13.025007221686991 2.2707469999999987
    vertex 40.66046399999999 -13.025007221687007 3.2707469999999947
  endloop
endfacet
facet normal 0.0 -1.0 -5.639932965095837e-15
  outer loop
    vertex 37.54999963838791 -12.304246689697058 3.2707469999999934
    vertex 36.74999963838791 -12.30424668969705 2.270747000000001
    vertex 37.54999963838791 -12.30424668969705 2.270747000000001
  endloop
endfacet
facet normal 0.0 -1.0 -5.639932965095837e-15
  outer loop
    vertex 36.74999963838791 -12.30424668969705 2.270747000000001
    vertex 37.54999963838791 -12.304246689697058 3.2707469999999934
    vertex 36.74999963838791 -12.304246689697058 3.2707469999999934
  endloop
endfacet
facet normal -0.39037179030643526 -0.920657300700401 -9.080187582833508e-15
  outer loop
    vertex 38.34999999999999 -12.643458221686998 3.270746999999996
    vertex 37.54999963838791 -12.30424668969705 2.270747000000001
    vertex 38.34999999999999 -12.643458221686984 2.270746999999998
  endloop
endfacet
facet normal -0.39037179030643526 -0.920657300700401 -9.080187582833508e-15
  outer loop
    vertex 37.54999963838791 -12.30424668969705 2.270747000000001
    vertex 38.34999999999999 -12.643458221686998 3.270746999999996
    vertex 37.54999963838791 -12.304246689697058 3.2707469999999934
  endloop
endfacet
facet normal 3.06591075956848e-44 -1.0 9.869882688917655e-15
  outer loop
    vertex 39.9500000148785 -12.305801689697057 3.270747000000002
    vertex 39.149999638387904 -12.305801689697066 2.270747000000003
    vertex 39.9500000148785 -12.305801689697066 2.270747000000003
  endloop
endfacet
facet normal 3.06591075956848e-44 -1.0 9.869882688917655e-15
  outer loop
    vertex 39.149999638387904 -12.305801689697066 2.270747000000003
    vertex 39.9500000148785 -12.305801689697057 3.270747000000002
    vertex 39.149999638387904 -12.305801689697057 3.270747000000002
  endloop
endfacet
facet normal -0.8058886814262217 -0.5920670850073545 -4.265310561975816e-16
  outer loop
    vertex 39.9500000148785 -12.305801689697057 3.270747000000002
    vertex 40.549999541390086 -13.122487567904209 2.270746999999994
    vertex 40.549999541390086 -13.12248756790422 3.2707470000000076
  endloop
endfacet
facet normal -0.8058886814262217 -0.5920670850073545 -4.265310561975816e-16
  outer loop
    vertex 40.549999541390086 -13.122487567904209 2.270746999999994
    vertex 39.9500000148785 -12.305801689697057 3.270747000000002
    vertex 39.9500000148785 -12.305801689697066 2.270747000000003
  endloop
endfacet
facet normal 0.0 -1.0 -1.6919798895287453e-14
  outer loop
    vertex 41.66046399999999 -13.025007221687007 3.2707469999999947
    vertex 40.66046399999999 -13.025007221686991 2.2707469999999987
    vertex 41.66046399999999 -13.025007221686991 2.2707469999999987
  endloop
endfacet
facet normal 0.0 -1.0 -1.6919798895287453e-14
  outer loop
    vertex 40.66046399999999 -13.025007221686991 2.2707469999999987
    vertex 41.66046399999999 -13.025007221687007 3.2707469999999947
    vertex 40.66046399999999 -13.025007221687007 3.2707469999999947
  endloop
endfacet
facet normal 0.6585046078685121 -0.752576694706883 -2.335638713790205e-14
  outer loop
    vertex 32.84999999999999 -13.100007221687001 2.270747000000004
    vertex 32.249999999999986 -13.625007221687023 3.2707470000000045
    vertex 32.249999999999986 -13.625007221686978 2.2707469999999828
  endloop
endfacet
facet normal 0.6585046078685121 -0.752576694706883 -2.335638713790205e-14
  outer loop
    vertex 32.249999999999986 -13.625007221687023 3.2707470000000045
    vertex 32.84999999999999 -13.100007221687001 2.270747000000004
    vertex 32.84999999999999 -13.100007221687019 3.2707470000000116
  endloop
endfacet
facet normal 0.0 -1.0 -1.6919798895287257e-14
  outer loop
    vertex 33.899999999999984 -13.100007221687019 3.2707470000000116
    vertex 32.84999999999999 -13.100007221687001 2.270747000000004
    vertex 33.899999999999984 -13.100007221687001 2.270747000000004
  endloop
endfacet
facet normal 0.0 -1.0 -1.6919798895287257e-14
  outer loop
    vertex 32.84999999999999 -13.100007221687001 2.270747000000004
    vertex 33.899999999999984 -13.100007221687019 3.2707470000000116
    vertex 32.84999999999999 -13.100007221687019 3.2707470000000116
  endloop
endfacet
facet normal -0.6283371070876151 -0.7779411802037264 -2.4151166463920432e-14
  outer loop
    vertex 34.54999999999998 -13.625007221687023 3.270746999999996
    vertex 33.899999999999984 -13.100007221687001 2.270747000000004
    vertex 34.54999999999998 -13.625007221686978 2.2707469999999828
  endloop
endfacet
facet normal -0.6283371070876151 -0.7779411802037264 -2.4151166463920432e-14
  outer loop
    vertex 33.899999999999984 -13.100007221687001 2.270747000000004
    vertex 34.54999999999998 -13.625007221687023 3.270746999999996
    vertex 33.899999999999984 -13.100007221687019 3.2707470000000116
  endloop
endfacet
facet normal 0.5453339894896325 -0.8382188496492556 7.096973227833956e-15
  outer loop
    vertex 42.660463805642536 -13.018342073254388 2.2707469999999996
    vertex 42.209196325084285 -13.311930669600955 3.270746999999989
    vertex 42.209196325084285 -13.31193066960097 2.270746999999971
  endloop
endfacet
facet normal 0.5453339894896325 -0.8382188496492556 7.096973227833956e-15
  outer loop
    vertex 42.209196325084285 -13.311930669600955 3.270746999999989
    vertex 42.660463805642536 -13.018342073254388 2.2707469999999996
    vertex 42.660463805642536 -13.018342073254388 3.2707469999999974
  endloop
endfacet
facet normal -0.624695047554411 -0.7808688094430412 -8.78844069621586e-15
  outer loop
    vertex 44.660446999999984 -13.825007221686972 3.270746999999985
    vertex 43.66044699999999 -13.025007221686991 2.2707469999999987
    vertex 44.660446999999984 -13.825007221686967 2.2707469999999965
  endloop
endfacet
facet normal -0.624695047554411 -0.7808688094430412 -8.78844069621586e-15
  outer loop
    vertex 43.66044699999999 -13.025007221686991 2.2707469999999987
    vertex 44.660446999999984 -13.825007221686972 3.270746999999985
    vertex 43.66044699999999 -13.025007221687007 3.2707469999999947
  endloop
endfacet
facet normal -0.4633634071575434 -0.8861683547201133 -1.429791942526814e-17
  outer loop
    vertex 42.209196325084285 -13.311930669600955 3.270746999999989
    vertex 41.66046399999999 -13.025007221686991 2.2707469999999987
    vertex 42.209196325084285 -13.31193066960097 2.270746999999971
  endloop
endfacet
facet normal -0.4633634071575434 -0.8861683547201133 -1.429791942526814e-17
  outer loop
    vertex 41.66046399999999 -13.025007221686991 2.2707469999999987
    vertex 42.209196325084285 -13.311930669600955 3.270746999999989
    vertex 41.66046399999999 -13.025007221687007 3.2707469999999947
  endloop
endfacet
facet normal 0.6710975221234069 -0.741369082036622 -2.5963233934318953e-15
  outer loop
    vertex 46.53845637704918 -12.125007221686994 2.2707470000000005
    vertex 44.660446999999984 -13.825007221686972 3.270746999999985
    vertex 44.660446999999984 -13.825007221686967 2.2707469999999965
  endloop
endfacet
facet normal 0.6710975221234069 -0.741369082036622 -2.5963233934318953e-15
  outer loop
    vertex 44.660446999999984 -13.825007221686972 3.270746999999985
    vertex 46.53845637704918 -12.125007221686994 2.2707470000000005
    vertex 46.53845637704918 -12.125007221686996 3.270746999999992
  endloop
endfacet
facet normal -0.49972245348959066 0.8661855860485926 5.517029403751258e-15
  outer loop
    vertex 33.89999999999999 -8.100007221687004 2.4707470000000025
    vertex 34.54999999999999 -7.725007221686986 1.470747000000008
    vertex 33.89999999999999 -8.100007221687013 1.4707470000000058
  endloop
endfacet
facet normal -0.49972245348959066 0.8661855860485926 5.517029403751258e-15
  outer loop
    vertex 34.54999999999999 -7.725007221686986 1.470747000000008
    vertex 33.89999999999999 -8.100007221687004 2.4707470000000025
    vertex 34.54999999999999 -7.725007221687007 2.4707470000000096
  endloop
endfacet
facet normal -0.0 1.0 -8.45989944764372e-15
  outer loop
    vertex 32.849999999999994 -8.100007221687004 2.4707470000000025
    vertex 33.89999999999999 -8.100007221687013 1.4707470000000058
    vertex 32.849999999999994 -8.100007221687013 1.4707470000000058
  endloop
endfacet
facet normal -0.0 1.0 -8.45989944764372e-15
  outer loop
    vertex 33.89999999999999 -8.100007221687013 1.4707470000000058
    vertex 32.849999999999994 -8.100007221687004 2.4707470000000025
    vertex 33.89999999999999 -8.100007221687004 2.4707470000000025
  endloop
endfacet
facet normal 0.5299989400031937 0.8479983040050795 5.3940591031647554e-15
  outer loop
    vertex 32.25 -7.725007221686986 1.470747000000008
    vertex 32.849999999999994 -8.100007221687004 2.4707470000000025
    vertex 32.849999999999994 -8.100007221687013 1.4707470000000058
  endloop
endfacet
facet normal 0.5299989400031937 0.8479983040050795 5.3940591031647554e-15
  outer loop
    vertex 32.849999999999994 -8.100007221687004 2.4707470000000025
    vertex 32.25 -7.725007221686986 1.470747000000008
    vertex 32.25 -7.725007221687007 2.4707470000000096
  endloop
endfacet
facet normal 1.1212484188472725e-44 1.0 3.524958103184821e-14
  outer loop
    vertex 28.25 -14.125007221687017 2.270747000000005
    vertex 31.25 -14.125007221686989 1.4707469999999936
    vertex 28.25 -14.125007221686989 1.4707469999999936
  endloop
endfacet
facet normal 1.1212484188472725e-44 1.0 3.524958103184821e-14
  outer loop
    vertex 31.25 -14.125007221686989 1.4707469999999936
    vertex 28.25 -14.125007221687017 2.270747000000005
    vertex 31.25 -14.125007221687017 2.270747000000005
  endloop
endfacet
facet normal 1.0 -0.0 -0.0
  outer loop
    vertex 28.25 -7.225007221687 2.470747000000009
    vertex 28.25 -9.12500722168699 3.2707470000000076
    vertex 28.25 -9.12500722168699 2.4707470000000074
  endloop
endfacet
facet normal 1.0 -0.0 -0.0
  outer loop
    vertex 28.25 -9.12500722168699 3.2707470000000076
    vertex 28.25 -7.225007221687 2.470747000000009
    vertex 28.25 -7.2250072216869885 3.270747000000026
  endloop
endfacet
facet normal -5.498398656375378e-16 7.246456378648681e-15 -1.0
  outer loop
    vertex 28.25 -12.125007221686996 2.270747000000012
    vertex 32.84999999999999 -13.100007221687001 2.270747000000004
    vertex 28.25 -14.125007221687017 2.270747000000005
  endloop
endfacet
facet normal -5.498398656375378e-16 7.246456378648681e-15 -1.0
  outer loop
    vertex 32.84999999999999 -13.100007221687001 2.270747000000004
    vertex 28.25 -12.125007221686996 2.270747000000012
    vertex 36.74999963838791 -12.30424668969705 2.270747000000001
  endloop
endfacet
facet normal -5.498398656375378e-16 7.246456378648681e-15 -1.0
  outer loop
    vertex 36.74999963838791 -12.30424668969705 2.270747000000001
    vertex 28.25 -12.125007221686996 2.270747000000012
    vertex 46.53845637704918 -12.125007221686994 2.2707470000000005
  endloop
endfacet
facet normal -5.498398656375378e-16 7.246456378648681e-15 -1.0
  outer loop
    vertex 28.25 -14.125007221687017 2.270747000000005
    vertex 32.84999999999999 -13.100007221687001 2.270747000000004
    vertex 31.25 -13.625007221686978 2.2707469999999828
  endloop
endfacet
facet normal -5.498398656375378e-16 7.246456378648681e-15 -1.0
  outer loop
    vertex 31.25 -13.625007221686978 2.2707469999999828
    vertex 32.84999999999999 -13.100007221687001 2.270747000000004
    vertex 32.249999999999986 -13.625007221686978 2.2707469999999828
  endloop
endfacet
facet normal -5.498398656375378e-16 7.246456378648681e-15 -1.0
  outer loop
    vertex 32.84999999999999 -13.100007221687001 2.270747000000004
    vertex 36.74999963838791 -12.30424668969705 2.270747000000001
    vertex 33.899999999999984 -13.100007221687001 2.270747000000004
  endloop
endfacet
facet normal -5.498398656375378e-16 7.246456378648681e-15 -1.0
  outer loop
    vertex 33.899999999999984 -13.100007221687001 2.270747000000004
    vertex 36.74999963838791 -12.30424668969705 2.270747000000001
    vertex 35.19999999999998 -13.10137922168698 2.2707470000000014
  endloop
endfacet
facet normal -5.498398656375378e-16 7.246456378648681e-15 -1.0
  outer loop
    vertex 33.899999999999984 -13.100007221687001 2.270747000000004
    vertex 35.19999999999998 -13.10137922168698 2.2707470000000014
    vertex 34.54999999999998 -13.625007221686978 2.2707469999999828
  endloop
endfacet
facet normal -5.498398656375378e-16 7.246456378648681e-15 -1.0
  outer loop
    vertex 35.19999999999998 -13.10137922168698 2.2707470000000014
    vertex 36.74999963838791 -12.30424668969705 2.270747000000001
    vertex 36.15 -13.10137922168698 2.2707470000000014
  endloop
endfacet
facet normal -5.498398656375378e-16 7.246456378648681e-15 -1.0
  outer loop
    vertex 36.74999963838791 -12.30424668969705 2.270747000000001
    vertex 46.53845637704918 -12.125007221686994 2.2707470000000005
    vertex 37.54999963838791 -12.30424668969705 2.270747000000001
  endloop
endfacet
facet normal -5.498398656375378e-16 7.246456378648681e-15 -1.0
  outer loop
    vertex 37.54999963838791 -12.30424668969705 2.270747000000001
    vertex 46.53845637704918 -12.125007221686994 2.2707470000000005
    vertex 39.149999638387904 -12.305801689697066 2.270747000000003
  endloop
endfacet
facet normal -5.498398656375378e-16 7.246456378648681e-15 -1.0
  outer loop
    vertex 37.54999963838791 -12.30424668969705 2.270747000000001
    vertex 39.149999638387904 -12.305801689697066 2.270747000000003
    vertex 38.34999999999999 -12.643458221686984 2.270746999999998
  endloop
endfacet
facet normal -5.498398656375378e-16 7.246456378648681e-15 -1.0
  outer loop
    vertex 39.149999638387904 -12.305801689697066 2.270747000000003
    vertex 46.53845637704918 -12.125007221686994 2.2707470000000005
    vertex 39.9500000148785 -12.305801689697066 2.270747000000003
  endloop
endfacet
facet normal -5.498398656375378e-16 7.246456378648681e-15 -1.0
  outer loop
    vertex 39.9500000148785 -12.305801689697066 2.270747000000003
    vertex 46.53845637704918 -12.125007221686994 2.2707470000000005
    vertex 40.66046399999999 -13.025007221686991 2.2707469999999987
  endloop
endfacet
facet normal -5.498398656375378e-16 7.246456378648681e-15 -1.0
  outer loop
    vertex 39.9500000148785 -12.305801689697066 2.270747000000003
    vertex 40.66046399999999 -13.025007221686991 2.2707469999999987
    vertex 40.549999541390086 -13.122487567904209 2.270746999999994
  endloop
endfacet
facet normal -5.498398656375378e-16 7.246456378648681e-15 -1.0
  outer loop
    vertex 40.66046399999999 -13.025007221686991 2.2707469999999987
    vertex 46.53845637704918 -12.125007221686994 2.2707470000000005
    vertex 41.66046399999999 -13.025007221686991 2.2707469999999987
  endloop
endfacet
facet normal -5.498398656375378e-16 7.246456378648681e-15 -1.0
  outer loop
    vertex 41.66046399999999 -13.025007221686991 2.2707469999999987
    vertex 46.53845637704918 -12.125007221686994 2.2707470000000005
    vertex 42.660463805642536 -13.018342073254388 2.2707469999999996
  endloop
endfacet
facet normal -5.498398656375378e-16 7.246456378648681e-15 -1.0
  outer loop
    vertex 41.66046399999999 -13.025007221686991 2.2707469999999987
    vertex 42.660463805642536 -13.018342073254388 2.2707469999999996
    vertex 42.209196325084285 -13.31193066960097 2.270746999999971
  endloop
endfacet
facet normal -5.498398656375378e-16 7.246456378648681e-15 -1.0
  outer loop
    vertex 42.660463805642536 -13.018342073254388 2.2707469999999996
    vertex 46.53845637704918 -12.125007221686994 2.2707470000000005
    vertex 43.66044699999999 -13.025007221686991 2.2707469999999987
  endloop
endfacet
facet normal -5.498398656375378e-16 7.246456378648681e-15 -1.0
  outer loop
    vertex 43.66044699999999 -13.025007221686991 2.2707469999999987
    vertex 46.53845637704918 -12.125007221686994 2.2707470000000005
    vertex 44.660446999999984 -13.825007221686967 2.2707469999999965
  endloop
endfacet
facet normal -5.498398656375378e-16 7.246456378648681e-15 -1.0
  outer loop
    vertex 31.25 -14.125007221687017 2.270747000000005
    vertex 28.25 -14.125007221687017 2.270747000000005
    vertex 31.25 -13.625007221686978 2.2707469999999828
  endloop
endfacet
facet normal 1.0 -0.0 -0.0
  outer loop
    vertex 28.25 -9.675007221686993 1.4707470000000051
    vertex 28.25 -11.175007221686988 1.9707469999999918
    vertex 28.25 -11.175007221686993 1.4707470000000038
  endloop
endfacet
facet normal 1.0 -0.0 -0.0
  outer loop
    vertex 28.25 -11.175007221686988 1.9707469999999918
    vertex 28.25 -9.675007221686993 1.4707470000000051
    vertex 28.25 -9.675007221686997 1.9707470000000062
  endloop
endfacet
facet normal -2.8009560719607763e-06 0.9999999999789562 -5.851693962265455e-06
  outer loop
    vertex 28.222341000000007 -11.475007221687 3.2707470000000045
    vertex 47.04159083302067 -11.474956336555195 2.7707470000000005
    vertex 28.22274189742951 -11.475007294116203 2.7706468895883956
  endloop
endfacet
facet normal -2.8009560719607763e-06 0.9999999999789562 -5.851693962265455e-06
  outer loop
    vertex 47.04159083302067 -11.474956336555195 2.7707470000000005
    vertex 28.222341000000007 -11.475007221687 3.2707470000000045
    vertex 47.04159083302067 -11.474956336555195 3.270746999999996
  endloop
endfacet
facet normal 0.9999934290242635 -0.0035982083879873127 0.00044136684521499836
  outer loop
    vertex 28.227951999999988 -9.975007221686996 2.7706140000000037
    vertex 28.222341000000007 -11.475007221687 3.2707470000000045
    vertex 28.22274189742951 -11.475007294116203 2.7706468895883956
  endloop
endfacet
facet normal 0.9999934290242635 -0.0035982083879873127 0.00044136684521499836
  outer loop
    vertex 28.222341000000007 -11.475007221687 3.2707470000000045
    vertex 28.227951999999988 -9.975007221686996 2.7706140000000037
    vertex 28.227951999999988 -9.975007221686994 3.2707470000000045
  endloop
endfacet
facet normal 1.0 -0.0 -0.0
  outer loop
    vertex 22.25 -6.075007221686997 1.470747000000008
    vertex 22.25 -15.075007221686976 3.270746999999989
    vertex 22.25 -15.075007221686986 1.4707469999999903
  endloop
endfacet
facet normal 1.0 -0.0 -0.0
  outer loop
    vertex 22.25 -15.075007221686976 3.270746999999989
    vertex 22.25 -6.075007221686997 1.470747000000008
    vertex 22.25 -6.075007221686996 3.2707470000000174
  endloop
endfacet
facet normal 1.0 -0.0 -0.0
  outer loop
    vertex 22.25 -1.5750072216870024 0.5707470000000199
    vertex 22.25 -15.075007221686986 1.4707469999999903
    vertex 22.25 -19.575007221686985 0.5707469999999786
  endloop
endfacet
facet normal 1.0 -0.0 -0.0
  outer loop
    vertex 22.25 -15.075007221686986 1.4707469999999903
    vertex 22.25 -1.5750072216870024 0.5707470000000199
    vertex 22.25 -6.075007221686997 1.470747000000008
  endloop
endfacet
facet normal 1.0 -0.0 -0.0
  outer loop
    vertex 22.25 -6.075007221686997 1.470747000000008
    vertex 22.25 -1.5750072216870024 0.5707470000000199
    vertex 22.25 -6.075007221686996 3.2707470000000174
  endloop
endfacet
facet normal 1.0 -0.0 -0.0
  outer loop
    vertex 22.25 -6.075007221686996 3.2707470000000174
    vertex 22.25 -1.5750072216870024 0.5707470000000199
    vertex 22.25 -1.5750072216870044 4.17074700000001
  endloop
endfacet
facet normal 1.0 -0.0 -0.0
  outer loop
    vertex 22.25 -19.575007221686995 4.170746999999982
    vertex 22.25 -15.075007221686976 3.270746999999989
    vertex 22.25 -1.5750072216870044 4.17074700000001
  endloop
endfacet
facet normal 1.0 -0.0 -0.0
  outer loop
    vertex 22.25 -15.075007221686976 3.270746999999989
    vertex 22.25 -19.575007221686995 4.170746999999982
    vertex 22.25 -19.575007221686985 0.5707469999999786
  endloop
endfacet
facet normal 1.0 -0.0 -0.0
  outer loop
    vertex 22.25 -15.075007221686976 3.270746999999989
    vertex 22.25 -19.575007221686985 0.5707469999999786
    vertex 22.25 -15.075007221686986 1.4707469999999903
  endloop
endfacet
facet normal 1.0 -0.0 -0.0
  outer loop
    vertex 22.25 -1.5750072216870044 4.17074700000001
    vertex 22.25 -15.075007221686976 3.270746999999989
    vertex 22.25 -6.075007221686996 3.2707470000000174
  endloop
endfacet
facet normal -1.7624790515924675e-17 -1.5319212667489117e-15 1.0
  outer loop
    vertex 22.25 -19.575007221686995 4.170746999999982
    vertex 2.2499999999999987 -1.5750072216870044 4.17074700000001
    vertex 2.2499999999999987 -19.575007221686995 4.170746999999982
  endloop
endfacet
facet normal -1.7624790515924675e-17 -1.5319212667489117e-15 1.0
  outer loop
    vertex 2.2499999999999987 -1.5750072216870044 4.17074700000001
    vertex 22.25 -19.575007221686995 4.170746999999982
    vertex 22.25 -1.5750072216870044 4.17074700000001
  endloop
endfacet
facet normal -6.112944923740783e-06 1.0344688237587814e-05 0.9999999999278097
  outer loop
    vertex 47.04159083302067 -11.474956336555195 2.7707470000000005
    vertex 28.227951999999988 -9.975007221686996 2.7706140000000037
    vertex 28.22274189742951 -11.475007294116203 2.7706468895883956
  endloop
endfacet
facet normal -6.112944923740783e-06 1.0344688237587814e-05 0.9999999999278097
  outer loop
    vertex 28.227951999999988 -9.975007221686996 2.7706140000000037
    vertex 47.04159083302067 -11.474956336555195 2.7707470000000005
    vertex 47.03606557377049 -11.175007221686993 2.770746999999993
  endloop
endfacet
facet normal -6.112944923740783e-06 1.0344688237587814e-05 0.9999999999278097
  outer loop
    vertex 47.03606557377049 -9.975007221686996 2.7707470000000036
    vertex 28.227951999999988 -9.975007221686996 2.7706140000000037
    vertex 47.03606557377049 -11.175007221686993 2.770746999999993
  endloop
endfacet
facet normal 0.6449078730971549 0.7642603190126411 -3.2252706099082183e-15
  outer loop
    vertex 44.660447 -7.525007221686991 2.4707470000000162
    vertex 46.55655737704918 -9.125007221687003 1.4707470000000136
    vertex 44.660447 -7.525007221686999 1.4707470000000038
  endloop
endfacet
facet normal 0.6449078730971549 0.7642603190126411 -3.2252706099082183e-15
  outer loop
    vertex 46.55655737704918 -9.125007221687003 1.4707470000000136
    vertex 44.660447 -7.525007221686991 2.4707470000000162
    vertex 46.55655737704918 -9.125007221687003 2.470746999999996
  endloop
endfacet
facet normal 8.235318406179215e-17 -4.624498020479509e-15 1.0
  outer loop
    vertex 28.25 -9.12500722168699 2.4707470000000074
    vertex 32.849999999999994 -8.100007221687004 2.4707470000000025
    vertex 28.25 -7.225007221687 2.470747000000009
  endloop
endfacet
facet normal 8.235318406179215e-17 -4.624498020479509e-15 1.0
  outer loop
    vertex 32.849999999999994 -8.100007221687004 2.4707470000000025
    vertex 28.25 -9.12500722168699 2.4707470000000074
    vertex 36.749999638387926 -8.703767753676935 2.4707470000000007
  endloop
endfacet
facet normal 8.235318406179215e-17 -4.624498020479509e-15 1.0
  outer loop
    vertex 36.749999638387926 -8.703767753676935 2.4707470000000007
    vertex 28.25 -9.12500722168699 2.4707470000000074
    vertex 45.063228 -9.125007221687003 2.470746999999996
  endloop
endfacet
facet normal 8.235318406179215e-17 -4.624498020479509e-15 1.0
  outer loop
    vertex 28.25 -7.225007221687 2.470747000000009
    vertex 32.849999999999994 -8.100007221687004 2.4707470000000025
    vertex 31.25 -7.725007221687005 2.470747000000013
  endloop
endfacet
facet normal 8.235318406179215e-17 -4.624498020479509e-15 1.0
  outer loop
    vertex 31.25 -7.725007221687005 2.470747000000013
    vertex 32.849999999999994 -8.100007221687004 2.4707470000000025
    vertex 32.25 -7.725007221687007 2.4707470000000096
  endloop
endfacet
facet normal 8.235318406179215e-17 -4.624498020479509e-15 1.0
  outer loop
    vertex 32.849999999999994 -8.100007221687004 2.4707470000000025
    vertex 36.749999638387926 -8.703767753676935 2.4707470000000007
    vertex 33.89999999999999 -8.100007221687004 2.4707470000000025
  endloop
endfacet
facet normal 8.235318406179215e-17 -4.624498020479509e-15 1.0
  outer loop
    vertex 33.89999999999999 -8.100007221687004 2.4707470000000025
    vertex 36.749999638387926 -8.703767753676935 2.4707470000000007
    vertex 35.19999999999999 -8.098635221686983 2.470747000000015
  endloop
endfacet
facet normal 8.235318406179215e-17 -4.624498020479509e-15 1.0
  outer loop
    vertex 33.89999999999999 -8.100007221687004 2.4707470000000025
    vertex 35.19999999999999 -8.098635221686983 2.470747000000015
    vertex 34.54999999999999 -7.725007221687007 2.4707470000000096
  endloop
endfacet
facet normal 8.235318406179215e-17 -4.624498020479509e-15 1.0
  outer loop
    vertex 35.19999999999999 -8.098635221686983 2.470747000000015
    vertex 36.749999638387926 -8.703767753676935 2.4707470000000007
    vertex 36.150000000000006 -8.098635221686983 2.470747000000015
  endloop
endfacet
facet normal 8.235318406179215e-17 -4.624498020479509e-15 1.0
  outer loop
    vertex 36.749999638387926 -8.703767753676935 2.4707470000000007
    vertex 45.063228 -9.125007221687003 2.470746999999996
    vertex 37.549999638387916 -8.703767753676935 2.4707470000000007
  endloop
endfacet
facet normal 8.235318406179215e-17 -4.624498020479509e-15 1.0
  outer loop
    vertex 37.549999638387916 -8.703767753676935 2.4707470000000007
    vertex 45.063228 -9.125007221687003 2.470746999999996
    vertex 39.14999963838792 -8.702212753676926 2.470747000000015
  endloop
endfacet
facet normal 8.235318406179215e-17 -4.624498020479509e-15 1.0
  outer loop
    vertex 37.549999638387916 -8.703767753676935 2.4707470000000007
    vertex 39.14999963838792 -8.702212753676926 2.470747000000015
    vertex 38.349999999999994 -8.475007221686994 2.4707470000000056
  endloop
endfacet
facet normal 8.235318406179215e-17 -4.624498020479509e-15 1.0
  outer loop
    vertex 39.14999963838792 -8.702212753676926 2.470747000000015
    vertex 45.063228 -9.125007221687003 2.470746999999996
    vertex 39.95000001487851 -8.702212753676926 2.470747000000015
  endloop
endfacet
facet normal 8.235318406179215e-17 -4.624498020479509e-15 1.0
  outer loop
    vertex 39.95000001487851 -8.702212753676926 2.470747000000015
    vertex 45.063228 -9.125007221687003 2.470746999999996
    vertex 40.660464 -8.024635221686992 2.4707470000000122
  endloop
endfacet
facet normal 8.235318406179215e-17 -4.624498020479509e-15 1.0
  outer loop
    vertex 39.95000001487851 -8.702212753676926 2.470747000000015
    vertex 40.660464 -8.024635221686992 2.4707470000000122
    vertex 40.54999954139009 -7.9355178754697775 2.470747000000002
  endloop
endfacet
facet normal 8.235318406179215e-17 -4.624498020479509e-15 1.0
  outer loop
    vertex 40.660464 -8.024635221686992 2.4707470000000122
    vertex 45.063228 -9.125007221687003 2.470746999999996
    vertex 41.660464000000005 -8.024635221686992 2.4707470000000122
  endloop
endfacet
facet normal 8.235318406179215e-17 -4.624498020479509e-15 1.0
  outer loop
    vertex 41.660464000000005 -8.024635221686992 2.4707470000000122
    vertex 45.063228 -9.125007221687003 2.470746999999996
    vertex 42.66046380564255 -8.031300370119606 2.4707470000000047
  endloop
endfacet
facet normal 8.235318406179215e-17 -4.624498020479509e-15 1.0
  outer loop
    vertex 41.660464000000005 -8.024635221686992 2.4707470000000122
    vertex 42.66046380564255 -8.031300370119606 2.4707470000000047
    vertex 42.211228536685375 -7.729604446224483 2.4707470000000042
  endloop
endfacet
facet normal 8.235318406179215e-17 -4.624498020479509e-15 1.0
  outer loop
    vertex 42.66046380564255 -8.031300370119606 2.4707470000000047
    vertex 45.063228 -9.125007221687003 2.470746999999996
    vertex 43.660447 -8.024635221686992 2.4707470000000122
  endloop
endfacet
facet normal 8.235318406179215e-17 -4.624498020479509e-15 1.0
  outer loop
    vertex 43.660447 -8.024635221686992 2.4707470000000122
    vertex 45.063228 -9.125007221687003 2.470746999999996
    vertex 44.660447 -7.525007221686991 2.4707470000000162
  endloop
endfacet
facet normal 8.235318406179215e-17 -4.624498020479509e-15 1.0
  outer loop
    vertex 44.660447 -7.525007221686991 2.4707470000000162
    vertex 45.063228 -9.125007221687003 2.470746999999996
    vertex 46.55655737704918 -9.125007221687003 2.470746999999996
  endloop
endfacet
facet normal 8.235318406179215e-17 -4.624498020479509e-15 1.0
  outer loop
    vertex 31.25 -7.225007221687 2.470747000000009
    vertex 28.25 -7.225007221687 2.470747000000009
    vertex 31.25 -7.725007221687005 2.470747000000013
  endloop
endfacet
facet normal 3.2502183041097284e-16 1.7759162125752545e-15 -1.0
  outer loop
    vertex 31.25 -6.075007221686997 1.470747000000008
    vertex 22.25 -15.075007221686986 1.4707469999999903
    vertex 22.25 -6.075007221686997 1.470747000000008
  endloop
endfacet
facet normal 3.2502183041097284e-16 1.7759162125752545e-15 -1.0
  outer loop
    vertex 22.25 -15.075007221686986 1.4707469999999903
    vertex 31.25 -6.075007221686997 1.470747000000008
    vertex 28.25 -9.675007221686993 1.4707470000000051
  endloop
endfacet
facet normal 3.2502183041097284e-16 1.7759162125752545e-15 -1.0
  outer loop
    vertex 28.25 -9.675007221686993 1.4707470000000051
    vertex 31.25 -6.075007221686997 1.470747000000008
    vertex 31.25 -7.725007221686986 1.470747000000008
  endloop
endfacet
facet normal 3.2502183041097284e-16 1.7759162125752545e-15 -1.0
  outer loop
    vertex 28.25 -9.675007221686993 1.4707470000000051
    vertex 31.25 -7.725007221686986 1.470747000000008
    vertex 32.849999999999994 -8.100007221687013 1.4707470000000058
  endloop
endfacet
facet normal 3.2502183041097284e-16 1.7759162125752545e-15 -1.0
  outer loop
    vertex 28.25 -9.675007221686993 1.4707470000000051
    vertex 32.849999999999994 -8.100007221687013 1.4707470000000058
    vertex 36.749999638387926 -8.703767753676935 1.4707470000000016
  endloop
endfacet
facet normal 3.2502183041097284e-16 1.7759162125752545e-15 -1.0
  outer loop
    vertex 28.25 -9.675007221686993 1.4707470000000051
    vertex 36.749999638387926 -8.703767753676935 1.4707470000000016
    vertex 47.03606557377049 -9.675007221686993 1.4707470000000051
  endloop
endfacet
facet normal 3.2502183041097284e-16 1.7759162125752545e-15 -1.0
  outer loop
    vertex 32.849999999999994 -8.100007221687013 1.4707470000000058
    vertex 31.25 -7.725007221686986 1.470747000000008
    vertex 32.25 -7.725007221686986 1.470747000000008
  endloop
endfacet
facet normal 3.2502183041097284e-16 1.7759162125752545e-15 -1.0
  outer loop
    vertex 36.749999638387926 -8.703767753676935 1.4707470000000016
    vertex 32.849999999999994 -8.100007221687013 1.4707470000000058
    vertex 33.89999999999999 -8.100007221687013 1.4707470000000058
  endloop
endfacet
facet normal 3.2502183041097284e-16 1.7759162125752545e-15 -1.0
  outer loop
    vertex 36.749999638387926 -8.703767753676935 1.4707470000000016
    vertex 33.89999999999999 -8.100007221687013 1.4707470000000058
    vertex 35.19999999999999 -8.098635221686997 1.4707470000000038
  endloop
endfacet
facet normal 3.2502183041097284e-16 1.7759162125752545e-15 -1.0
  outer loop
    vertex 35.19999999999999 -8.098635221686997 1.4707470000000038
    vertex 33.89999999999999 -8.100007221687013 1.4707470000000058
    vertex 34.54999999999999 -7.725007221686986 1.470747000000008
  endloop
endfacet
facet normal 3.2502183041097284e-16 1.7759162125752545e-15 -1.0
  outer loop
    vertex 36.749999638387926 -8.703767753676935 1.4707470000000016
    vertex 35.19999999999999 -8.098635221686997 1.4707470000000038
    vertex 36.150000000000006 -8.098635221686996 1.4707470000000027
  endloop
endfacet
facet normal 3.2502183041097284e-16 1.7759162125752545e-15 -1.0
  outer loop
    vertex 47.03606557377049 -9.675007221686993 1.4707470000000051
    vertex 36.749999638387926 -8.703767753676935 1.4707470000000016
    vertex 37.549999638387916 -8.703767753676935 1.4707470000000016
  endloop
endfacet
facet normal 3.2502183041097284e-16 1.7759162125752545e-15 -1.0
  outer loop
    vertex 47.03606557377049 -9.675007221686993 1.4707470000000051
    vertex 37.549999638387916 -8.703767753676935 1.4707470000000016
    vertex 39.14999963838792 -8.702212753676925 1.4707470000000065
  endloop
endfacet
facet normal 3.2502183041097284e-16 1.7759162125752545e-15 -1.0
  outer loop
    vertex 39.14999963838792 -8.702212753676925 1.4707470000000065
    vertex 37.549999638387916 -8.703767753676935 1.4707470000000016
    vertex 38.349999999999994 -8.475007221687 1.470747000000008
  endloop
endfacet
facet normal 3.2502183041097284e-16 1.7759162125752545e-15 -1.0
  outer loop
    vertex 47.03606557377049 -9.675007221686993 1.4707470000000051
    vertex 39.14999963838792 -8.702212753676925 1.4707470000000065
    vertex 39.95000001487851 -8.702212753676925 1.4707470000000065
  endloop
endfacet
facet normal 3.2502183041097284e-16 1.7759162125752545e-15 -1.0
  outer loop
    vertex 47.03606557377049 -9.675007221686993 1.4707470000000051
    vertex 39.95000001487851 -8.702212753676925 1.4707470000000065
    vertex 40.660464 -8.024635221687 1.4707470000000116
  endloop
endfacet
facet normal 3.2502183041097284e-16 1.7759162125752545e-15 -1.0
  outer loop
    vertex 40.660464 -8.024635221687 1.4707470000000116
    vertex 39.95000001487851 -8.702212753676925 1.4707470000000065
    vertex 40.54999954139009 -7.93551787546978 1.4707470000000153
  endloop
endfacet
facet normal 3.2502183041097284e-16 1.7759162125752545e-15 -1.0
  outer loop
    vertex 47.03606557377049 -9.675007221686993 1.4707470000000051
    vertex 40.660464 -8.024635221687 1.4707470000000116
    vertex 41.660464000000005 -8.024635221687 1.4707470000000116
  endloop
endfacet
facet normal 3.2502183041097284e-16 1.7759162125752545e-15 -1.0
  outer loop
    vertex 47.03606557377049 -9.675007221686993 1.4707470000000051
    vertex 41.660464000000005 -8.024635221687 1.4707470000000116
    vertex 42.66046380564255 -8.031300370119604 1.4707470000000167
  endloop
endfacet
facet normal 3.2502183041097284e-16 1.7759162125752545e-15 -1.0
  outer loop
    vertex 42.66046380564255 -8.031300370119604 1.4707470000000167
    vertex 41.660464000000005 -8.024635221687 1.4707470000000116
    vertex 42.211228536685375 -7.72960444622448 1.4707470000000158
  endloop
endfacet
facet normal 3.2502183041097284e-16 1.7759162125752545e-15 -1.0
  outer loop
    vertex 47.03606557377049 -9.675007221686993 1.4707470000000051
    vertex 42.66046380564255 -8.031300370119604 1.4707470000000167
    vertex 43.660447 -8.024635221687 1.4707470000000116
  endloop
endfacet
facet normal 3.2502183041097284e-16 1.7759162125752545e-15 -1.0
  outer loop
    vertex 47.03606557377049 -9.675007221686993 1.4707470000000051
    vertex 43.660447 -8.024635221687 1.4707470000000116
    vertex 44.660447 -7.525007221686999 1.4707470000000038
  endloop
endfacet
facet normal 3.2502183041097284e-16 1.7759162125752545e-15 -1.0
  outer loop
    vertex 47.03606557377049 -9.675007221686993 1.4707470000000051
    vertex 44.660447 -7.525007221686999 1.4707470000000038
    vertex 46.55655737704918 -9.125007221687003 1.4707470000000136
  endloop
endfacet
facet normal 3.2502183041097284e-16 1.7759162125752545e-15 -1.0
  outer loop
    vertex 47.03606557377049 -11.175007221686993 1.4707470000000038
    vertex 28.25 -12.125007221687 1.4707470000000056
    vertex 28.25 -11.175007221686993 1.4707470000000038
  endloop
endfacet
facet normal 3.2502183041097284e-16 1.7759162125752545e-15 -1.0
  outer loop
    vertex 28.25 -12.125007221687 1.4707470000000056
    vertex 47.03606557377049 -11.175007221686993 1.4707470000000038
    vertex 46.53845637704918 -12.125007221687 1.4707470000000056
  endloop
endfacet
facet normal 3.2502183041097284e-16 1.7759162125752545e-15 -1.0
  outer loop
    vertex 46.53845637704918 -12.125007221687 1.4707470000000056
    vertex 47.03606557377049 -11.175007221686993 1.4707470000000038
    vertex 47.03606557377049 -11.706562221686994 1.470747000000008
  endloop
endfacet
facet normal 3.2502183041097284e-16 1.7759162125752545e-15 -1.0
  outer loop
    vertex 22.25 -15.075007221686986 1.4707469999999903
    vertex 28.25 -14.125007221686989 1.4707469999999936
    vertex 31.25 -15.075007221686986 1.4707469999999903
  endloop
endfacet
facet normal 3.2502183041097284e-16 1.7759162125752545e-15 -1.0
  outer loop
    vertex 28.25 -14.125007221686989 1.4707469999999936
    vertex 22.25 -15.075007221686986 1.4707469999999903
    vertex 28.25 -9.675007221686993 1.4707470000000051
  endloop
endfacet
facet normal 3.2502183041097284e-16 1.7759162125752545e-15 -1.0
  outer loop
    vertex 28.25 -14.125007221686989 1.4707469999999936
    vertex 28.25 -9.675007221686993 1.4707470000000051
    vertex 28.25 -11.175007221686993 1.4707470000000038
  endloop
endfacet
facet normal 3.2502183041097284e-16 1.7759162125752545e-15 -1.0
  outer loop
    vertex 28.25 -14.125007221686989 1.4707469999999936
    vertex 28.25 -11.175007221686993 1.4707470000000038
    vertex 28.25 -12.125007221687 1.4707470000000056
  endloop
endfacet
facet normal 3.2502183041097284e-16 1.7759162125752545e-15 -1.0
  outer loop
    vertex 31.25 -15.075007221686986 1.4707469999999903
    vertex 28.25 -14.125007221686989 1.4707469999999936
    vertex 31.25 -14.125007221686989 1.4707469999999936
  endloop
endfacet
facet normal -3.643939803861335e-33 -1.0 -8.459899447643674e-15
  outer loop
    vertex 47.03606557377049 -9.675007221686997 1.9707470000000062
    vertex 28.25 -9.675007221686993 1.4707470000000051
    vertex 47.03606557377049 -9.675007221686993 1.4707470000000051
  endloop
endfacet
facet normal -3.643939803861335e-33 -1.0 -8.459899447643674e-15
  outer loop
    vertex 28.25 -9.675007221686993 1.4707470000000051
    vertex 47.03606557377049 -9.675007221686997 1.9707470000000062
    vertex 28.25 -9.675007221686997 1.9707470000000062
  endloop
endfacet
facet normal 6.285034773134091e-33 1.0 -1.1279865930191858e-14
  outer loop
    vertex 28.25 -11.175007221686988 1.9707469999999918
    vertex 47.03606557377049 -11.175007221686993 1.4707470000000038
    vertex 28.25 -11.175007221686993 1.4707470000000038
  endloop
endfacet
facet normal 6.285034773134091e-33 1.0 -1.1279865930191858e-14
  outer loop
    vertex 47.03606557377049 -11.175007221686993 1.4707470000000038
    vertex 28.25 -11.175007221686988 1.9707469999999918
    vertex 47.03606557377049 -11.175007221686988 1.9707469999999918
  endloop
endfacet
facet normal 0.0 9.634885482038705e-15 -1.0
  outer loop
    vertex 47.03606557377049 -9.675007221686997 1.9707470000000062
    vertex 28.25 -11.175007221686988 1.9707469999999918
    vertex 28.25 -9.675007221686997 1.9707470000000062
  endloop
endfacet
facet normal 0.0 9.634885482038705e-15 -1.0
  outer loop
    vertex 28.25 -11.175007221686988 1.9707469999999918
    vertex 47.03606557377049 -9.675007221686997 1.9707470000000062
    vertex 47.03606557377049 -11.175007221686988 1.9707469999999918
  endloop
endfacet
facet normal 0.6436007492349685 -0.7653614019430214 -3.6221026040465855e-16
  outer loop
    vertex 47.03606557377049 -11.706562221686994 1.470747000000008
    vertex 46.53845637704918 -12.125007221686994 2.2707470000000005
    vertex 46.53845637704918 -12.125007221687 1.4707470000000056
  endloop
endfacet
facet normal 0.6436007492349685 -0.7653614019430214 -3.6221026040465855e-16
  outer loop
    vertex 46.53845637704918 -12.125007221686994 2.2707470000000005
    vertex 47.03606557377049 -11.706562221686994 1.470747000000008
    vertex 47.03606557377049 -11.706562221687 3.2707469999999974
  endloop
endfacet
facet normal 0.6436007492349685 -0.7653614019430214 -3.6221026040465855e-16
  outer loop
    vertex 46.53845637704918 -12.125007221686994 2.2707470000000005
    vertex 47.03606557377049 -11.706562221687 3.2707469999999974
    vertex 46.53845637704918 -12.125007221686996 3.270746999999992
  endloop
endfacet
facet normal 1.0 -0.0 -0.0
  outer loop
    vertex 47.03606557377049 -11.175007221686988 1.9707469999999918
    vertex 47.03606557377049 -9.975007221686996 2.7707470000000036
    vertex 47.03606557377049 -11.175007221686993 2.770746999999993
  endloop
endfacet
facet normal 1.0 -0.0 -0.0
  outer loop
    vertex 47.03606557377049 -9.975007221686996 2.7707470000000036
    vertex 47.03606557377049 -11.175007221686988 1.9707469999999918
    vertex 47.03606557377049 -9.675007221686997 1.9707470000000062
  endloop
endfacet
facet normal 1.0 -0.0 -0.0
  outer loop
    vertex 47.03606557377049 -9.975007221686996 2.7707470000000036
    vertex 47.03606557377049 -9.675007221686997 1.9707470000000062
    vertex 47.03606557377049 -9.67500722168699 2.7707470000000067
  endloop
endfacet
facet normal 0.9999982793750246 0.0009406986852051139 -0.0015988536436341227
  outer loop
    vertex 47.03606557377049 -11.175007221686993 1.4707470000000038
    vertex 47.04159083302067 -11.474956336555195 2.7707470000000005
    vertex 47.03606557377049 -11.706562221687 3.2707469999999974
  endloop
endfacet
facet normal 0.9999982793750246 0.0009406986852051139 -0.0015988536436341227
  outer loop
    vertex 47.04159083302067 -11.474956336555195 2.7707470000000005
    vertex 47.03606557377049 -11.175007221686993 1.4707470000000038
    vertex 47.03606557377049 -11.175007221686993 2.770746999999993
  endloop
endfacet
facet normal 0.9999982793750246 0.0009406986852051139 -0.0015988536436341227
  outer loop
    vertex 47.03606557377049 -11.175007221686993 2.770746999999993
    vertex 47.03606557377049 -11.175007221686993 1.4707470000000038
    vertex 47.03606557377049 -11.175007221686988 1.9707469999999918
  endloop
endfacet
facet normal 0.9999982793750246 0.0009406986852051139 -0.0015988536436341227
  outer loop
    vertex 47.04159083302067 -11.474956336555195 3.270746999999996
    vertex 47.03606557377049 -11.706562221687 3.2707469999999974
    vertex 47.04159083302067 -11.474956336555195 2.7707470000000005
  endloop
endfacet
facet normal 0.7537584624815886 0.6571515656508715 -1.5143205463682666e-15
  outer loop
    vertex 47.03606557377049 -9.67500722168699 2.7707470000000067
    vertex 47.03606557377049 -9.675007221686993 3.0772365168927376
    vertex 47.03606557377049 -9.675007221687002 2.8633932924159824
  endloop
endfacet
facet normal 0.7537584624815886 0.6571515656508715 -1.5143205463682666e-15
  outer loop
    vertex 47.03606557377049 -9.675007221686993 1.4707470000000051
    vertex 47.03606557377049 -9.67500722168699 2.7707470000000067
    vertex 47.03606557377049 -9.675007221686997 1.9707470000000062
  endloop
endfacet
facet normal 0.7537584624815886 0.6571515656508715 -1.5143205463682666e-15
  outer loop
    vertex 47.03606557377049 -9.67500722168699 2.7707470000000067
    vertex 47.03606557377049 -9.675007221686993 1.4707470000000051
    vertex 46.55655737704918 -9.125007221687003 1.4707470000000136
  endloop
endfacet
facet normal 0.7537584624815886 0.6571515656508715 -1.5143205463682666e-15
  outer loop
    vertex 47.03606557377049 -9.675007221686993 3.0772365168927376
    vertex 46.55655737704918 -9.12500722168699 3.2707470000000076
    vertex 47.03606557377049 -9.675007221686998 3.270747000000009
  endloop
endfacet
facet normal 0.7537584624815886 0.6571515656508715 -1.5143205463682666e-15
  outer loop
    vertex 46.55655737704918 -9.12500722168699 3.2707470000000076
    vertex 47.03606557377049 -9.675007221686993 3.0772365168927376
    vertex 47.03606557377049 -9.67500722168699 2.7707470000000067
  endloop
endfacet
facet normal 0.7537584624815886 0.6571515656508715 -1.5143205463682666e-15
  outer loop
    vertex 46.55655737704918 -9.12500722168699 3.2707470000000076
    vertex 47.03606557377049 -9.67500722168699 2.7707470000000067
    vertex 46.55655737704918 -9.125007221687003 2.470746999999996
  endloop
endfacet
facet normal 0.7537584624815886 0.6571515656508715 -1.5143205463682666e-15
  outer loop
    vertex 46.55655737704918 -9.125007221687003 2.470746999999996
    vertex 47.03606557377049 -9.67500722168699 2.7707470000000067
    vertex 46.55655737704918 -9.125007221687003 1.4707470000000136
  endloop
endfacet
facet normal 0.7537584624815886 0.6571515656508715 -1.5143205463682666e-15
  outer loop
    vertex 46.55655737704918 -9.12500722168699 3.2707470000000076
    vertex 46.55655737704918 -9.125007221687003 2.470746999999996
    vertex 46.55655737704918 -9.12500722168699 2.7707470000000045
  endloop
endfacet
facet normal 1.0 -0.0 -0.0
  outer loop
    vertex 47.03606557377049 -9.67500722168699 2.7707470000000067
    vertex 47.03606557377049 -9.975007221686994 3.2707470000000045
    vertex 47.03606557377049 -9.975007221686996 2.7707470000000036
  endloop
endfacet
facet normal 1.0 -0.0 -0.0
  outer loop
    vertex 47.03606557377049 -9.975007221686994 3.2707470000000045
    vertex 47.03606557377049 -9.67500722168699 2.7707470000000067
    vertex 47.03606557377049 -9.675007221687002 2.8633932924159824
  endloop
endfacet
facet normal 1.0 -0.0 -0.0
  outer loop
    vertex 47.03606557377049 -9.675007221687002 2.8633932924159824
    vertex 47.03606557377049 -9.675007221686998 3.270747000000009
    vertex 47.03606557377049 -9.975007221686994 3.2707470000000045
  endloop
endfacet
facet normal 1.0 -0.0 -0.0
  outer loop
    vertex 47.03606557377049 -9.675007221686998 3.270747000000009
    vertex 47.03606557377049 -9.675007221687002 2.8633932924159824
    vertex 47.03606557377049 -9.675007221686993 3.0772365168927376
  endloop
endfacet
facet normal -1.9027698641766403e-19 -1.0 5.6303180118316844e-15
  outer loop
    vertex 47.03606557377049 -9.975007221686996 2.7707470000000036
    vertex 28.227951999999988 -9.975007221686994 3.2707470000000045
    vertex 28.227951999999988 -9.975007221686996 2.7706140000000037
  endloop
endfacet
facet normal -1.9027698641766403e-19 -1.0 5.6303180118316844e-15
  outer loop
    vertex 28.227951999999988 -9.975007221686994 3.2707470000000045
    vertex 47.03606557377049 -9.975007221686996 2.7707470000000036
    vertex 47.03606557377049 -9.975007221686994 3.2707470000000045
  endloop
endfacet
facet normal 1.0 -0.0 -0.0
  outer loop
    vertex 47.03606557377049 -11.175007221686993 1.4707470000000038
    vertex 47.03606557377049 -11.706562221687 3.2707469999999974
    vertex 47.03606557377049 -11.706562221686994 1.470747000000008
  endloop
endfacet
facet normal -3.3280850053331734e-05 0.9999999620427681 0.0002735084047567744
  outer loop
    vertex 28.25 -9.12500722168699 2.4707470000000074
    vertex 45.063234229878574 -9.122850466825016 2.770825702526886
    vertex 45.063228 -9.125007221687003 2.470746999999996
  endloop
endfacet
facet normal -3.3280850053331734e-05 0.9999999620427681 0.0002735084047567744
  outer loop
    vertex 45.063234229878574 -9.122850466825016 2.770825702526886
    vertex 28.25 -9.12500722168699 2.4707470000000074
    vertex 28.25 -9.12500722168699 3.2707470000000076
  endloop
endfacet
facet normal -3.3280850053331734e-05 0.9999999620427681 0.0002735084047567744
  outer loop
    vertex 45.063234229878574 -9.122850466825016 2.770825702526886
    vertex 46.55655737704918 -9.12500722168699 3.2707470000000076
    vertex 46.55655737704918 -9.12500722168699 2.7707470000000045
  endloop
endfacet
facet normal -3.3280850053331734e-05 0.9999999620427681 0.0002735084047567744
  outer loop
    vertex 46.55655737704918 -9.12500722168699 3.2707470000000076
    vertex 45.063234229878574 -9.122850466825016 2.770825702526886
    vertex 28.25 -9.12500722168699 3.2707470000000076
  endloop
endfacet
facet normal 0.0007220300817970639 0.9999932788302325 -0.0035945746510595788
  outer loop
    vertex 45.063234229878574 -9.122850466825016 2.770825702526886
    vertex 46.55655737704918 -9.125007221687003 2.470746999999996
    vertex 45.063228 -9.125007221687003 2.470746999999996
  endloop
endfacet
facet normal 0.0007220300817970639 0.9999932788302325 -0.0035945746510595788
  outer loop
    vertex 46.55655737704918 -9.125007221687003 2.470746999999996
    vertex 45.063234229878574 -9.122850466825016 2.770825702526886
    vertex 46.55655737704918 -9.12500722168699 2.7707470000000045
  endloop
endfacet
endsolid Linear Access Control Master Key v1.2
